<svg width="191" height="80" viewBox="0 0 191 80" fill="none" xmlns="http://www.w3.org/2000/svg">
<g id="byma-logo 1">
<g id="Group">
<g id="Group_2">
<g id="Group_3">
<path id="Vector" d="M31.4175 17.1562L30.2208 7.32147C28.8933 7.47468 27.0836 7.85934 25.7676 8.26681L28.6906 17.7316C29.5701 17.4643 30.4856 17.272 31.4175 17.1562Z" fill="white"/>
<path id="Vector_2" d="M9.23016 23.1168C8.69884 24.3408 8.12829 26.0962 7.82422 27.4343L17.5088 29.6428C17.7197 28.7383 18.0091 27.8483 18.3688 26.9992L9.23016 23.1168Z" fill="white"/>
<path id="Vector_3" d="M15.505 52.5119L22.2666 45.2523C21.5816 44.6134 20.9538 43.9207 20.398 43.1905L12.4561 49.1396C13.2522 50.2072 14.4914 51.5779 15.505 52.5119Z" fill="white"/>
<path id="Vector_4" d="M35.4756 49.5275L36.6723 59.3639C38.0014 59.2107 39.8111 58.8261 41.1255 58.4186L38.2025 48.9538C37.3229 49.2195 36.4074 49.4118 35.4756 49.5275Z" fill="white"/>
<path id="Vector_5" d="M57.663 43.567C58.1943 42.343 58.7649 40.5876 59.069 39.2494L49.386 37.0409C49.1751 37.9471 48.8841 38.8354 48.5244 39.6846L57.663 43.567Z" fill="white"/>
<path id="Vector_6" d="M51.3905 14.1736L44.6289 21.4331C45.3139 22.072 45.9417 22.7647 46.4975 23.4949L54.4394 17.5474C53.6384 16.475 52.4008 15.1042 51.3905 14.1736Z" fill="white"/>
</g>
<g id="Group_4">
<path id="Vector_7" d="M31.4175 17.1562L30.2208 7.32147C28.8933 7.47468 27.0836 7.85934 25.7676 8.26681L28.6906 17.7316C29.5701 17.4643 30.4856 17.272 31.4175 17.1562Z" fill="white"/>
<path id="Vector_8" d="M9.23016 23.1168C8.69884 24.3408 8.12829 26.0962 7.82422 27.4343L17.5088 29.6428C17.7197 28.7383 18.0091 27.8483 18.3688 26.9992L9.23016 23.1168Z" fill="white"/>
<path id="Vector_9" d="M15.505 52.5119L22.2666 45.2523C21.5816 44.6134 20.9538 43.9207 20.398 43.1905L12.4561 49.1396C13.2522 50.2072 14.4914 51.5779 15.505 52.5119Z" fill="white"/>
<path id="Vector_10" d="M35.4756 49.5275L36.6723 59.3639C38.0014 59.2107 39.8111 58.8261 41.1255 58.4186L38.2025 48.9538C37.3229 49.2195 36.4074 49.4118 35.4756 49.5275Z" fill="white"/>
<path id="Vector_11" d="M57.663 43.567C58.1943 42.343 58.7649 40.5876 59.069 39.2494L49.386 37.0409C49.1751 37.9471 48.8841 38.8354 48.5244 39.6846L57.663 43.567Z" fill="white"/>
<path id="Vector_12" d="M51.3905 14.1736L44.6289 21.4331C45.3139 22.072 45.9417 22.7647 46.4975 23.4949L54.4394 17.5474C53.6384 16.475 52.4008 15.1042 51.3905 14.1736Z" fill="white"/>
</g>
</g>
<g id="Group_5">
<g id="Group_6">
<path id="Vector_13" d="M20.3972 23.5014C20.9629 22.7565 21.589 22.0606 22.2593 21.4347L19.5357 18.5139L14.2879 12.9527C13.1174 14.0464 12.0384 15.2411 11.0771 16.5092L12.9327 17.9157L20.3972 23.5014Z" fill="white"/>
<path id="Vector_14" d="M7.63612 44.2418L9.83003 43.3242L18.367 39.6911C18.0123 38.8501 17.7245 37.9618 17.5104 37.0458L13.6048 37.939L6.14844 39.6911C6.50973 41.2411 7.00998 42.7716 7.63612 44.2418Z" fill="white"/>
<path id="Vector_15" d="M28.6959 48.9587L27.4878 52.8769L25.3135 60.086C26.8404 60.5472 28.4196 60.8781 30.0103 61.072L30.3176 58.6582L31.4228 49.5308C30.4893 49.4167 29.5722 49.2244 28.6959 48.9587Z" fill="white"/>
<path id="Vector_16" d="M46.4958 43.184C45.9302 43.9289 45.3057 44.6232 44.6338 45.2507L47.4097 48.2285L52.6051 53.731C53.774 52.639 54.8546 51.4427 55.8159 50.1746L53.9146 48.7338L46.4958 43.184Z" fill="white"/>
<path id="Vector_17" d="M59.2583 22.442L57.066 23.3596L48.5273 26.9926C48.8837 27.8337 49.1715 28.7236 49.384 29.638L53.4073 28.7187L60.7476 26.9926C60.383 25.4426 59.8827 23.9121 59.2583 22.442Z" fill="white"/>
<path id="Vector_18" d="M38.1985 17.7251L39.3887 13.8639L41.581 6.59616C40.0541 6.1349 38.4748 5.80403 36.8842 5.61008L36.5899 7.91148L35.4717 17.1513C36.4035 17.2671 37.3207 17.4594 38.1985 17.7251Z" fill="white"/>
</g>
<g id="Group_7">
<path id="Vector_19" d="M20.3972 23.5014C20.9629 22.7565 21.589 22.0606 22.2593 21.4347L19.5357 18.5139L14.2879 12.9527C13.1174 14.0464 12.0384 15.2411 11.0771 16.5092L12.9327 17.9157L20.3972 23.5014Z" fill="white"/>
<path id="Vector_20" d="M7.63612 44.2418L9.83003 43.3242L18.367 39.6911C18.0123 38.8501 17.7245 37.9618 17.5104 37.0458L13.6048 37.939L6.14844 39.6911C6.50973 41.2411 7.00998 42.7716 7.63612 44.2418Z" fill="white"/>
<path id="Vector_21" d="M28.6959 48.9587L27.4878 52.8769L25.3135 60.086C26.8404 60.5472 28.4196 60.8781 30.0103 61.072L30.3176 58.6582L31.4228 49.5308C30.4893 49.4167 29.5722 49.2244 28.6959 48.9587Z" fill="white"/>
<path id="Vector_22" d="M46.4958 43.184C45.9302 43.9289 45.3057 44.6232 44.6338 45.2507L47.4097 48.2285L52.6051 53.731C53.774 52.639 54.8546 51.4427 55.8159 50.1746L53.9146 48.7338L46.4958 43.184Z" fill="white"/>
<path id="Vector_23" d="M59.2583 22.442L57.066 23.3596L48.5273 26.9926C48.8837 27.8337 49.1715 28.7236 49.384 29.638L53.4073 28.7187L60.7476 26.9926C60.383 25.4426 59.8827 23.9121 59.2583 22.442Z" fill="white"/>
<path id="Vector_24" d="M38.1985 17.7251L39.3887 13.8639L41.581 6.59616C40.0541 6.1349 38.4748 5.80403 36.8842 5.61008L36.5899 7.91148L35.4717 17.1513C36.4035 17.2671 37.3207 17.4594 38.1985 17.7251Z" fill="white"/>
</g>
</g>
<g id="Group_8">
<path id="Vector_25" d="M23.4378 4.40723C21.7589 4.98258 20.1192 5.71114 18.5645 6.57009L23.8024 15.9485C24.7947 15.3992 25.8394 14.9314 26.9265 14.5549L23.4378 4.40723Z" fill="white"/>
<path id="Vector_26" d="M3.30516 27.5158C2.97002 29.2468 2.78529 31.0266 2.75586 32.8065L13.5571 32.9727C13.5767 31.8171 13.6944 30.686 13.9053 29.5858L3.30516 27.5158Z" fill="white"/>
<path id="Vector_27" d="M13.3213 56.4448C14.6684 57.6102 16.1185 58.6631 17.6356 59.5726L23.1874 50.3197C22.2098 49.7313 21.2861 49.0614 20.4278 48.3198L13.3213 56.4448Z" fill="white"/>
<path id="Vector_28" d="M43.4559 62.2765C45.1348 61.7012 46.7746 60.9726 48.3293 60.112L43.0652 50.6896C42.0745 51.2373 41.0331 51.7018 39.9492 52.075L43.4559 62.2765Z" fill="white"/>
<path id="Vector_29" d="M63.5872 39.1679C63.9223 37.437 64.1087 35.6571 64.1364 33.8773L53.3336 33.7111C53.3107 34.8667 53.1881 35.9978 52.9756 37.0963L63.5872 39.1679Z" fill="white"/>
<path id="Vector_30" d="M53.5704 10.239C52.2233 9.0736 50.7732 8.02069 49.2561 7.11121L43.7305 16.3201C44.7097 16.9117 45.6334 17.5849 46.4933 18.3314L53.5704 10.239Z" fill="white"/>
</g>
<g id="Group_9">
<g id="Group_10">
<path id="Vector_31" d="M17.6232 7.11447C16.0995 8.02884 14.6495 9.08175 13.3105 10.2439L20.3942 18.3346C21.2525 17.5882 22.1778 16.915 23.1554 16.3234L17.6232 7.11447Z" fill="white"/>
<path id="Vector_32" d="M2.75781 33.892C2.77416 34.79 2.82974 35.6816 2.91966 36.5422C3.01121 37.406 3.14363 38.2927 3.31528 39.181L13.917 37.1045C13.7045 36.0059 13.5819 34.8748 13.559 33.7192L2.75781 33.892Z" fill="white"/>
<path id="Vector_33" d="M18.5781 60.1153C20.1312 60.9743 21.7693 61.7028 23.4515 62.2814L26.9516 52.0783C25.8678 51.7051 24.8247 51.2405 23.834 50.6929L18.5781 60.1153Z" fill="white"/>
<path id="Vector_34" d="M49.2713 59.5693C50.7949 58.6549 52.245 57.602 53.5855 56.4383L46.4725 48.3133C45.6142 49.0565 44.6905 49.7264 43.7129 50.3148L49.2713 59.5693Z" fill="white"/>
<path id="Vector_35" d="M64.1351 32.7934C64.1187 31.8954 64.0632 31.0038 63.9732 30.1432C63.8817 29.2794 63.7493 28.3927 63.5776 27.5044L52.9873 29.5793C53.1966 30.6795 53.3159 31.8106 53.3355 32.9662L64.1351 32.7934Z" fill="white"/>
<path id="Vector_36" d="M43.1684 15.7953L48.3165 6.56847C46.7634 5.70952 45.1237 4.98096 43.4431 4.40234L39.9609 14.5533C41.0481 14.9282 42.0927 15.396 43.0851 15.9452L43.1684 15.7953Z" fill="white"/>
</g>
<g id="Group_11">
<path id="Vector_37" d="M17.6232 7.11447C16.0995 8.02884 14.6495 9.08175 13.3105 10.2439L20.3942 18.3346C21.2525 17.5882 22.1778 16.915 23.1554 16.3234L17.6232 7.11447Z" fill="white"/>
<path id="Vector_38" d="M2.75781 33.892C2.77416 34.79 2.82974 35.6816 2.91966 36.5422C3.01121 37.406 3.14363 38.2927 3.31528 39.181L13.917 37.1045C13.7045 36.0059 13.5819 34.8748 13.559 33.7192L2.75781 33.892Z" fill="white"/>
<path id="Vector_39" d="M18.5781 60.1153C20.1312 60.9743 21.7693 61.7028 23.4515 62.2814L26.9516 52.0783C25.8678 51.7051 24.8247 51.2405 23.834 50.6929L18.5781 60.1153Z" fill="white"/>
<path id="Vector_40" d="M49.2713 59.5693C50.7949 58.6549 52.245 57.602 53.5855 56.4383L46.4725 48.3133C45.6142 49.0565 44.6905 49.7264 43.7129 50.3148L49.2713 59.5693Z" fill="white"/>
<path id="Vector_41" d="M64.1351 32.7934C64.1187 31.8954 64.0632 31.0038 63.9732 30.1432C63.8817 29.2794 63.7493 28.3927 63.5776 27.5044L52.9873 29.5793C53.1966 30.6795 53.3159 31.8106 53.3355 32.9662L64.1351 32.7934Z" fill="white"/>
<path id="Vector_42" d="M43.1684 15.7953L48.3165 6.56847C46.7634 5.70952 45.1237 4.98096 43.4431 4.40234L39.9609 14.5533C41.0481 14.9282 42.0927 15.396 43.0851 15.9452L43.1684 15.7953Z" fill="white"/>
</g>
</g>
<g id="Group_12">
<path id="Vector_43" d="M8.2966 15.8034C7.27811 17.254 6.37897 18.8024 5.62695 20.4079L15.4113 24.9325C15.8952 23.8959 16.4674 22.9081 17.1164 21.9791L8.2966 15.8034Z" fill="white"/>
<path id="Vector_44" d="M5.62891 46.2922C6.37765 47.8911 7.2768 49.4395 8.30182 50.8966L17.1494 44.6933C16.4988 43.7675 15.925 42.783 15.4394 41.7497L5.62891 46.2922Z" fill="white"/>
<path id="Vector_45" d="M58.5986 50.882C59.6171 49.4314 60.5162 47.883 61.2682 46.2775L51.461 41.7415C50.9738 42.7749 50.4016 43.7594 49.751 44.6868L58.5986 50.882Z" fill="white"/>
<path id="Vector_46" d="M61.2662 20.3932C60.5174 18.7943 59.6183 17.2459 58.5933 15.7888L49.7734 21.9726C50.4225 22.9016 50.9946 23.8893 51.4802 24.9259L61.2662 20.3932Z" fill="white"/>
<path id="Vector_47" d="M35.1547 13.5363L36.1078 2.85068C35.2414 2.77734 34.3602 2.73822 33.4889 2.73822C32.5881 2.73822 31.6759 2.77897 30.7734 2.8572L31.7314 13.5346C32.2971 13.4857 32.8693 13.4597 33.4464 13.4597C34.0218 13.4629 34.5907 13.489 35.1547 13.5363Z" fill="white"/>
<path id="Vector_48" d="M31.7451 53.0888L30.7871 63.8282C31.6895 63.9064 32.5887 63.9456 33.4633 63.9456C34.333 63.9456 35.2273 63.9064 36.1248 63.8298L35.1586 53.0888C34.5946 53.1361 34.024 53.1622 33.4486 53.1622C32.8731 53.1622 32.3058 53.1361 31.7451 53.0888Z" fill="white"/>
</g>
</g>
<g id="Group_13">
<g id="Group_14">
<path id="Vector_49" d="M97.598 32.5146C100.15 33.2628 102.365 35.3572 102.365 38.8354C102.365 42.8775 99.4747 46.4681 92.9453 46.4681H81.6504V20.2807H92.9829C97.7108 20.2807 100.974 23.4622 100.974 27.0904C100.974 30.0079 99.0235 31.8399 97.5963 32.3647L97.598 32.5146ZM91.7813 30.6435C93.506 30.6435 94.6324 29.5955 94.6324 28.0618C94.6324 26.603 93.5453 25.48 91.7437 25.48H87.9526V30.6435H91.7813ZM92.3813 41.2672C94.5572 41.2672 95.7212 40.0333 95.7212 38.2747C95.7212 36.4052 94.4444 35.2806 92.3813 35.2806H87.9526V41.2672H92.3813Z" fill="white"/>
<path id="Vector_50" d="M118.269 46.4666H111.965V36.1429L102.171 20.2791H109.451L113.502 27.3871C114.44 29.0349 115.228 30.4562 115.266 30.492H115.379C115.416 30.4545 116.204 28.9958 117.143 27.3871L121.344 20.2791H128.061L118.269 36.1429V46.4666Z" fill="white"/>
<path id="Vector_51" d="M150.757 40.0693C150.757 33.8594 150.833 30.7919 150.833 30.7544H150.757C150.721 30.7919 149.443 33.1487 148.17 35.3915L145.616 39.9926H142.09L139.538 35.4681C138.225 33.1471 136.986 30.7903 136.95 30.7528H136.837C136.837 30.7903 136.912 33.8577 136.912 40.0676V46.4633H130.608V20.2807H137.287L143.891 31.9899H144.004L150.645 20.2807H157.061V46.4666H150.757V40.0693Z" fill="white"/>
<path id="Vector_52" d="M167.861 42.1278L166.285 46.4666H159.643L169.775 20.2791H176.941L187.111 46.4666H180.356L178.778 42.1278H167.861ZM174.84 31.2043C174.016 29.0333 173.414 27.3887 173.377 27.3496H173.264C173.226 27.3887 172.626 28.9974 171.801 31.1668L169.926 36.4036H176.715L174.84 31.2043Z" fill="white"/>
</g>
</g>
</g>
</svg>
