<svg width="185" height="40" viewBox="0 0 185 40" fill="none" xmlns="http://www.w3.org/2000/svg">
<g id="iovlogo-without" clip-path="url(#clip0_1228_633)">
<g id="Layer_1-2">
<g id="Group">
<path id="Vector" d="M98.4391 38.6701H95.5391V3.11786C95.5391 2.03917 96.4032 1.16736 97.4724 1.16736H98.4391V38.6701Z" fill="white"/>
<path id="Vector_2" d="M126.297 11.9542H127.263C128.332 11.9542 129.197 12.826 129.197 13.9047V38.6701H126.297V32.9368C124.246 37.0743 120.086 39.734 114.975 39.734C107.022 39.734 101.28 33.6757 101.28 25.3417C101.28 17.0078 107.022 10.8903 114.975 10.8903C120.086 10.8903 124.246 13.5501 126.297 17.7466V11.9542ZM126.297 25.3417C126.297 18.5888 121.507 13.6535 115.238 13.6535C108.97 13.6535 104.18 18.5445 104.18 25.3417C104.18 32.1389 108.809 37.0299 115.238 37.0299C121.668 37.0299 126.297 32.0946 126.297 25.3417Z" fill="white"/>
<path id="Vector_3" d="M136.828 1.16736V17.5841C138.878 13.491 142.979 10.8903 148.047 10.8903C156 10.8903 161.741 16.993 161.741 25.3417C161.741 33.6904 155.956 39.734 148.047 39.734C142.935 39.734 138.834 37.0743 136.725 32.9959V38.6849H133.884V3.11786C133.884 2.03917 134.748 1.16736 135.817 1.16736H136.842H136.828ZM147.783 13.7569C141.354 13.7569 136.725 18.648 136.725 25.3417C136.725 32.0355 141.354 36.8674 147.783 36.8674C154.213 36.8674 158.841 32.0355 158.841 25.3417C158.841 18.648 154.213 13.7569 147.783 13.7569Z" fill="white"/>
<path id="Vector_4" d="M163.001 30.0111H165.842C165.842 34.1042 169.416 37.0299 174.367 37.0299C178.892 37.0299 182.159 34.6361 182.159 31.5626C182.159 24.13 163.675 28.9028 163.675 18.8696C163.675 14.3037 167.937 10.9051 173.576 10.9051C179.844 10.9051 184.429 14.6731 184.429 19.8892L181.529 19.8301C181.529 16.2098 178.16 13.6683 173.576 13.6683C169.636 13.6683 166.516 15.8995 166.516 18.8253C166.516 26.051 185 21.5885 185 31.3705C185 36.2024 180.533 39.7636 174.367 39.7636C167.732 39.7636 162.986 35.6705 162.986 30.0406" fill="white"/>
<path id="Vector_5" d="M8.74396 38.6849H0V6.39821C0 3.59068 2.25556 1.31509 5.0384 1.31509H8.74396V38.6849Z" fill="white"/>
<path id="Vector_6" d="M72.6763 32.1832L80.9955 4.93534C81.6546 2.77797 83.6172 1.31509 85.8581 1.31509H91.2041L79.3404 38.6849H66.0268L54.1045 1.31509H59.4944C61.706 1.31509 63.654 2.76319 64.2985 4.89101L72.6763 32.1684V32.1832Z" fill="white"/>
<path id="Vector_7" d="M33.8186 0C21.6473 0 13.3281 8.18618 13.3281 20.0074C13.3281 31.8286 21.6473 40 33.8186 40C45.9898 40 54.3091 31.8581 54.3091 20.0074C54.3091 8.15663 45.9312 0 33.8186 0ZM33.8186 32.4344C26.8908 32.3901 22.0574 27.2922 22.0574 19.9926C22.0574 17.7023 22.5408 15.6188 23.4049 13.8456C23.4049 13.8456 23.4049 13.8456 23.4049 13.8308C23.4049 13.816 23.4342 13.7569 23.4782 13.7126C23.4782 13.6683 23.5074 13.6387 23.5367 13.5944C23.566 13.5205 23.6246 13.4171 23.6979 13.2989C23.7418 13.2397 23.7711 13.1806 23.8004 13.1215C23.859 13.0329 23.9176 12.9442 23.9761 12.8408C24.9428 11.3779 27.1837 8.73291 31.1236 8.06797L31.3287 8.03842C31.3287 8.03842 31.4459 8.03842 31.5044 8.02364C32.7347 7.93498 36.6014 7.8611 38.359 10.7868C38.3737 10.8312 38.3883 10.8607 38.4176 10.8903C38.5055 11.038 38.5787 11.1858 38.6373 11.3336C38.6812 11.4075 38.6959 11.4813 38.7398 11.5552C40.7317 16.1064 38.6226 22.5342 35.8691 25.1939C35.8691 25.1939 44.1444 20.4655 43.8222 13.1068C44.9499 15.0425 45.5797 17.3772 45.5797 19.9926C45.5797 27.2922 40.7464 32.4344 33.8186 32.4344Z" fill="white"/>
<path id="Vector_8" d="M98.4391 38.6701H95.5391V3.11786C95.5391 2.03917 96.4032 1.16736 97.4724 1.16736H98.4391V38.6701Z" fill="white"/>
<path id="Vector_9" d="M126.297 11.9542H127.263C128.332 11.9542 129.197 12.826 129.197 13.9047V38.6701H126.297V32.9368C124.246 37.0743 120.086 39.734 114.975 39.734C107.022 39.734 101.28 33.6757 101.28 25.3417C101.28 17.0078 107.022 10.8903 114.975 10.8903C120.086 10.8903 124.246 13.5501 126.297 17.7466V11.9542ZM126.297 25.3417C126.297 18.5888 121.507 13.6535 115.238 13.6535C108.97 13.6535 104.18 18.5445 104.18 25.3417C104.18 32.1389 108.809 37.0299 115.238 37.0299C121.668 37.0299 126.297 32.0946 126.297 25.3417Z" fill="white"/>
<path id="Vector_10" d="M136.828 1.16736V17.5841C138.878 13.491 142.979 10.8903 148.047 10.8903C156 10.8903 161.741 16.993 161.741 25.3417C161.741 33.6904 155.956 39.734 148.047 39.734C142.935 39.734 138.834 37.0743 136.725 32.9959V38.6849H133.884V3.11786C133.884 2.03917 134.748 1.16736 135.817 1.16736H136.842H136.828ZM147.783 13.7569C141.354 13.7569 136.725 18.648 136.725 25.3417C136.725 32.0355 141.354 36.8674 147.783 36.8674C154.213 36.8674 158.841 32.0355 158.841 25.3417C158.841 18.648 154.213 13.7569 147.783 13.7569Z" fill="white"/>
<path id="Vector_11" d="M163.001 30.0111H165.842C165.842 34.1042 169.416 37.0299 174.367 37.0299C178.892 37.0299 182.159 34.6361 182.159 31.5626C182.159 24.13 163.675 28.9028 163.675 18.8696C163.675 14.3037 167.937 10.9051 173.576 10.9051C179.844 10.9051 184.429 14.6731 184.429 19.8892L181.529 19.8301C181.529 16.2098 178.16 13.6683 173.576 13.6683C169.636 13.6683 166.516 15.8995 166.516 18.8253C166.516 26.051 185 21.5885 185 31.3705C185 36.2024 180.533 39.7636 174.367 39.7636C167.732 39.7636 162.986 35.6705 162.986 30.0406" fill="white"/>
<path id="Vector_12" d="M8.74396 38.6849H0V6.39821C0 3.59068 2.25556 1.31509 5.0384 1.31509H8.74396V38.6849Z" fill="white"/>
<path id="Vector_13" d="M72.6763 32.1832L80.9955 4.93534C81.6546 2.77797 83.6172 1.31509 85.8581 1.31509H91.2041L79.3404 38.6849H66.0268L54.1045 1.31509H59.4944C61.706 1.31509 63.654 2.76319 64.2985 4.89101L72.6763 32.1684V32.1832Z" fill="white"/>
<path id="Vector_14" d="M33.8186 0C21.6473 0 13.3281 8.18618 13.3281 20.0074C13.3281 31.8286 21.6473 40 33.8186 40C45.9898 40 54.3091 31.8581 54.3091 20.0074C54.3091 8.15663 45.9312 0 33.8186 0ZM33.8186 32.4344C26.8908 32.3901 22.0574 27.2922 22.0574 19.9926C22.0574 17.7023 22.5408 15.6188 23.4049 13.8456C23.4049 13.8456 23.4049 13.8456 23.4049 13.8308C23.4049 13.816 23.4342 13.7569 23.4782 13.7126C23.4782 13.6683 23.5074 13.6387 23.5367 13.5944C23.566 13.5205 23.6246 13.4171 23.6979 13.2989C23.7418 13.2397 23.7711 13.1806 23.8004 13.1215C23.859 13.0329 23.9176 12.9442 23.9761 12.8408C24.9428 11.3779 27.1837 8.73291 31.1236 8.06797L31.3287 8.03842C31.3287 8.03842 31.4459 8.03842 31.5044 8.02364C32.7347 7.93498 36.6014 7.8611 38.359 10.7868C38.3737 10.8312 38.3883 10.8607 38.4176 10.8903C38.5055 11.038 38.5787 11.1858 38.6373 11.3336C38.6812 11.4075 38.6959 11.4813 38.7398 11.5552C40.7317 16.1064 38.6226 22.5342 35.8691 25.1939C35.8691 25.1939 44.1444 20.4655 43.8222 13.1068C44.9499 15.0425 45.5797 17.3772 45.5797 19.9926C45.5797 27.2922 40.7464 32.4344 33.8186 32.4344Z" fill="white"/>
</g>
</g>
</g>
<defs>
<clipPath id="clip0_1228_633">
<rect width="185" height="40" fill="white"/>
</clipPath>
</defs>
</svg>
