<svg width="226" height="36" viewBox="0 0 226 36" fill="none" xmlns="http://www.w3.org/2000/svg">
<g id="logo-standard" clip-path="url(#clip0_1228_615)">
<path id="Vector" d="M76.0201 28.5441L76.0716 28.5099C76.123 28.4758 76.1574 28.4417 76.1745 28.3735C76.2089 28.2711 76.226 28.1687 76.226 28.0663V10.8682C76.226 10.7488 76.2089 10.6635 76.1745 10.5782C76.1402 10.5099 76.1059 10.4588 76.0201 10.3905L75.9686 10.3564C75.9343 10.3223 75.8828 10.2881 75.8313 10.2881C75.6769 10.254 75.5911 10.254 75.5396 10.254H73.2573C73.0342 10.254 72.9312 10.2711 72.8969 10.2711C72.8798 10.2711 72.8626 10.2881 72.8626 10.2881C72.8626 10.2881 72.8111 10.3393 72.7596 10.4758C72.691 10.6294 72.6224 10.8341 72.5194 11.073L71.7644 13.4445L71.1638 12.5915C70.9063 12.2332 70.6146 11.8749 70.2714 11.5678C69.9282 11.2607 69.5507 10.9877 69.1388 10.7659C68.727 10.5441 68.2465 10.3564 67.7489 10.237C67.2512 10.1005 66.6849 10.0322 66.1015 10.0322C64.7802 10.0322 63.5275 10.2711 62.3777 10.7659C61.228 11.2436 60.2155 11.9261 59.3575 12.7791C58.4995 13.6322 57.8303 14.6389 57.3326 15.799C56.835 16.9422 56.5947 18.2047 56.5947 19.5526C56.5947 20.4398 56.7148 21.3099 56.9379 22.1118C57.161 22.9308 57.4871 23.6986 57.8989 24.3981C58.3107 25.0976 58.8084 25.746 59.3747 26.3261C59.941 26.9062 60.5931 27.4009 61.2966 27.8104C62.0002 28.2199 62.7552 28.5441 63.5618 28.7659C64.3683 28.9877 65.2263 29.1071 66.1015 29.1071C66.582 29.1071 67.0453 29.0559 67.4915 28.9365C67.9376 28.8171 68.3666 28.6635 68.7613 28.4758C69.156 28.2881 69.5164 28.0663 69.8424 27.8104C70.1685 27.5545 70.4773 27.2986 70.7347 27.0427L71.3525 26.4284L71.7815 27.9299C71.833 28.1005 71.9016 28.237 71.9531 28.3905C71.9874 28.4929 72.0389 28.5611 72.0732 28.6294C72.1076 28.6635 72.1419 28.6976 72.1934 28.7147C72.2277 28.7318 72.3306 28.7659 72.5194 28.7659H75.5568C75.6082 28.7659 75.7112 28.7659 75.8485 28.7317C75.9 28.7147 75.9514 28.6976 75.9858 28.6635L76.0201 28.5441ZM71.0093 21.6C70.7347 22.2483 70.3572 22.8114 69.8767 23.2891C69.3962 23.7668 68.83 24.1422 68.1779 24.4152C67.5258 24.6881 66.8222 24.8246 66.0672 24.8246C65.3293 24.8246 64.6429 24.6881 64.0251 24.3981C63.4245 24.1251 62.8925 23.7327 62.4464 23.255C62.0174 22.7772 61.6742 22.2142 61.4511 21.5659C61.228 20.9346 61.1079 20.2351 61.1079 19.5014C61.1079 18.8019 61.228 18.1024 61.4511 17.4711C61.6742 16.8227 62.0174 16.2426 62.4464 15.7479C62.8754 15.2531 63.4073 14.8436 64.0251 14.5535C64.6429 14.2635 65.3293 14.1099 66.0672 14.1099C66.8222 14.1099 67.5429 14.2635 68.195 14.5365C68.8471 14.8265 69.4134 15.219 69.8939 15.7137C70.3744 16.2085 70.7519 16.7886 71.0265 17.437C71.301 18.0853 71.4383 18.7848 71.4383 19.5014C71.4212 20.2692 71.2839 20.9687 71.0093 21.6ZM96.4064 30.455C96.9041 29.2777 97.1443 27.9128 97.1443 26.4114V10.8682C97.1443 10.7659 97.1272 10.6806 97.0928 10.6123C97.0585 10.5441 97.007 10.4758 96.9556 10.4417C96.8869 10.3905 96.8011 10.3393 96.7153 10.3052C96.6295 10.2711 96.5437 10.254 96.4579 10.254H94.1756C93.9868 10.254 93.901 10.2711 93.8667 10.2881C93.7981 10.3223 93.7637 10.3393 93.7466 10.3564C93.7123 10.4076 93.6608 10.4758 93.6436 10.5611C93.5922 10.6976 93.5407 10.8512 93.472 11.0218L92.7513 13.2739L92.1507 12.5403C91.859 12.182 91.5329 11.8408 91.2069 11.5166C90.8808 11.2095 90.5033 10.9365 90.1086 10.7147C89.7139 10.4929 89.2678 10.3052 88.7873 10.1687C88.3068 10.0322 87.7748 9.98104 87.1914 9.98104C85.8872 9.98104 84.6688 10.2199 83.5534 10.7147C82.438 11.1924 81.477 11.8749 80.6705 12.728C79.864 13.581 79.2119 14.5877 78.7657 15.7308C78.3024 16.8739 78.0793 18.1365 78.0793 19.4673C78.0793 20.7981 78.3024 22.0265 78.7657 23.1355C79.2119 24.2275 79.864 25.2 80.6533 25.9848C81.4599 26.7697 82.438 27.4009 83.5363 27.8445C84.6517 28.2881 85.8701 28.5099 87.1914 28.5099C87.7577 28.5099 88.2553 28.4417 88.6843 28.3052C89.1133 28.1687 89.4909 27.9981 89.8341 27.7763C90.1773 27.5545 90.4861 27.2986 90.7779 27.0256C91.0696 26.7355 91.3785 26.4114 91.6702 26.1043L92.5625 25.1659V26.7014C92.5797 26.7526 92.5797 26.8209 92.5797 26.8891V27.0938C92.5797 27.3668 92.5625 27.6398 92.5454 27.8957C92.5282 28.1687 92.4596 28.4417 92.3909 28.6806C92.2365 29.2095 91.9791 29.6701 91.5844 30.0796C91.224 30.455 90.795 30.7962 90.3145 31.0521C89.8341 31.3081 89.3193 31.5128 88.7873 31.6493C88.2553 31.7858 87.7234 31.854 87.2257 31.854C86.934 31.854 86.6079 31.837 86.2647 31.8199C85.8872 31.7858 85.5097 31.7346 85.1322 31.6322C84.7546 31.5469 84.3771 31.4104 84.0168 31.2569C83.6392 31.0863 83.3132 30.8645 83.0215 30.5915C82.6782 30.3526 82.541 30.3355 82.5066 30.3355C82.4552 30.3355 82.4209 30.3526 82.3865 30.3697C82.335 30.4038 82.2321 30.472 82.112 30.6085L80.6705 32.5877C80.5504 32.7754 80.4817 32.946 80.4817 33.0995C80.4817 33.2019 80.4989 33.3043 80.5675 33.3896C80.6362 33.509 80.722 33.5943 80.8249 33.6796L80.8593 33.7137C81.2711 34.072 81.7688 34.4133 82.3179 34.6863C82.8842 34.9763 83.4676 35.2152 84.0682 35.3858C84.6688 35.5735 85.2866 35.7099 85.8872 35.8123C86.4878 35.8976 87.0713 35.9488 87.5861 35.9488C88.9417 35.9488 90.2287 35.727 91.3956 35.3005C92.5625 34.8739 93.5921 34.2597 94.433 33.4578C95.2224 32.6218 95.9088 31.6322 96.4064 30.455ZM92.8714 19.7573C92.8371 20.4569 92.6655 21.1223 92.3909 21.7365C92.0992 22.3336 91.7217 22.8796 91.2412 23.3232C90.7607 23.7668 90.1944 24.1251 89.5595 24.381C88.9246 24.637 88.2382 24.7564 87.5174 24.7564C86.7795 24.7564 86.0931 24.6199 85.4925 24.3469C84.8748 24.0739 84.36 23.6986 83.9138 23.2208C83.4848 22.7431 83.1416 22.1801 82.9185 21.5317C82.6954 20.9005 82.5753 20.2009 82.5753 19.4673C82.5753 18.7678 82.6954 18.0682 82.9185 17.437C83.1416 16.7886 83.4848 16.2085 83.9138 15.7308C84.3428 15.236 84.8748 14.8436 85.4754 14.5535C86.0931 14.2635 86.7795 14.1099 87.5174 14.1099C88.2382 14.1099 88.9246 14.2464 89.5767 14.5194C90.2116 14.7924 90.7779 15.1678 91.2412 15.6284C91.7045 16.0891 92.0992 16.6351 92.3909 17.2493C92.6827 17.8635 92.8371 18.5118 92.8714 19.2114V19.7573ZM114.974 12.3526C114.974 12.199 114.836 12.0455 114.562 11.8919L114.51 11.8578C114.064 11.5336 113.652 11.2607 113.292 11.0218C112.932 10.8 112.571 10.6123 112.211 10.4588C111.851 10.3223 111.473 10.2028 111.078 10.1346C110.684 10.0663 110.203 10.0152 109.688 10.0152C109.225 10.0152 108.813 10.0834 108.453 10.2199C108.075 10.3564 107.32 10.7659 107.011 11.0047C105.845 11.9261 105.072 13.1545 105.072 13.1545C105.072 13.1545 104.283 11.0389 104.18 10.8341C104.094 10.6635 104.008 10.5099 103.888 10.4076C103.871 10.3905 103.802 10.3223 103.631 10.3223H101.314C101.228 10.3223 101.125 10.3393 101.023 10.3735C100.937 10.4076 100.851 10.4417 100.782 10.4929C100.731 10.5441 100.679 10.5953 100.645 10.6635C100.611 10.7317 100.594 10.8341 100.594 10.9365V28.0152C100.594 28.5099 100.765 28.6806 101.28 28.6806H104.729C105.004 28.6806 105.21 28.6294 105.295 28.5441C105.416 28.4246 105.433 28.1858 105.433 28.0152V16.8227L105.501 16.7033C105.724 16.345 105.948 16.0208 106.171 15.7137C106.411 15.4066 106.668 15.1166 106.943 14.8948C107.235 14.6559 107.561 14.4682 107.921 14.3317C108.281 14.1953 108.693 14.127 109.156 14.127C109.809 14.127 110.409 14.2464 110.924 14.4853C111.404 14.7071 111.885 15.0313 112.348 15.4749C112.503 15.5431 112.64 15.5602 112.76 15.5602C112.915 15.5602 113.12 15.5261 113.361 15.2019L114.751 12.8474C114.957 12.5915 114.974 12.4208 114.974 12.3526ZM131.499 26.2919C132.065 25.7289 132.58 25.0806 132.992 24.381C133.404 23.6815 133.73 22.9137 133.953 22.0948C134.176 21.2758 134.296 20.4227 134.296 19.5355C134.296 18.2047 134.039 16.9422 133.541 15.799C133.043 14.6559 132.357 13.6322 131.499 12.7791C130.641 11.9261 129.629 11.2607 128.462 10.7659C127.312 10.2881 126.059 10.0322 124.738 10.0322C123.846 10.0322 122.988 10.1517 122.164 10.3735C121.34 10.5953 120.568 10.9194 119.864 11.3118C119.161 11.7213 118.509 12.2161 117.942 12.7791C117.359 13.3592 116.861 13.9905 116.45 14.69C116.038 15.3896 115.712 16.1573 115.489 16.9763C115.265 17.7953 115.145 18.6483 115.145 19.5355C115.145 20.4227 115.265 21.2758 115.489 22.0948C115.712 22.9137 116.038 23.6815 116.45 24.381C116.861 25.0806 117.359 25.7289 117.942 26.2919C118.509 26.872 119.161 27.3668 119.864 27.7763C120.568 28.1858 121.34 28.5099 122.164 28.7317C122.988 28.9535 123.846 29.073 124.738 29.073C125.613 29.073 126.471 28.9535 127.278 28.7317C128.084 28.5099 128.856 28.1858 129.56 27.7763C130.281 27.3498 130.933 26.855 131.499 26.2919ZM129.217 21.5659C128.994 22.2142 128.668 22.7772 128.256 23.255C127.844 23.7327 127.312 24.1251 126.711 24.3981C126.111 24.6711 125.424 24.8246 124.686 24.8246C123.931 24.8246 123.228 24.6881 122.627 24.3981C122.009 24.1251 121.495 23.7327 121.066 23.255C120.637 22.7772 120.311 22.2142 120.07 21.5659C119.847 20.9346 119.727 20.2351 119.727 19.5014C119.727 18.8019 119.847 18.1024 120.07 17.4711C120.293 16.8227 120.637 16.2426 121.048 15.7479C121.478 15.2531 122.009 14.8436 122.61 14.5535C123.228 14.2635 123.914 14.1099 124.686 14.1099C125.424 14.1099 126.111 14.2635 126.711 14.5535C127.312 14.8436 127.827 15.2531 128.256 15.7479C128.668 16.2426 128.994 16.8227 129.2 17.4711C129.423 18.1194 129.526 18.7848 129.526 19.5014C129.543 20.2521 129.44 20.9346 129.217 21.5659ZM145.691 14.4853C145.794 14.3829 145.845 14.1953 145.845 13.9052V10.9535C145.845 10.7147 145.794 10.5441 145.691 10.4588C145.622 10.3905 145.502 10.3052 145.244 10.3052H142.619L142.636 5.5962C142.636 5.34028 142.602 5.13554 142.516 4.99905C142.499 4.96492 142.396 4.9308 142.207 4.9308H142.053L138.603 6.12511C138.277 6.24455 138.02 6.38104 137.848 6.50047C137.814 6.51753 137.745 6.58578 137.745 6.80758L137.728 10.3223H135.635C135.137 10.3223 134.965 10.4758 134.965 10.9706V13.9223C134.965 14.5365 135.206 14.6389 135.635 14.6389H137.728L137.745 28.0322C137.745 28.527 137.9 28.6976 138.415 28.6976H141.881C142.156 28.6976 142.344 28.6464 142.482 28.527C142.516 28.4929 142.653 28.3735 142.653 28.0322L142.636 14.6389H145.262C145.502 14.6218 145.622 14.5365 145.691 14.4853ZM164.309 26.2919C164.876 25.7289 165.39 25.0806 165.802 24.381C166.214 23.6815 166.54 22.9137 166.763 22.0948C166.986 21.2758 167.106 20.4227 167.106 19.5355C167.106 18.2047 166.849 16.9422 166.351 15.799C165.854 14.6559 165.167 13.6322 164.309 12.7791C163.451 11.9261 162.439 11.2607 161.272 10.7659C160.122 10.2881 158.87 10.0322 157.548 10.0322C156.656 10.0322 155.798 10.1517 154.974 10.3735C154.151 10.5953 153.378 10.9194 152.675 11.3118C151.971 11.7213 151.319 12.2161 150.753 12.7791C150.169 13.3592 149.672 13.9905 149.26 14.69C148.848 15.3896 148.522 16.1573 148.299 16.9763C148.076 17.7953 147.956 18.6483 147.956 19.5355C147.956 20.4227 148.076 21.2758 148.299 22.0948C148.522 22.9137 148.848 23.6815 149.26 24.381C149.672 25.0806 150.169 25.7289 150.753 26.2919C151.336 26.872 151.971 27.3668 152.675 27.7763C153.378 28.1858 154.151 28.5099 154.974 28.7317C155.798 28.9535 156.656 29.073 157.548 29.073C158.423 29.073 159.281 28.9535 160.088 28.7317C160.895 28.5099 161.667 28.1858 162.37 27.7763C163.091 27.3498 163.726 26.855 164.309 26.2919ZM162.027 21.5659C161.804 22.2142 161.478 22.7772 161.066 23.255C160.654 23.7327 160.122 24.1251 159.522 24.3981C158.921 24.6711 158.235 24.8246 157.497 24.8246C156.742 24.8246 156.038 24.6881 155.438 24.3981C154.82 24.1251 154.305 23.7327 153.876 23.255C153.447 22.7772 153.121 22.2142 152.881 21.5659C152.658 20.9346 152.537 20.2351 152.537 19.5014C152.537 18.8019 152.658 18.1024 152.881 17.4711C153.104 16.8227 153.447 16.2426 153.859 15.7479C154.288 15.2531 154.82 14.8436 155.42 14.5535C156.038 14.2635 156.725 14.1099 157.497 14.1099C158.235 14.1099 158.921 14.2635 159.522 14.5535C160.122 14.8436 160.637 15.2531 161.066 15.7479C161.478 16.2426 161.804 16.8227 162.01 17.4711C162.233 18.1194 162.336 18.8019 162.336 19.5014C162.353 20.2521 162.25 20.9346 162.027 21.5659ZM182.242 28.1175C182.448 28.4076 182.585 28.5441 182.671 28.6294C182.757 28.6976 182.808 28.6976 182.825 28.6976H188.008C188.231 28.6976 188.248 28.5099 188.214 28.4246C188.179 28.3564 188.128 28.2711 188.042 28.1858L179.822 17.6588L186.429 10.7147C186.532 10.5953 186.566 10.5441 186.566 10.527V10.4758C186.566 10.4076 186.549 10.3905 186.549 10.3905C186.549 10.3905 186.48 10.3393 186.24 10.3393H181.521C181.298 10.3393 181.126 10.4246 180.955 10.6123L174.52 17.7099V5.08436C174.52 5.01611 174.503 4.94786 174.485 4.86255C174.468 4.81137 174.451 4.77725 174.417 4.72606C174.382 4.69194 174.348 4.65782 174.279 4.62369C174.245 4.60663 174.177 4.58957 174.039 4.58957H170.367C170.058 4.58957 169.904 4.62369 169.835 4.64075C169.749 4.67488 169.715 4.709 169.715 4.709C169.698 4.72606 169.698 4.74312 169.681 4.81137C169.663 4.94786 169.663 5.08436 169.663 5.25497V28.1858C169.663 28.2028 169.681 28.237 169.698 28.2711C169.715 28.3393 169.766 28.4246 169.818 28.5099C169.852 28.5782 169.921 28.6464 170.007 28.6976C170.041 28.7147 170.075 28.7488 170.178 28.7488H174.039C174.142 28.7488 174.228 28.7317 174.262 28.6976C174.331 28.6464 174.382 28.5953 174.434 28.527C174.485 28.4588 174.503 28.3735 174.52 28.3052C174.537 28.1687 174.554 28.1005 174.554 28.0834V22.9479L176.836 20.5934L182.242 28.1175ZM205.58 19.945C205.597 19.6208 205.597 19.1943 205.597 18.6654C205.597 17.8976 205.494 17.1469 205.271 16.4303C205.048 15.7137 204.739 15.0142 204.344 14.3829C203.949 13.7517 203.469 13.1545 202.92 12.6085C202.371 12.0626 201.753 11.6019 201.101 11.2265C200.432 10.8512 199.728 10.5441 198.973 10.3223C198.218 10.1175 197.446 9.9981 196.639 9.9981C195.764 9.9981 194.923 10.1175 194.134 10.3393C193.344 10.5611 192.607 10.9024 191.92 11.3118C191.251 11.7213 190.633 12.2332 190.084 12.8133C189.535 13.3934 189.072 14.0417 188.677 14.7412C188.299 15.4408 187.99 16.1915 187.785 16.9763C187.579 17.7611 187.476 18.5972 187.476 19.4502C187.476 20.7981 187.733 22.0777 188.265 23.2208C188.78 24.381 189.501 25.3877 190.393 26.2408C191.285 27.0938 192.332 27.7763 193.516 28.254C194.7 28.7318 195.97 28.9877 197.291 28.9877C198.475 28.9877 199.608 28.7659 200.672 28.3393C201.736 27.8957 202.714 27.2815 203.555 26.4967L203.606 26.4626C203.726 26.3772 203.812 26.2919 203.898 26.1725C203.932 26.1384 203.967 26.0701 203.967 25.9507C203.967 25.8825 203.967 25.8313 203.932 25.763C203.932 25.763 203.915 25.7118 203.812 25.5924L202.199 23.7839C202.062 23.6474 201.925 23.528 201.822 23.4597C201.77 23.4256 201.736 23.4085 201.701 23.4085C201.65 23.4085 201.616 23.4256 201.581 23.4426C201.513 23.4768 201.41 23.545 201.255 23.6815C201.049 23.8863 200.758 24.091 200.432 24.2787C200.106 24.4663 199.745 24.6199 199.351 24.7564C198.973 24.8929 198.561 24.9953 198.149 25.0806C197.737 25.1659 197.308 25.2 196.914 25.2C196.468 25.2 195.987 25.1317 195.489 25.0123C194.975 24.8929 194.477 24.6711 194.031 24.381C193.568 24.091 193.156 23.6815 192.812 23.2038C192.452 22.709 192.212 22.0777 192.109 21.3611L192.023 20.764H203.675C204.276 20.764 204.739 20.7299 205.031 20.6616C205.168 20.6275 205.357 20.5592 205.442 20.4569C205.528 20.3545 205.58 20.1839 205.58 19.945ZM191.989 17.4711L192.332 16.7374C192.504 16.3621 192.744 15.9867 193.036 15.6114C193.327 15.2531 193.636 14.9118 193.997 14.6218C194.357 14.3317 194.752 14.0929 195.163 13.9223C195.592 13.7346 196.056 13.6493 196.519 13.6493C197.12 13.6493 197.669 13.7346 198.132 13.8881C198.595 14.0417 199.025 14.2806 199.385 14.5706C199.745 14.8436 200.054 15.1848 200.346 15.5602C200.603 15.9185 200.861 16.3109 201.084 16.7204L201.496 17.4711H191.989ZM221.195 28.6123C221.195 28.6123 221.316 28.6976 221.745 28.6976H225.297C225.434 28.6976 225.623 28.6806 225.709 28.5782C225.794 28.4758 225.846 28.2881 225.846 28.0322V18.0341C225.846 16.9251 225.691 15.8673 225.365 14.8948C225.057 13.9223 224.593 13.0692 223.993 12.3526C223.409 11.636 222.671 11.073 221.83 10.6635C220.99 10.254 220.011 10.0493 218.93 10.0493C218.158 10.0493 217.455 10.1346 216.837 10.3052C216.219 10.4758 215.653 10.6635 215.189 10.9365C213.336 12.0796 212.753 13.8881 212.753 13.8881L212.101 11.1754C212.049 11.0389 211.998 10.9024 211.963 10.7829C211.929 10.6976 211.878 10.6123 211.826 10.5441C211.775 10.4929 211.723 10.4417 211.654 10.4076C211.603 10.3735 211.517 10.3564 211.414 10.3564H209.098C208.995 10.3564 208.892 10.3735 208.771 10.3905C208.72 10.4076 208.651 10.4246 208.6 10.4758L208.617 10.4929C208.548 10.5441 208.497 10.5953 208.445 10.6806C208.394 10.7659 208.377 10.8682 208.377 10.9706V28.0493C208.377 28.2711 208.428 28.4417 208.531 28.5611C208.617 28.6635 208.823 28.7147 209.098 28.7147H212.564C212.667 28.7147 212.77 28.6976 212.838 28.6806C212.907 28.6635 212.976 28.6294 213.062 28.5782C213.079 28.5611 213.13 28.527 213.165 28.4246C213.216 28.3052 213.233 28.2028 213.233 28.0834V18.1194C213.267 17.5905 213.422 17.0787 213.679 16.6351C213.92 16.1915 214.228 15.8161 214.589 15.4749C214.949 15.1507 215.361 14.8948 215.79 14.7071C216.751 14.2976 217.695 14.3488 218.587 14.7242C219.05 14.9118 219.479 15.1848 219.857 15.5261C220.235 15.8673 220.526 16.2597 220.766 16.7033C221.007 17.164 221.127 17.6588 221.127 18.1706V28.1175C221.127 28.5099 221.195 28.6123 221.195 28.6123Z" fill="white"/>
<path id="Vector_2" d="M14.5004 29.7384C15.1525 29.0559 15.7359 28.2029 16.2164 27.2303L19.6656 18.8702L14.8436 7.20001H14.3288C13.5051 7.20001 12.7844 7.35357 12.1838 7.64361C11.5488 7.95072 10.9825 8.32608 10.502 8.78674C10.0216 9.24741 9.59256 9.77631 9.24935 10.3393C8.88899 10.9194 8.61443 11.4825 8.39134 11.9943C8.03098 12.8645 7.63629 13.8199 7.17297 14.9289C6.74396 15.9697 6.28064 17.0957 5.78299 18.273C5.28535 19.4673 4.7877 20.6446 4.30721 21.7536C3.80957 22.9138 3.32908 24.0398 2.88292 25.0976C1.9391 27.3327 0.978132 29.6019 0 31.8711H8.99195C10.2618 31.8711 11.3429 31.6834 12.2181 31.3081C13.0932 30.9498 13.8483 30.4209 14.5004 29.7384Z" fill="white"/>
<path id="Vector_3" d="M35.196 18.5119C35.3161 18.3242 35.3332 18.1194 35.2989 17.9318C35.2474 17.7441 35.1445 17.5564 34.9557 17.454C34.5954 17.2322 34.1149 17.3346 33.8746 17.6929C33.6515 18.0512 33.7545 18.5289 34.1149 18.7678C34.4924 18.9896 34.9729 18.8702 35.196 18.5119ZM31.6438 12.2502C31.7639 12.0626 31.7811 11.8578 31.7468 11.6702C31.6953 11.4825 31.5923 11.2948 31.4036 11.1924C31.0432 10.9706 30.5627 11.073 30.3225 11.4313C30.0994 11.7896 30.2023 12.2673 30.5627 12.5062C30.9231 12.728 31.4036 12.6256 31.6438 12.2502Z" fill="white"/>
<path id="Vector_4" d="M30.0993 20.3716L26.1868 18.8531C25.998 19.0919 25.775 19.2796 25.5004 19.382C25.0886 19.5526 24.6252 19.5867 24.1791 19.4161C23.2867 19.0749 22.8406 18.0682 23.1838 17.181C23.527 16.2938 24.5394 15.8502 25.4318 16.2085C26.1696 16.4986 26.5986 17.2322 26.53 17.9659L29.6017 19.1602L26.959 12.6427L24.3678 11.3972C23.8702 11.9602 23.0293 12.1479 22.3258 11.8066C21.4677 11.3972 21.1074 10.3564 21.5192 9.50332C21.9311 8.65024 22.9778 8.29194 23.8359 8.70142C24.2649 8.90616 24.5737 9.26445 24.711 9.691C24.814 9.96398 24.8311 10.254 24.7797 10.5441L26.427 11.346L24.6081 6.87583C24.3163 6.90995 24.0246 6.85877 23.7501 6.73934C23.3382 6.56872 22.995 6.22749 22.8234 5.80095C22.463 4.91374 22.9092 3.90711 23.8015 3.56588C24.6939 3.20758 25.7063 3.65119 26.0495 4.53839C26.3412 5.27204 26.0838 6.07393 25.5004 6.5346L28.7265 14.4853L29.6703 13.0009C29.4644 12.7791 29.3443 12.5232 29.2756 12.2332C29.1727 11.8066 29.2413 11.3289 29.4987 10.9365C30.0135 10.1346 31.0775 9.89573 31.884 10.3905C32.6905 10.9024 32.9308 11.9602 32.4331 12.7621C32.0213 13.4275 31.2147 13.7005 30.4769 13.4957L29.1727 15.5602L31.6781 21.7365L33.2568 19.2626C33.0509 19.0408 32.9308 18.7848 32.8621 18.4948C32.7592 18.0682 32.8278 17.5905 33.0852 17.1981C33.6 16.3962 34.6639 16.1573 35.4705 16.6521C36.277 17.164 36.5173 18.2218 36.0196 19.0237C35.6078 19.6891 34.8012 19.9621 34.0633 19.7573L32.1242 22.8114L34.4923 28.6635H43.6387C42.4032 25.763 41.202 22.9308 40.0179 20.1498C39.5203 18.9725 39.0055 17.7441 38.4564 16.4645C37.9072 15.1848 37.3581 13.9052 36.8261 12.6427C36.2942 11.3801 35.7794 10.1517 35.2989 8.97441C34.8184 7.79716 34.3722 6.72227 33.9604 5.7327C33.7201 5.13554 33.3769 4.4872 32.9651 3.80474C32.5532 3.12227 32.0556 2.50806 31.455 1.94502C30.8715 1.38199 30.1851 0.921327 29.3958 0.545972C28.6064 0.170616 27.7141 0 26.7016 0H10.5195V0.324171C10.9829 0.324171 11.4633 0.511848 11.961 0.870142C12.4586 1.2455 12.9391 1.6891 13.4024 2.23507C13.8658 2.78104 14.2948 3.3782 14.7066 4.00948C15.1013 4.65782 15.4617 5.23792 15.7534 5.74976L22.9264 23.0844C23.5098 24.2446 24.1791 25.2341 24.9684 26.0531C25.7578 26.872 26.6673 27.5033 27.7312 27.964C28.7952 28.4076 30.065 28.6464 31.5751 28.6464H33.4627L30.0993 20.3716Z" fill="white"/>
<path id="Vector_5" d="M23.4408 9.55449C23.0461 9.36682 22.5828 9.53743 22.3941 9.91279C22.3083 10.1005 22.2911 10.3223 22.3597 10.5099C22.4284 10.6976 22.5657 10.8682 22.7544 10.9535C23.1491 11.1412 23.6124 10.9706 23.8012 10.5953C23.99 10.2199 23.8184 9.74217 23.4408 9.55449ZM25.1054 17.0957C24.8994 17.0104 24.6935 17.0275 24.5048 17.1128C24.316 17.1981 24.1616 17.3346 24.0929 17.5393C23.9385 17.9317 24.1444 18.3924 24.5391 18.546C24.9338 18.6995 25.3971 18.4948 25.5515 18.1024C25.706 17.7099 25.5001 17.2663 25.1054 17.0957ZM24.7793 4.45307C24.5906 4.36776 24.3846 4.36776 24.1787 4.43601C23.784 4.58956 23.5781 5.05023 23.7326 5.44265C23.887 5.83506 24.3503 6.0398 24.745 5.88625C25.1397 5.73269 25.3456 5.27203 25.1912 4.87961C25.1054 4.67487 24.9509 4.52132 24.7793 4.45307Z" fill="white"/>
</g>
<defs>
<clipPath id="clip0_1228_615">
<rect width="226" height="36" fill="white"/>
</clipPath>
</defs>
</svg>
