<svg width="202" height="59" viewBox="0 0 202 59" fill="none" xmlns="http://www.w3.org/2000/svg">
<g id="MercadoLibre_Logotipo 3">
<path id="Subtract" fill-rule="evenodd" clip-rule="evenodd" d="M40.3953 5.0723C59.8967 5.0723 75.7051 15.4491 75.7051 28.1583H75.6881V29.5056C75.6881 42.9961 62.0037 53.9277 40.384 53.9277C18.8945 53.9277 5.07422 42.9961 5.07422 29.5056V28.1583C5.07422 15.4491 20.877 5.08362 40.3953 5.0723ZM40.3955 49.8687C59.1436 49.8687 74.3402 40.1429 74.3402 28.1583C74.3402 16.1568 59.1322 6.44795 40.3842 6.44795C21.6361 6.44795 6.43945 16.1737 6.43945 28.1583C6.43945 40.1429 21.6475 49.8687 40.3955 49.8687Z" fill="white"/>
<path id="path413" d="M196.011 13.4621C194.736 11.8656 192.805 11.0731 190.211 11.0731C187.616 11.0731 185.685 11.8656 184.411 13.4621C183.136 15.0585 182.496 16.938 182.496 19.1119C182.496 21.331 183.136 23.2162 184.411 24.7956C185.685 26.3581 187.616 27.1563 190.211 27.1563C192.805 27.1563 194.736 26.3751 196.011 24.7956C197.285 23.2162 197.925 21.331 197.925 19.1119C197.925 16.938 197.285 15.0585 196.011 13.4621ZM192.85 22.6048C192.227 23.4313 191.343 23.8389 190.199 23.8389C189.038 23.8389 188.154 23.4313 187.526 22.6048C186.903 21.7839 186.603 20.6234 186.603 19.1119C186.603 17.606 186.903 16.4342 187.526 15.6246C188.154 14.8094 189.038 14.4018 190.199 14.4018C191.355 14.4018 192.238 14.8094 192.85 15.6246C193.473 16.4342 193.779 17.606 193.779 19.1119C193.779 20.6234 193.473 21.7952 192.85 22.6048Z" fill="white"/>
<path id="path415" d="M163.442 12.1147C162.151 11.4637 160.673 11.1297 159.007 11.1297C156.453 11.1297 154.64 11.7977 153.587 13.1281C152.919 13.9829 152.556 15.0698 152.465 16.3889H156.294C156.385 15.8114 156.572 15.3472 156.861 14.9962C157.252 14.5377 157.92 14.3056 158.877 14.3056C159.715 14.3056 160.372 14.4188 160.803 14.6679C161.239 14.9 161.46 15.3302 161.46 15.953C161.46 16.4625 161.165 16.8418 160.605 17.0852C160.282 17.2324 159.761 17.3456 159.024 17.4362L157.671 17.606C156.136 17.7985 154.963 18.1268 154.176 18.5797C152.726 19.4176 152.001 20.7536 152.001 22.6218C152.001 24.054 152.454 25.1749 153.355 25.9392C154.25 26.7204 155.399 27.0544 156.776 27.1167C165.413 27.5073 165.329 22.5651 165.402 21.5348V15.8511C165.385 14.0282 164.734 12.7827 163.442 12.1147ZM161.426 20.7536C161.398 22.0726 161.024 22.9841 160.299 23.4936C159.574 23.9974 158.775 24.2465 157.903 24.2465C157.353 24.2465 156.889 24.0993 156.515 23.7936C156.136 23.4936 155.949 23.001 155.949 22.333C155.949 21.5801 156.255 21.014 156.878 20.6517C157.252 20.4309 157.846 20.2611 158.702 20.1139L159.602 19.9384C160.05 19.8535 160.401 19.7686 160.661 19.6667C160.922 19.5648 161.165 19.4459 161.426 19.2874V20.7536Z" fill="white"/>
<path id="path417" d="M143.726 14.5207C144.711 14.5207 145.436 14.8264 145.912 15.4321C146.235 15.885 146.433 16.3889 146.507 16.955H150.772C150.54 14.8094 149.786 13.3036 148.512 12.4487C147.232 11.6052 145.595 11.175 143.607 11.175C141.262 11.175 139.415 11.8996 138.084 13.3319C136.748 14.7641 136.085 16.7795 136.085 19.3779C136.085 21.665 136.691 23.5332 137.897 24.9824C139.098 26.4204 140.984 27.145 143.55 27.145C146.116 27.145 148.047 26.2732 149.35 24.5465C150.16 23.4766 150.625 22.3444 150.727 21.1442H146.479C146.394 21.9424 146.144 22.5765 145.742 23.086C145.334 23.5785 144.638 23.8389 143.663 23.8389C142.287 23.8389 141.347 23.2162 140.854 21.9537C140.577 21.2857 140.446 20.3913 140.446 19.2874C140.446 18.1268 140.594 17.2041 140.854 16.4908C141.358 15.1887 142.315 14.5207 143.726 14.5207Z" fill="white"/>
<path id="path419" d="M134.935 11.1863C126.178 11.1863 126.699 18.942 126.699 18.942V26.811H130.675V19.4176C130.675 18.2174 130.834 17.3173 131.123 16.7229C131.672 15.6926 132.731 15.1717 134.329 15.1717C134.442 15.1717 134.601 15.1717 134.805 15.1887C134.997 15.2 135.212 15.217 135.473 15.2453V11.2146C135.297 11.2033 135.184 11.2033 135.139 11.1863C135.082 11.1863 135.008 11.1863 134.935 11.1863Z" fill="white"/>
<path id="path421" d="M120.333 22.6953C120.163 22.9275 119.988 23.1313 119.784 23.2898C119.218 23.754 118.464 23.8955 117.564 23.8955C116.708 23.8955 116.057 23.7653 115.451 23.3917C114.465 22.7803 113.899 21.7499 113.842 20.2328H124.848C124.859 18.925 124.814 17.9287 124.717 17.2324C124.525 16.0435 124.134 15.0132 123.511 14.1131C122.831 13.0998 121.959 12.3468 120.9 11.8826C119.841 11.4184 118.668 11.175 117.348 11.175C115.128 11.175 113.333 11.8656 111.956 13.2583C110.563 14.6509 109.866 16.6663 109.866 19.276C109.866 22.0726 110.637 24.088 112.171 25.3164C113.712 26.5506 115.479 27.1733 117.496 27.1733C119.931 27.1733 121.829 26.4317 123.177 24.9711C123.902 24.2012 124.366 23.4313 124.553 22.6784H120.333V22.6953ZM114.998 15.3019C115.564 14.7245 116.346 14.4471 117.365 14.4471C118.289 14.4471 119.076 14.7245 119.71 15.2623C120.333 15.7945 120.696 16.5927 120.758 17.6343H113.956C114.086 16.6493 114.437 15.868 114.998 15.3019Z" fill="white"/>
<path id="path423" d="M108.274 26.811H104.649V17.6626C104.649 16.8248 104.372 14.8377 101.976 14.8377C100.384 14.8377 99.2232 15.9869 99.2232 17.6626V26.811H95.5869V17.6626C95.5869 16.8248 95.3377 14.8377 92.9475 14.8377C91.3219 14.8377 90.1891 15.9869 90.1891 17.6626V26.811H86.5527V17.7532C86.5527 13.9829 89.0619 11.1297 92.9305 11.1297C94.8619 11.1297 96.4252 11.9392 97.4391 13.23C98.5152 11.9392 100.107 11.1297 101.948 11.1297C105.907 11.1297 108.257 13.8697 108.257 17.7532V26.811H108.274Z" fill="white"/>
<path id="path425" d="M181.306 6.41966C181.306 6.41966 177.308 6.00074 177.308 9.19927V13.4621C176.854 12.7544 176.288 12.1997 175.58 11.7977C174.872 11.3901 174.056 11.1863 173.145 11.1863C171.156 11.1863 169.576 11.9279 168.387 13.4055C167.197 14.883 166.603 17.0116 166.603 19.5931C166.603 21.8235 167.214 23.6634 168.415 25.0843C169.621 26.5053 171.983 27.128 174.085 27.128C181.408 27.128 181.323 20.8555 181.323 20.8555L181.306 6.41966ZM176.537 22.6501C175.96 23.4766 175.104 23.8955 173.983 23.8955C172.867 23.8955 172.029 23.4766 171.491 22.6387C170.941 21.7952 170.664 20.5781 170.664 19.1855C170.664 17.8947 170.941 16.8078 171.479 15.9416C172.012 15.0698 172.867 14.6339 174.017 14.6339C174.77 14.6339 175.433 14.883 176.016 15.3586C176.945 16.1568 177.41 17.5777 177.41 19.4176C177.421 20.7366 177.115 21.8122 176.537 22.6501Z" fill="white"/>
<path id="path427" d="M135.751 45.7927C135.592 46.0248 135.4 46.2286 135.213 46.3871C134.646 46.8513 133.865 47.0098 132.981 47.0098C132.137 47.0098 131.486 46.8796 130.88 46.506C129.888 45.8946 129.367 44.8529 129.311 43.3471H140.214C140.231 42.0563 140.186 41.0713 140.084 40.375C139.897 39.2031 139.506 38.1728 138.894 37.2727C138.215 36.2594 137.342 35.5347 136.317 35.0535C135.269 34.595 134.097 34.3629 132.788 34.3629C130.602 34.3629 128.818 35.0535 127.442 36.4349C126.065 37.8218 125.38 39.8089 125.38 42.3903C125.38 45.1586 126.133 47.157 127.674 48.3741C129.197 49.6083 130.948 50.214 132.953 50.214C135.36 50.214 137.24 49.4894 138.577 48.0288C139.302 47.2589 139.75 46.506 139.942 45.753H135.751V45.7927ZM130.455 38.4615C131.01 37.8954 131.792 37.6067 132.788 37.6067C133.717 37.6067 134.488 37.8841 135.111 38.4162C135.734 38.954 136.085 39.7353 136.153 40.7826H129.413C129.56 39.8089 129.905 39.039 130.455 38.4615Z" fill="white"/>
<path id="path429" d="M108.433 34.4195C107.516 34.4195 106.706 34.6233 105.998 35.0139C105.284 35.4158 104.706 35.9706 104.27 36.6783V29.5339C104.27 29.5339 100.266 29.1433 100.266 32.3871V43.9698C100.266 43.9698 100.181 50.2423 107.504 50.2423C109.606 50.2423 111.968 49.6196 113.174 48.1873C114.375 46.7664 114.987 44.9265 114.987 42.696C114.987 40.1146 114.392 38.0992 113.202 36.6217C111.996 35.1554 110.416 34.4195 108.433 34.4195ZM110.07 45.7643C109.521 46.6078 108.694 47.0098 107.578 47.0098C106.462 47.0098 105.601 46.6078 105.023 45.7643C104.446 44.9378 104.151 43.8679 104.151 42.5318C104.151 40.692 104.616 39.373 105.545 38.5804C106.128 38.0992 106.779 37.8558 107.55 37.8558C108.705 37.8558 109.549 38.286 110.087 39.1578C110.62 40.0296 110.897 41.1166 110.897 42.4016C110.897 43.8113 110.62 44.9265 110.07 45.7643Z" fill="white"/>
<path id="path431" d="M124.615 34.4025C124.553 34.4025 124.496 34.4025 124.422 34.4025C115.666 34.4025 116.175 42.1582 116.175 42.1582V49.9083H120.146V42.6507C120.146 41.4336 120.293 40.5505 120.61 39.9674C121.149 38.9427 122.219 38.4162 123.816 38.4162C123.93 38.4162 124.088 38.4162 124.281 38.4332C124.468 38.4502 124.7 38.4615 124.949 38.4898V34.4478C124.785 34.4025 124.672 34.4025 124.615 34.4025Z" fill="white"/>
<path id="path433" d="M86.5527 32.3872V49.88H90.2797V29.534C90.291 29.534 86.5527 29.3755 86.5527 32.3872Z" fill="white"/>
<path id="path435" d="M93.3379 29.5056H97.3254V33.4628H93.3379V29.5056Z" fill="white"/>
<path id="path437" d="M93.3379 34.8101H97.3367V49.897H93.3379V34.8101Z" fill="white"/>
<path id="path411" d="M59.2752 30.0872C55.9277 27.1604 48.185 20.4351 46.0836 18.8726C44.8771 17.9725 44.0672 17.4969 43.3535 17.2762C43.0363 17.1743 42.5889 17.0724 42.0055 17.0724C41.473 17.0724 40.9066 17.1742 40.2949 17.3667C38.9469 17.797 37.5875 18.8726 36.2791 19.9029L36.2055 19.9595C34.9877 20.9276 33.7303 21.9296 32.7844 22.1334C32.3652 22.2183 31.9461 22.2749 31.5213 22.2749C30.4678 22.2749 29.4936 21.9749 29.148 21.5107C29.0857 21.4371 29.131 21.3069 29.2613 21.1314L29.2783 21.1031L32.218 17.9272C34.5232 15.6231 36.6982 13.4492 41.7336 13.336C41.8186 13.336 41.9035 13.336 41.9772 13.336C45.098 13.336 48.2303 14.74 48.5758 14.8985C51.5041 16.3364 54.523 17.061 57.5647 17.061C60.7252 17.061 64.0047 16.2798 67.4428 14.7004C67.0633 14.3777 66.6555 14.0606 66.2533 13.7549C63.2344 15.0627 60.3627 15.725 57.5816 15.725C54.7553 15.725 51.9119 15.0457 49.1705 13.6983C49.0232 13.6247 45.5738 12 41.9941 12C41.9035 12 41.8016 12 41.7053 12C37.4855 12.1019 35.118 13.5964 33.5094 14.8985C31.9574 14.9438 30.6264 15.3061 29.4199 15.6401C28.3607 15.9288 27.4375 16.1892 26.5482 16.1892C26.1857 16.1892 25.523 16.1609 25.4607 16.1609C24.4355 16.1326 19.2416 14.8589 15.1125 13.2907C14.6877 13.5964 14.2855 13.9021 13.8891 14.2078C18.1994 15.9741 23.45 17.3328 25.1152 17.4516C25.5797 17.48 26.0725 17.5366 26.5652 17.5366C27.6641 17.5366 28.7516 17.2365 29.8107 16.9308C30.4338 16.7553 31.1305 16.5685 31.8555 16.4213C31.6685 16.6081 31.4646 16.8006 31.2777 17.0044L28.2928 20.2312C28.0605 20.4634 27.5338 21.1031 27.885 21.8843C28.0152 22.207 28.2928 22.507 28.6666 22.7561C29.3803 23.2316 30.6547 23.5656 31.8441 23.5656C32.2916 23.5656 32.7107 23.526 33.1016 23.4354C34.3646 23.1637 35.673 22.1051 37.0607 21.0012C38.1766 20.118 39.7625 19.0028 40.9633 18.6688C41.2975 18.5839 41.7166 18.5216 42.0508 18.5216C42.1527 18.5216 42.2377 18.5216 42.3283 18.5386C43.1213 18.6405 43.8916 18.9179 45.268 19.9425C47.7205 21.7824 58.6125 31.2931 58.7088 31.395C58.7088 31.395 59.4055 32.0007 59.3658 32.9857C59.3375 33.5405 59.0316 34.033 58.4935 34.3784C58.0291 34.6671 57.5533 34.8256 57.0719 34.8256C56.3469 34.8256 55.8428 34.4803 55.8088 34.4633C55.7691 34.435 52.0422 31.0157 50.6771 29.8721C50.4619 29.6966 50.241 29.5211 50.0428 29.5211C49.9238 29.5211 49.8219 29.5664 49.7482 29.6513C49.533 29.9174 49.7766 30.291 50.0541 30.5231L54.4041 34.8992C54.4041 34.8992 54.9422 35.4087 54.9988 36.0767C55.0271 36.8013 54.6816 37.4071 53.968 37.8713C53.4639 38.2053 52.9428 38.3808 52.433 38.3808C51.7646 38.3808 51.3002 38.0751 51.1869 38.0015L50.5639 37.3957C49.4141 36.2748 48.2416 35.103 47.3863 34.3953C47.1824 34.2199 46.9502 34.0613 46.735 34.0613C46.633 34.0613 46.531 34.101 46.4574 34.1746C46.3555 34.2935 46.2875 34.4803 46.531 34.8143C46.633 34.9445 46.7463 35.0577 46.7463 35.0577L49.9238 38.6242C49.9521 38.6525 50.5752 39.4054 49.9975 40.147L49.8785 40.2942C49.7766 40.3905 49.6803 40.4924 49.5896 40.5829C49.0516 41.0302 48.3266 41.0755 48.0377 41.0755C47.8791 41.0755 47.7375 41.0585 47.6016 41.0302C47.2844 40.9736 47.0805 40.883 46.9785 40.7698L46.9389 40.7245C46.7633 40.5546 45.166 38.9129 43.835 37.8147C43.6594 37.6675 43.4441 37.4807 43.2119 37.4807C43.093 37.4807 43.008 37.5259 42.923 37.6109C42.6625 37.8996 43.0533 38.3185 43.2232 38.4827L45.9363 41.4661C45.9363 41.4944 45.891 41.551 45.8344 41.6529C45.7324 41.7831 45.4152 42.1171 44.4297 42.236C44.3107 42.2473 44.1805 42.2643 44.0672 42.2643C43.0533 42.2643 41.9772 41.7718 41.4107 41.4774C41.66 40.9452 41.8016 40.3508 41.8016 39.7677C41.8016 37.5373 39.9891 35.7257 37.7574 35.7257C37.7178 35.7257 37.6555 35.7257 37.6158 35.7257C37.6838 34.7124 37.5422 32.7819 35.5711 31.9271C35.0047 31.6837 34.4383 31.5535 33.8719 31.5535C33.4357 31.5535 33.0336 31.6271 32.6428 31.7686C32.235 30.9704 31.5553 30.3929 30.666 30.0872C30.1732 29.9174 29.6975 29.8268 29.216 29.8268C28.3891 29.8268 27.6357 30.0759 26.9561 30.5514C26.3047 29.7419 25.3305 29.2607 24.3053 29.2607C23.4047 29.2607 22.5324 29.623 21.898 30.2627C21.0541 29.623 17.7066 27.4945 8.75742 25.4678C8.32129 25.3659 7.32441 25.0885 6.71269 24.9017C6.61074 25.3772 6.54277 25.8697 6.48047 26.3622C6.48047 26.3622 8.13438 26.7528 8.45156 26.8264C17.6047 28.8588 20.618 30.9704 21.1277 31.3666C20.9521 31.7856 20.8672 32.2328 20.8672 32.6857C20.8672 34.5652 22.4021 36.105 24.2883 36.105C24.5035 36.105 24.7074 36.088 24.9113 36.0427C25.2002 37.4354 26.1008 38.494 27.4941 39.0318C27.8963 39.1903 28.3041 39.2639 28.7119 39.2639C28.9725 39.2639 29.233 39.2356 29.4936 39.162C29.7541 39.813 30.3375 40.6226 31.6232 41.149C32.0764 41.3359 32.5238 41.4208 32.9713 41.4208C33.3338 41.4208 33.685 41.3642 34.0191 41.234C34.6422 42.7398 36.1035 43.7418 37.7574 43.7418C38.8449 43.7418 39.8928 43.3059 40.6574 42.5077C41.3088 42.87 42.6908 43.5211 44.0785 43.5211C44.2541 43.5211 44.4297 43.5098 44.6053 43.4928C45.9816 43.3229 46.633 42.7851 46.9219 42.3662C46.9785 42.2926 47.0238 42.219 47.0691 42.1341C47.3863 42.219 47.7488 42.3039 48.168 42.3039C48.9213 42.3039 49.6463 42.0435 50.3883 41.5114C51.1133 40.9849 51.623 40.2489 51.691 39.6092C51.691 39.5979 51.691 39.5979 51.691 39.5809C51.9402 39.6262 52.1838 39.6545 52.433 39.6545C53.2146 39.6545 53.968 39.4054 54.71 38.9299C56.1146 38.0015 56.3639 36.8013 56.3355 36.0144C56.5791 36.0767 56.8283 36.088 57.0889 36.088C57.8139 36.088 58.5389 35.8729 59.2186 35.437C60.0908 34.8879 60.6119 34.033 60.6969 33.031C60.7535 32.3517 60.5836 31.6667 60.2324 31.0893C62.6 30.0759 67.9922 28.1059 74.3416 26.6679C74.2963 26.1754 74.2283 25.6829 74.1377 25.2074C66.4402 26.9736 60.7139 29.4532 59.2752 30.0872ZM37.7857 42.5077C36.2961 42.5077 35.0783 41.3472 35.033 39.8696C35.033 39.7394 35.016 39.4054 34.7271 39.4054C34.6139 39.4054 34.5119 39.479 34.393 39.5809C34.0588 39.8866 33.6566 40.1923 33.0336 40.1923C32.7561 40.1923 32.4502 40.13 32.133 39.9998C30.5527 39.3658 30.5357 38.2789 30.598 37.843C30.6094 37.7241 30.6264 37.6109 30.5357 37.509L30.4508 37.4354H30.3488C30.2639 37.4354 30.1902 37.4637 30.0713 37.5542C29.6238 37.8713 29.1764 38.0298 28.7402 38.0298C28.491 38.0298 28.2475 37.9845 27.9869 37.8882C25.9139 37.073 26.0725 35.12 26.1744 34.5369C26.1857 34.4236 26.1574 34.3217 26.0838 34.2651L25.9422 34.1463L25.8119 34.2481C25.4041 34.6388 24.883 34.8596 24.3166 34.8596C23.1271 34.8596 22.1586 33.8858 22.1586 32.697C22.1586 31.5082 23.1271 30.5401 24.3166 30.5514C25.3928 30.5514 26.3047 31.3666 26.4463 32.4366L26.5199 33.014L26.8428 32.5215C26.8711 32.4649 27.7547 31.1459 29.3463 31.1459C29.6521 31.1459 29.975 31.1912 30.2922 31.2931C31.5666 31.6837 31.7875 32.8442 31.8158 33.3197C31.8441 33.5971 32.031 33.6084 32.0764 33.6084C32.1897 33.6084 32.2633 33.5405 32.3199 33.4782C32.5691 33.2348 33.0902 32.8159 33.9002 32.8159C34.2797 32.8159 34.6705 32.9008 35.0896 33.0763C37.123 33.9425 36.1941 36.5239 36.1941 36.5522C36.0186 36.9711 36.0016 37.1636 36.1771 37.2768L36.2508 37.3221H36.3074C36.398 37.3221 36.5113 37.2768 36.6982 37.2202C36.9758 37.1183 37.3949 36.9881 37.7857 36.9881C39.3094 36.9994 40.5555 38.2506 40.5555 39.7564C40.5555 41.2793 39.3094 42.5077 37.7857 42.5077Z" fill="white"/>
</g>
</svg>
