<svg width="187" height="187" viewBox="0 0 187 187" fill="none" xmlns="http://www.w3.org/2000/svg">
<g filter="url(#filter0_d_172_308)">
<path d="M94.8123 121.939H95.8123V120.939V97.2597H117.968H118.968V96.2597V80.6446V79.6446H117.968H95.8123V55.8889V54.8889H94.8123H78.207H77.207V55.8889V79.6446H54.9747H53.9747V80.6446V96.2597V97.2597H54.9747H77.207V120.939V121.939H78.207H94.8123ZM8.06152 99.7196C1.31283 92.9709 1.31283 82.0291 8.06152 75.2804L75.2804 8.06152C82.0291 1.31283 92.9709 1.31283 99.7196 8.06152L166.938 75.2804C173.687 82.0291 173.687 92.9709 166.938 99.7196L99.7196 166.938C92.9709 173.687 82.0291 173.687 75.2804 166.938L8.06152 99.7196Z" stroke="#BCBCBC" stroke-width="3" shape-rendering="crispEdges"/>
</g>
<defs>
<filter id="filter0_d_172_308" x="0" y="0" width="187" height="187" filterUnits="userSpaceOnUse" color-interpolation-filters="sRGB">
<feFlood flood-opacity="0" result="BackgroundImageFix"/>
<feColorMatrix in="SourceAlpha" type="matrix" values="0 0 0 0 0 0 0 0 0 0 0 0 0 0 0 0 0 0 127 0" result="hardAlpha"/>
<feOffset dx="6" dy="6"/>
<feGaussianBlur stdDeviation="4"/>
<feComposite in2="hardAlpha" operator="out"/>
<feColorMatrix type="matrix" values="0 0 0 0 0 0 0 0 0 0 0 0 0 0 0 0 0 0 0.25 0"/>
<feBlend mode="normal" in2="BackgroundImageFix" result="effect1_dropShadow_172_308"/>
<feBlend mode="normal" in="SourceGraphic" in2="effect1_dropShadow_172_308" result="shape"/>
</filter>
</defs>
</svg>

