<svg width="743" height="989" viewBox="0 0 743 989" fill="none" xmlns="http://www.w3.org/2000/svg">
<path d="M372.854 520.543L664.652 121.24C664.652 121.24 609.364 79.7742 547.932 35.237C486.501 -9.30027 359.032 -26.1939 262.278 84.3825C262.278 84.3825 190.185 184.208 71.84 339.321C-46.5051 494.435 3.90136 646.67 74.9132 715.587C145.925 784.504 314.492 904.488 314.492 904.488C182.415 749.374 296.065 624.976 320.637 591.189L372.854 520.543Z" fill="url(#paint0_linear_93_3)" stroke="#423B3B" stroke-width="2"/>
<path d="M649.298 925.991C649.298 925.991 707.282 861.415 741.444 803.129L369.787 525.153C339.071 568.155 294.534 623.443 294.534 623.443C128.667 879.918 492.649 1099.53 649.298 925.991Z" fill="url(#paint1_linear_93_3)" stroke="#423B3B" stroke-width="2"/>
<defs>
<linearGradient id="paint0_linear_93_3" x1="515.209" y1="220.454" x2="230.011" y2="662.144" gradientUnits="userSpaceOnUse">
<stop offset="0.0337301" stop-color="#FCE020"/>
<stop offset="0.656265" stop-color="#F6AF46"/>
<stop offset="1" stop-color="#FFA500"/>
</linearGradient>
<linearGradient id="paint1_linear_93_3" x1="326" y1="699.5" x2="699.45" y2="773.02" gradientUnits="userSpaceOnUse">
<stop stop-color="#EE3C47"/>
<stop offset="1" stop-color="#D71A2D"/>
</linearGradient>
</defs>
</svg>
