<svg width="1440" height="1418" viewBox="0 0 1440 1418" fill="none" xmlns="http://www.w3.org/2000/svg">
<g opacity="0.2" filter="url(#filter0_b_151_49)">
<path d="M885.199 876.732L1328.33 1882.66C1328.33 1882.66 1468.89 1816.41 1622.12 1741.17C1775.36 1665.93 1948.55 1429.63 1843.46 1119.26C1843.46 1119.26 1731.73 869.486 1565.11 468.764C1398.48 68.0419 1050.97 6.95 840.418 75.4137C629.863 143.877 213.653 352.697 213.653 352.697C656.899 253.954 769.827 612.7 807.453 697.582L885.199 876.732Z" fill="url(#paint0_linear_151_49)"/>
<path d="M-197.405 997.636C-197.405 997.636 -137.664 1181.85 -63.6683 1311.86L879.748 865.721C831.245 758.803 774.455 611.276 774.455 611.276C466.02 8.1555 -357.044 500.95 -197.405 997.636Z" fill="url(#paint1_linear_151_49)"/>
</g>
<defs>
<filter id="filter0_b_151_49" x="-247.743" y="21.269" width="2153.36" height="1891.39" filterUnits="userSpaceOnUse" color-interpolation-filters="sRGB">
<feFlood flood-opacity="0" result="BackgroundImageFix"/>
<feGaussianBlur in="BackgroundImage" stdDeviation="15"/>
<feComposite in2="SourceAlpha" operator="in" result="effect1_backgroundBlur_151_49"/>
<feBlend mode="normal" in="SourceGraphic" in2="effect1_backgroundBlur_151_49" result="shape"/>
</filter>
<linearGradient id="paint0_linear_151_49" x1="1303.22" y1="1479.26" x2="734.781" y2="462.038" gradientUnits="userSpaceOnUse">
<stop offset="0.0337301" stop-color="#FCE020"/>
<stop offset="0.656265" stop-color="#F6AF46"/>
<stop offset="1" stop-color="#FFA500"/>
</linearGradient>
<linearGradient id="paint1_linear_151_49" x1="593.897" y1="593.285" x2="30.543" y2="1251.61" gradientUnits="userSpaceOnUse">
<stop stop-color="#EE3C47"/>
<stop offset="1" stop-color="#D71A2D"/>
</linearGradient>
</defs>
</svg>
