<svg 
 xmlns="http://www.w3.org/2000/svg"
 xmlns:xlink="http://www.w3.org/1999/xlink"
 width="375px" height="577px">
<path fill-rule="evenodd"  fill="#e38404"
 d="M374.914,157.671 C374.954,158.13 374.975,158.360 374.975,158.711 C374.985,161.485 373.615,164.502 371.131,166.803 C368.453,169.274 364.863,170.587 361.9,170.509 L354.690,170.622 C347.276,170.778 339.598,170.938 331.961,170.115 C324.699,168.824 320.743,163.232 321.362,155.673 C321.403,132.543 321.372,38.684 321.351,15.225 C320.763,8.134 324.709,2.413 331.535,1.182 L331.950,1.121 C339.629,0.289 347.327,0.453 354.771,0.610 L361.192,0.723 C364.852,0.644 368.453,1.953 371.121,4.424 C373.940,7.7 375.330,10.466 374.883,14.20 C374.975,26.487 374.965,144.758 374.914,157.671 ZM327.7,324.416 C323.437,350.830 309.249,372.912 288.71,385.42 C270.851,395.138 248.442,400.89 221.517,399.748 L192.165,399.741 C178.764,399.748 165.375,399.754 151.990,399.716 C132.463,399.503 104.816,395.837 83.690,379.568 C63.872,364.560 56.200,343.518 53.272,328.509 C47.897,297.894 51.375,271.605 63.537,250.336 C74.837,230.373 97.300,215.36 123.620,209.323 C130.985,207.453 139.25,210.697 141.726,216.749 C144.677,222.947 147.315,229.812 149.982,238.283 C151.909,245.222 146.563,251.193 136.33,254.2 C122.655,257.983 112.291,265.55 107.8,273.885 C100.737,284.296 98.670,297.453 100.639,314.118 C102.361,328.440 109.614,340.231 120.515,346.453 C129.261,351.580 141.3,353.986 155.509,353.633 L185.853,353.633 C200.214,353.639 214.579,353.651 228.940,353.589 C243.870,353.463 257.178,348.941 265.424,341.181 C276.285,331.130 278.952,316.776 279.287,306.498 C279.826,291.193 276.399,278.792 268.964,269.753 C261.507,260.552 249.790,255.791 241.273,253.404 C237.794,252.377 227.43,249.348 227.692,241.4 C228.219,235.493 229.976,230.636 231.678,225.944 C232.408,223.916 233.137,221.894 233.756,219.860 L233.830,219.665 C236.943,211.18 244.43,206.408 251.913,207.919 C279.600,214.538 302.119,229.245 313.942,248.315 C323.529,263.682 328.348,282.325 328.348,303.909 C328.348,310.477 327.898,317.318 327.7,324.416 ZM58.375,486.188 C58.497,477.345 58.485,468.509 58.445,459.654 C58.426,451.498 58.394,443.335 58.497,435.172 C58.313,429.712 61.418,423.125 69.133,422.66 C78.708,421.14 88.262,420.995 97.686,421.997 C105.394,422.816 109.5,429.467 108.589,435.462 C108.681,443.688 108.659,452.190 108.640,460.719 C108.618,469.190 108.618,477.691 108.681,486.163 C126.380,486.100 144.69,486.112 161.758,486.125 C178.642,486.137 195.531,486.150 212.417,486.93 C225.713,485.823 238.668,485.212 249.680,480.708 C256.467,478.0 261.853,472.225 264.133,465.259 C266.761,458.313 267.66,451.157 267.379,443.587 C267.552,439.644 267.715,435.709 268.201,431.809 C268.728,425.32 276.510,421.683 283.911,421.972 C285.698,421.965 287.717,421.934 289.744,421.896 C295.667,421.808 301.803,421.714 307.951,422.387 C315.718,423.528 319.370,429.573 319.370,435.506 C319.370,436.67 319.339,436.622 319.270,437.175 C318.964,458.703 317.748,479.909 306.611,498.494 C298.873,511.563 284.125,521.703 266.142,526.294 C248.759,531.106 230.746,531.800 210.704,532.158 L108.608,532.146 C108.608,535.445 108.629,538.765 108.640,542.71 C108.692,549.730 108.721,557.401 108.456,565.59 C108.456,565.136 108.456,565.211 108.456,565.292 C108.456,571.124 102.668,576.352 95.678,576.554 C87.688,576.907 79.530,576.900 71.528,576.535 C64.509,576.416 58.658,571.232 58.658,564.991 C58.352,557.408 58.426,549.667 58.445,541.946 C58.474,538.670 58.474,535.414 58.485,532.139 C54.550,532.139 50.623,532.152 46.688,532.165 C35.978,532.202 25.278,532.240 14.590,532.38 C7.134,532.38 1.58,527.529 0.560,521.565 C0.28,516.230 0.66,510.757 0.147,505.492 C0.184,503.427 0.236,501.392 0.217,499.326 C0.76,495.886 1.533,492.133 4.425,489.589 C6.960,487.366 10.338,486.194 13.938,486.295 C27.733,485.987 42.53,486.81 55.911,486.169 L58.375,486.188 Z"/>
</svg>