<svg version="1.2" xmlns="http://www.w3.org/2000/svg" viewBox="0 0 1440 1166" width="1440" height="1166">
	<title>dark-svg</title>
	<defs>
		<linearGradient id="g1" x1="-251.2" y1="1068.2" x2="1686.9" y2="242.8" gradientUnits="userSpaceOnUse">
			<stop offset="0" stop-color="#333333"/>
			<stop offset=".2" stop-color="#404040"/>
			<stop offset=".5" stop-color="#2d2d2d"/>
			<stop offset=".7" stop-color="#292929"/>
			<stop offset=".9" stop-color="#676767"/>
		</linearGradient>
	</defs>
	<style>
		.s0 { fill: url(#g1) } 
	</style>
	<g id="Layer">
		<path id="Layer" class="s0" d="m831 323.6l224.3-43c72.3-15.5 348.7-71.1 468.2-280.3-0.8 20.5-34.3 233.8-29.1 96.9 0 0-31.8 154.5-37.9 315.4-6.1 160.9 58.8 283.5 54.5 397-0.1 2.5-10.8 11.6-23.2 21.6l-16.6 15.6-20.9 16.6c-118.6 83.6-286.1 147.5-473.9 183.4-460.7 88.1-775.3 114.2-775.3 114.2-86.8 10.7-156.8 2.5-213.8-10.6q0 0.5 0 1c-0.3 8.5-7.3 2-14-4.1l-12.8-3.7c0.3-7.2 6.1-2.3 12.3 3.2q7.1 1.9 14.5 3.6c2.7-69.7 3.4-88.5 7.6-198.4 4.2-110.4-3.4-361.7-3.4-361.7l-8.9-65.4-78.6-103.9h-30l38-21 62 6 90 15h50l60-8z"/>
	</g>
</svg>