<svg width="1440" height="1291" viewBox="0 0 1440 1291" fill="none" xmlns="http://www.w3.org/2000/svg">
<g filter="url(#filter0_i_96_2)">
<path d="M821 299.173L1019.4 267.73C1091.09 249.42 1328.57 214.257 1440.06 0.672595L1440.06 52.1726L1440.06 393.673C1440.06 554.673 1440 715.173 1440 828.673L1440 835.173L1440 836.422C1440 836.478 1440 836.534 1440 836.59L1440 838.173L1440 841.173C1324.65 929.144 1171.32 988.154 985 1031.17C594.087 1121.43 116.886 1131.91 -13 1133.05C-13 1133.09 -13 1133.13 -13 1133.17C-13.0002 1141.69 -39.9377 1178.9 -65.9895 1215.02L-91.6522 1254.66C-89.8087 1278.23 -92.0249 1294.28 -114 1289.17C-113.999 1284.51 -104.787 1269.93 -91.9259 1251.41C-95.8014 1208.31 -110.274 1143.35 -47 1133.17C-47 1133.17 -34.9674 1133.25 -13 1133.05C-12.986 1062.71 0.000465281 1098.61 -0.000243102 988.173C-0.00098245 877.673 -0.000325894 629.673 -0.000325894 629.673L-0.00037837 557.173L-149 393.673L821 299.173Z" fill="url(#paint0_linear_96_2)"/>
</g>
<defs>
<filter id="filter0_i_96_2" x="-149" y="0.672607" width="1631.06" height="1322.45" filterUnits="userSpaceOnUse" color-interpolation-filters="sRGB">
<feFlood flood-opacity="0" result="BackgroundImageFix"/>
<feBlend mode="normal" in="SourceGraphic" in2="BackgroundImageFix" result="shape"/>
<feColorMatrix in="SourceAlpha" type="matrix" values="0 0 0 0 0 0 0 0 0 0 0 0 0 0 0 0 0 0 127 0" result="hardAlpha"/>
<feOffset dx="42" dy="33"/>
<feGaussianBlur stdDeviation="22.5"/>
<feComposite in2="hardAlpha" operator="arithmetic" k2="-1" k3="1"/>
<feColorMatrix type="matrix" values="0 0 0 0 0 0 0 0 0 0 0 0 0 0 0 0 0 0 0.25 0"/>
<feBlend mode="normal" in2="shape" result="effect1_innerShadow_96_2"/>
</filter>
<linearGradient id="paint0_linear_96_2" x1="-241.5" y1="1113.67" x2="1663.88" y2="215.266" gradientUnits="userSpaceOnUse">
<stop offset="0.0337301" stop-color="#2A2A2A"/>
<stop offset="0.656265" stop-color="#2A2A2A"/>
<stop offset="1" stop-color="#2A2A2A"/>
</linearGradient>
</defs>
</svg>
