<svg xmlns="http://www.w3.org/2000/svg" version="1.2" width="1440" height="2566">
<rect id="backgroundrect" width="100%" height="100%" x="0" y="0" fill="none" stroke="none"/>
	<title>green-svg</title>
	<defs>
		<linearGradient id="g1" x1="-251.1999969482422" y1="1068.199951171875" x2="1686.9000244140625" y2="242.8000030517578" gradientUnits="userSpaceOnUse">
			<stop offset="0" stop-color="#006a5b"/>
			<stop offset=".2" stop-color="#006a5b"/>
			<stop offset=".5" stop-color="#006a5b"/>
			<stop offset=".7" stop-color="#006a5b"/>
			<stop offset=".9" stop-color="#006a5b"/>
		</linearGradient>
	</defs>
	<style>
		.s0 { fill: url(#g1) } 
	</style>
	
	<g class="currentLayer" style=""><title>Layer 1</title><g id="Layer" class="selected">
		<path id="Layer" class="s0" d="m818.0361678247687,156.11730038877062 l220.5740101158619,-68.08526093038792 c71.09897873997689,-24.542361498163086 342.907522636652,-112.57818725931583 460.42243217229844,-443.8208985764589 c-0.7867106914520264,32.459252304022144 -33.730220896005626,370.19381408196966 -28.61660140156746,153.4293438175486 c0,0 -31.271749985218047,244.63192590104498 -37.27041900753975,499.39747203358945 c-5.9986690223217005,254.76554613254456 57.823235821723934,448.8877086922087 53.594665855169296,628.6011299852095 c-0.09833883643150339,3.95844540292953 -10.620594334602357,18.367186669593018 -22.814610052108765,34.20096828131114 l-16.32424684762955,24.700699314280264 l-20.552816814184187,26.284077475452083 c-116.6298600077629,132.3704142739635 -281.34741103053096,233.54827877284225 -466.0277458488941,290.39155475891033 c-453.0470194399357,139.49561599923663 -762.420998853445,180.82178600582097 -762.420998853445,180.82178600582097 c-85.35811002254486,16.94214632453839 -154.19529552459719,3.95844540292953 -210.24843229055406,-16.783808508421206 q0,0.7916890805859058 0,1.583378161171812 c-0.29501650929451034,13.458714369960402 -7.178735059499741,3.166756322343624 -13.767437100410461,-6.491850460804429 l-12.587371063232423,-5.858499196335705 c0.29501650929451034,-11.400322760437048 5.9986690223217005,-3.6417697706951677 12.095676881074906,5.066810115749798 q6.9820573866367335,3.0084185062264432 14.259131282567978,5.700161380218525 c2.6551485836505897,-110.3614578336753 3.343520438671112,-140.12896726370536 7.47375156879425,-314.1422271764875 c4.130231130123138,-174.80494899336804 -3.343520438671112,-572.7078808958444 -3.343520438671112,-572.7078808958444 l-8.752156442403793,-103.55293174063651 l-63.33021066188813,-120.33674024905771 l187.33548340201378,-31.034211958967518 z"/>
	</g></g>
</svg>