<svg width="1440" height="1237" viewBox="0 0 1440 1237" fill="none" xmlns="http://www.w3.org/2000/svg">
<g filter="url(#filter0_i_346_221)">
<path d="M814.463 318.2L1019.4 267.557C1091.1 249.247 1328.57 214.084 1440.06 0.499599L1440.06 51.9996L1440.06 393.5C1440.06 554.5 1440 715 1440 828.5L1440 835L1440 836.249C1440 836.305 1440 836.361 1440 836.417L1440 838L1440 841C1324.65 928.971 1170.71 1002.43 984.387 1045.45C527.359 1150.97 241 1225.13 241 1225.13C140.543 1241.28 62.0558 1239.87 -0.000177591 1225.45C0.00048257 1216.18 0.000411695 1210.31 0.000367437 1203.53C0.000342864 1199.02 0.000319997 1194.1 0.000499453 1187.5C-0.000234374 1117 0.000521838 1098.5 -0.000217509 988C-0.000956857 877.5 -0.000262037 629.5 -0.000262037 629.5L-0.000257116 557L-0.000238694 524.206L814.463 318.2Z" fill="url(#paint0_linear_346_221)"/>
</g>
<defs>
<filter id="filter0_i_346_221" x="-0.000488281" y="0.499603" width="1482.06" height="1269.26" filterUnits="userSpaceOnUse" color-interpolation-filters="sRGB">
<feFlood flood-opacity="0" result="BackgroundImageFix"/>
<feBlend mode="normal" in="SourceGraphic" in2="BackgroundImageFix" result="shape"/>
<feColorMatrix in="SourceAlpha" type="matrix" values="0 0 0 0 0 0 0 0 0 0 0 0 0 0 0 0 0 0 127 0" result="hardAlpha"/>
<feOffset dx="42" dy="33"/>
<feGaussianBlur stdDeviation="22.5"/>
<feComposite in2="hardAlpha" operator="arithmetic" k2="-1" k3="1"/>
<feColorMatrix type="matrix" values="0 0 0 0 0 0 0 0 0 0 0 0 0 0 0 0 0 0 0.25 0"/>
<feBlend mode="normal" in2="shape" result="effect1_innerShadow_346_221"/>
</filter>
<linearGradient id="paint0_linear_346_221" x1="-241.499" y1="1113.5" x2="1663.88" y2="215.094" gradientUnits="userSpaceOnUse">
<stop offset="0.0337301" stop-color="#006A5B"/>
<stop offset="0.656265" stop-color="#006A5B"/>
<stop offset="1" stop-color="#74AA1B"/>
</linearGradient>
</defs>
</svg>
