<svg xmlns="http://www.w3.org/2000/svg" version="1.2" width="1440" height="1166" style=""><rect id="backgroundrect" width="100%" height="100%" x="0" y="0" fill="none" stroke="none"/>
	<title>green-svg</title>
	<defs>
		<linearGradient id="g1" x1="-251.1999969482422" y1="1068.199951171875" x2="1686.9000244140625" y2="242.8000030517578" gradientUnits="userSpaceOnUse">
			<stop offset="0" stop-color="#006a5b"/>
			<stop offset=".2" stop-color="#006a5b"/>
			<stop offset=".5" stop-color="#006a5b"/>
			<stop offset=".7" stop-color="#006a5b"/>
			<stop offset=".9" stop-color="#006a5b"/>
		</linearGradient>
	</defs>
	<style>
		.s0 { fill: url(#g1) } 
	</style>
	
<g class="currentLayer" style=""><title>Layer 1</title><g id="Layer" class="selected" fill="none">
		<path id="Layer" class="s0" d="m897.0674102759415,21.124114467280748 l240.13546631188086,-52.26351606456675 c77.40434335420858,-18.839174395367085 373.31804325881785,-86.41711609745803 501.2546826893563,-340.68519890460595 c-0.8564795945140646,24.916327426130657 -36.721562614790514,284.1676757185049 -31.154445250449097,117.77522573619811 c0,0 -34.04506388193406,187.7840286505945 -40.57572079010381,383.3468131805663 c-6.530656908169742,195.56278452997185 62.95125019678374,344.57457684429477 58.347672376270644,482.52595064262795 c-0.10705994931425818,3.038576515381788 -11.562474525939871,14.098995031371494 -24.837908240907872,26.25330109289865 l-17.77195158616684,18.960717455982355 l-22.375529406679934,20.17614806213507 c-126.97309988671006,101.60999867436698 -306.29851498809234,179.27601440752545 -507.35709980026894,222.90997316840796 c-493.2251864907869,107.07943640205418 -830.0357870334427,138.80217522264007 -830.0357870334427,138.80217522264007 c-92.928036004776,13.005107485834053 -167.87000052475665,3.038576515381788 -228.89417163388376,-12.883564425218779 q0,0.6077153030763576 0,1.2154306061527158 c-0.3211798479427755,10.331160152298079 -7.815376299940839,2.4308612123054307 -14.988392903996129,-4.983265485226131 l-13.703673512225032,-4.497093242765047 c0.3211798479427755,-8.75110036429955 6.530656908169742,-2.7954903941512455 13.168373765653742,3.889377939688688 q7.601256401312322,2.3093181516901593 15.523692650567419,4.375550182149776 c2.8906186314849687,-84.71551324884425 3.640038276684775,-107.5656086445153 8.136556147883612,-241.14143226069868 c4.496517871198838,-134.18353891925975 -3.640038276684775,-439.621250245437 -3.640038276684775,-439.621250245437 l-9.528335488968967,-79.48916164238757 l-68.9466073583822,-92.37272606760635 l203.94920344366162,-23.82243988059322 z" fill="none"/>
	</g></g></svg>