<svg width="1440" height="1290" viewBox="0 0 1440 1290" fill="none" xmlns="http://www.w3.org/2000/svg">
<g filter="url(#filter0_i_96_2)">
<path d="M821 299L1019.4 267.557C1091.09 249.247 1328.57 214.084 1440.06 0.499743L1440.06 51.9998L1440.06 393.5C1440.06 554.5 1440 715 1440 828.5L1440 835L1440 836.249C1440 836.305 1440 836.361 1440 836.417L1440 838L1440 841C1324.65 928.971 1171.32 987.981 985 1031C594.087 1121.25 116.886 1131.74 -13 1132.88C-13 1132.92 -13 1132.96 -13 1133C-13.0002 1141.52 -39.9377 1178.73 -65.9895 1214.85L-91.6522 1254.48C-89.8087 1278.06 -92.0249 1294.11 -114 1289C-113.999 1284.33 -104.787 1269.76 -91.9259 1251.24C-95.8014 1208.14 -110.274 1143.18 -47 1133C-47 1133 -34.9674 1133.07 -13 1132.88C-12.986 1062.54 0.000465281 1098.44 -0.000243102 988C-0.00098245 877.5 -0.000325894 629.5 -0.000325894 629.5L-0.00037837 557L-149 393.5L821 299Z" fill="url(#paint0_linear_96_2)"/>
</g>
<defs>
<filter id="filter0_i_96_2" x="-149" y="0.499756" width="1631.06" height="1322.45" filterUnits="userSpaceOnUse" color-interpolation-filters="sRGB">
<feFlood flood-opacity="0" result="BackgroundImageFix"/>
<feBlend mode="normal" in="SourceGraphic" in2="BackgroundImageFix" result="shape"/>
<feColorMatrix in="SourceAlpha" type="matrix" values="0 0 0 0 0 0 0 0 0 0 0 0 0 0 0 0 0 0 127 0" result="hardAlpha"/>
<feOffset dx="42" dy="33"/>
<feGaussianBlur stdDeviation="22.5"/>
<feComposite in2="hardAlpha" operator="arithmetic" k2="-1" k3="1"/>
<feColorMatrix type="matrix" values="0 0 0 0 0 0 0 0 0 0 0 0 0 0 0 0 0 0 0.25 0"/>
<feBlend mode="normal" in2="shape" result="effect1_innerShadow_96_2"/>
</filter>
<linearGradient id="paint0_linear_96_2" x1="-241.5" y1="1113.5" x2="1663.88" y2="215.093" gradientUnits="userSpaceOnUse">
<stop offset="0.0337301" stop-color="#006A5B"/>
<stop offset="0.656265" stop-color="#006A5B"/>
<stop offset="1" stop-color="#74AA1B"/>
</linearGradient>
</defs>
</svg>
