<svg xmlns="http://www.w3.org/2000/svg" version="1.2" width="1440" height="2166" style=""><rect id="backgroundrect" width="100%" height="100%" x="0" y="0" fill="none" stroke="none"/>
	<title>green-svg</title>
	<defs>
		<linearGradient id="g1" x1="-251.1999969482422" y1="1068.199951171875" x2="1686.9000244140625" y2="242.8000030517578" gradientUnits="userSpaceOnUse">
			<stop offset="0" stop-color="#006a5b"/>
			<stop offset=".2" stop-color="#006a5b"/>
			<stop offset=".5" stop-color="#006a5b"/>
			<stop offset=".7" stop-color="#006a5b"/>
			<stop offset=".9" stop-color="#006a5b"/>
		</linearGradient>
	</defs>
	<style>
		.s0 { fill: url(#g1) } 
	</style>
	
<g class="currentLayer" style=""><title>Layer 1</title><g id="Layer" class="selected" fill="none">
		<path id="Layer" class="s0" d="m897.0674102759415,156.06571318337376 l240.13546631188086,-68.74108541149128 c77.40434335420858,-24.77876334600267 373.31804325881785,-113.66258541295417 501.2546826893563,-448.0959590893257 c-0.8564795945140646,32.77191281245514 -36.721562614790514,373.75966905131776 -31.154445250449097,154.90723665984896 c0,0 -34.04506388193406,246.9883185133815 -40.57572079010381,504.20786834382204 c-6.530656908169742,257.2195498304406 62.95125019678374,453.2115747478553 58.347672376270644,634.6560676363265 c-0.10705994931425819,3.9965747332262374 -11.562474525939871,18.54410676216974 -24.837908240907872,34.53040569507469 l-17.77195158616684,24.93862633533172 l-22.375529406679934,26.537256228622216 c-126.97309988671006,133.64545907908536 -306.29851498809234,235.79790926034798 -507.35709980026894,293.1887224294768 c-493.2251864907869,140.83929359889257 -830.0357870334427,182.56353381377454 -830.0357870334427,182.56353381377454 c-92.928036004776,17.105339858208296 -167.87000052475665,3.9965747332262374 -228.89417163388376,-16.945476868879243 q0,0.7993149466452474 0,1.5986298932904952 c-0.32117984794277515,13.588354092969206 -7.815376299940839,3.1972597865809904 -14.988392903996129,-6.554382562491028 l-13.703673512225032,-5.914930605174832 c0.32117984794277515,-11.510135231691564 6.530656908169742,-3.6768487545681388 13.168373765653742,5.115615658529583 q7.601256401312322,3.0373967972519407 15.523692650567419,5.755067615845783 c2.8906186314849687,-111.4245035623475 3.640038276684775,-141.4787455562088 8.136556147883612,-317.16817082883415 c4.496517871198838,-176.48874021927062 -3.640038276684775,-578.2244324031719 -3.640038276684775,-578.2244324031719 l-9.528335488968967,-104.55039502119836 l-68.9466073583822,-121.49587189007761 l203.94920344366162,-31.3331459084937 z" fill="none"/>
	</g></g></svg>