<svg width="1440" height="3277" viewBox="0 0 1440 3277" fill="none" xmlns="http://www.w3.org/2000/svg">
<mask id="mask0_150_9" style="mask-type:alpha" maskUnits="userSpaceOnUse" x="0" y="794" width="1441" height="1418">
<path d="M1440.94 794.302C1408.05 796.121 1371.82 800.254 1331.87 806.973C1331.87 806.973 831.374 885.044 388.375 806.973C241.467 781.083 110.156 810.958 0.938477 871.147V2211.86C170.066 2176.91 477.161 2125.8 758.376 2144.04C941.542 2155.93 1065.05 2124.29 1176.7 2095.7C1264.37 2073.25 1344.74 2052.66 1440.94 2056.5V794.302Z" fill="url(#paint0_linear_150_9)"/>
</mask>
<g mask="url(#mask0_150_9)">
<g filter="url(#filter0_i_150_9)">
<path d="M1440.94 794.302C1408.05 796.121 1371.82 800.254 1331.87 806.973C1331.87 806.973 831.374 885.044 388.375 806.973C241.467 781.083 110.156 810.958 0.938477 871.147V2211.86C170.066 2176.91 477.161 2125.8 758.376 2144.04C941.542 2155.93 1065.05 2124.29 1176.7 2095.7C1264.37 2073.25 1344.74 2052.66 1440.94 2056.5V794.302Z" fill="url(#paint1_linear_150_9)"/>
</g>
<g opacity="0.2" filter="url(#filter1_b_150_9)">
<path d="M885.199 1670.73L1328.33 2676.66C1328.33 2676.66 1468.89 2610.41 1622.12 2535.17C1775.36 2459.93 1948.55 2223.63 1843.46 1913.26C1843.46 1913.26 1731.73 1663.49 1565.11 1262.76C1398.48 862.042 1050.97 800.95 840.418 869.414C629.863 937.877 213.653 1146.7 213.653 1146.7C656.899 1047.95 769.827 1406.7 807.453 1491.58L885.199 1670.73Z" fill="url(#paint2_linear_150_9)"/>
<path d="M-197.405 1791.64C-197.405 1791.64 -137.664 1975.85 -63.6683 2105.86L879.748 1659.72C831.245 1552.8 774.455 1405.28 774.455 1405.28C466.02 802.155 -357.044 1294.95 -197.405 1791.64Z" fill="url(#paint3_linear_150_9)"/>
</g>
<g opacity="0.3">
<g filter="url(#filter2_d_150_9)">
<path fill-rule="evenodd" clip-rule="evenodd" d="M957.51 1273.74C951.415 1279.83 951.415 1289.72 957.51 1295.81L1014.9 1353.2C1021 1359.3 1030.88 1359.3 1036.98 1353.2L1094.37 1295.81C1100.46 1289.72 1100.46 1279.83 1094.37 1273.74L1036.98 1216.35C1030.88 1210.25 1021 1210.25 1014.9 1216.35L957.51 1273.74ZM1018 1313.32H1032.18V1292.25H1051.95V1278.92H1032.18V1257.78H1018V1278.92H998.168V1292.25H1018V1313.32Z" fill="url(#paint4_linear_150_9)"/>
</g>
</g>
<g filter="url(#filter3_d_150_9)">
<path fill-rule="evenodd" clip-rule="evenodd" d="M470.51 843.738C464.415 849.833 464.415 859.716 470.51 865.811L527.902 923.203C533.997 929.298 543.88 929.298 549.975 923.203L607.367 865.811C613.462 859.716 613.462 849.833 607.367 843.738L549.975 786.346C543.88 780.251 533.997 780.251 527.902 786.346L470.51 843.738ZM531.004 883.325H545.182V862.253H564.952V848.921H545.182V827.785H531.004V848.921H511.168V862.253H531.004V883.325Z" fill="url(#paint5_linear_150_9)"/>
</g>
<g filter="url(#filter4_d_150_9)">
<path fill-rule="evenodd" clip-rule="evenodd" d="M91.5101 1199.74C85.4146 1205.83 85.4146 1215.72 91.5101 1221.81L148.902 1279.2C154.997 1285.3 164.88 1285.3 170.975 1279.2L228.367 1221.81C234.462 1215.72 234.462 1205.83 228.367 1199.74L170.975 1142.35C164.88 1136.25 154.997 1136.25 148.902 1142.35L91.5101 1199.74ZM152.004 1239.32H166.182V1218.25H185.952V1204.92H166.182V1183.78H152.004V1204.92H132.168V1218.25H152.004V1239.32Z" fill="url(#paint6_linear_150_9)"/>
</g>
</g>
<defs>
<filter id="filter0_i_150_9" x="0.938477" y="794.302" width="1482" height="1450.56" filterUnits="userSpaceOnUse" color-interpolation-filters="sRGB">
<feFlood flood-opacity="0" result="BackgroundImageFix"/>
<feBlend mode="normal" in="SourceGraphic" in2="BackgroundImageFix" result="shape"/>
<feColorMatrix in="SourceAlpha" type="matrix" values="0 0 0 0 0 0 0 0 0 0 0 0 0 0 0 0 0 0 127 0" result="hardAlpha"/>
<feOffset dx="42" dy="33"/>
<feGaussianBlur stdDeviation="22.5"/>
<feComposite in2="hardAlpha" operator="arithmetic" k2="-1" k3="1"/>
<feColorMatrix type="matrix" values="0 0 0 0 0 0 0 0 0 0 0 0 0 0 0 0 0 0 0.25 0"/>
<feBlend mode="normal" in2="shape" result="effect1_innerShadow_150_9"/>
</filter>
<filter id="filter1_b_150_9" x="-247.743" y="815.269" width="2153.36" height="1891.39" filterUnits="userSpaceOnUse" color-interpolation-filters="sRGB">
<feFlood flood-opacity="0" result="BackgroundImageFix"/>
<feGaussianBlur in="BackgroundImage" stdDeviation="15"/>
<feComposite in2="SourceAlpha" operator="in" result="effect1_backgroundBlur_150_9"/>
<feBlend mode="normal" in="SourceGraphic" in2="effect1_backgroundBlur_150_9" result="shape"/>
</filter>
<filter id="filter2_d_150_9" x="950.938" y="1209.77" width="162" height="162" filterUnits="userSpaceOnUse" color-interpolation-filters="sRGB">
<feFlood flood-opacity="0" result="BackgroundImageFix"/>
<feColorMatrix in="SourceAlpha" type="matrix" values="0 0 0 0 0 0 0 0 0 0 0 0 0 0 0 0 0 0 127 0" result="hardAlpha"/>
<feOffset dx="6" dy="6"/>
<feGaussianBlur stdDeviation="4"/>
<feComposite in2="hardAlpha" operator="out"/>
<feColorMatrix type="matrix" values="0 0 0 0 0 0 0 0 0 0 0 0 0 0 0 0 0 0 0.25 0"/>
<feBlend mode="normal" in2="BackgroundImageFix" result="effect1_dropShadow_150_9"/>
<feBlend mode="normal" in="SourceGraphic" in2="effect1_dropShadow_150_9" result="shape"/>
</filter>
<filter id="filter3_d_150_9" x="463.938" y="779.774" width="162" height="162" filterUnits="userSpaceOnUse" color-interpolation-filters="sRGB">
<feFlood flood-opacity="0" result="BackgroundImageFix"/>
<feColorMatrix in="SourceAlpha" type="matrix" values="0 0 0 0 0 0 0 0 0 0 0 0 0 0 0 0 0 0 127 0" result="hardAlpha"/>
<feOffset dx="6" dy="6"/>
<feGaussianBlur stdDeviation="4"/>
<feComposite in2="hardAlpha" operator="out"/>
<feColorMatrix type="matrix" values="0 0 0 0 0 0 0 0 0 0 0 0 0 0 0 0 0 0 0.25 0"/>
<feBlend mode="normal" in2="BackgroundImageFix" result="effect1_dropShadow_150_9"/>
<feBlend mode="normal" in="SourceGraphic" in2="effect1_dropShadow_150_9" result="shape"/>
</filter>
<filter id="filter4_d_150_9" x="84.9385" y="1135.77" width="162" height="162" filterUnits="userSpaceOnUse" color-interpolation-filters="sRGB">
<feFlood flood-opacity="0" result="BackgroundImageFix"/>
<feColorMatrix in="SourceAlpha" type="matrix" values="0 0 0 0 0 0 0 0 0 0 0 0 0 0 0 0 0 0 127 0" result="hardAlpha"/>
<feOffset dx="6" dy="6"/>
<feGaussianBlur stdDeviation="4"/>
<feComposite in2="hardAlpha" operator="out"/>
<feColorMatrix type="matrix" values="0 0 0 0 0 0 0 0 0 0 0 0 0 0 0 0 0 0 0.25 0"/>
<feBlend mode="normal" in2="BackgroundImageFix" result="effect1_dropShadow_150_9"/>
<feBlend mode="normal" in="SourceGraphic" in2="effect1_dropShadow_150_9" result="shape"/>
</filter>
<linearGradient id="paint0_linear_150_9" x1="1519.7" y1="1077.42" x2="306.536" y2="1432.16" gradientUnits="userSpaceOnUse">
<stop offset="0.0337301" stop-color="#6A0000"/>
<stop offset="0.489583" stop-color="#6A0000"/>
<stop offset="1" stop-color="#C42020"/>
</linearGradient>
<linearGradient id="paint1_linear_150_9" x1="1519.7" y1="1077.42" x2="306.536" y2="1432.16" gradientUnits="userSpaceOnUse">
<stop offset="0.0337301" stop-color="#6A0000"/>
<stop offset="0.489583" stop-color="#6A0000"/>
<stop offset="1" stop-color="#C42020"/>
</linearGradient>
<linearGradient id="paint2_linear_150_9" x1="1303.22" y1="2273.26" x2="734.781" y2="1256.04" gradientUnits="userSpaceOnUse">
<stop offset="0.0337301" stop-color="#FCE020"/>
<stop offset="0.656265" stop-color="#F6AF46"/>
<stop offset="1" stop-color="#FFA500"/>
</linearGradient>
<linearGradient id="paint3_linear_150_9" x1="593.897" y1="1387.28" x2="30.543" y2="2045.61" gradientUnits="userSpaceOnUse">
<stop stop-color="#EE3C47"/>
<stop offset="1" stop-color="#D71A2D"/>
</linearGradient>
<linearGradient id="paint4_linear_150_9" x1="1052.83" y1="1225.44" x2="991.786" y2="1342.41" gradientUnits="userSpaceOnUse">
<stop stop-color="#EC2C3F"/>
<stop offset="1" stop-color="#C12C36"/>
</linearGradient>
<linearGradient id="paint5_linear_150_9" x1="565.833" y1="795.435" x2="504.786" y2="912.406" gradientUnits="userSpaceOnUse">
<stop stop-color="#EC2C3F"/>
<stop offset="1" stop-color="#C12C36"/>
</linearGradient>
<linearGradient id="paint6_linear_150_9" x1="186.833" y1="1151.44" x2="125.786" y2="1268.41" gradientUnits="userSpaceOnUse">
<stop stop-color="#EC2C3F"/>
<stop offset="1" stop-color="#C12C36"/>
</linearGradient>
</defs>
</svg>
