<svg width="1440" height="1237" viewBox="0 0 1440 1237" fill="none" xmlns="http://www.w3.org/2000/svg">
<g filter="url(#filter0_i_346_219)">
<path d="M814.463 318.2L1019.4 267.557C1091.1 249.247 1328.57 214.084 1440.06 0.499599L1440.06 51.9996L1440.06 393.5C1440.06 554.5 1440 715 1440 828.5L1440 835L1440 836.249C1440 836.305 1440 836.361 1440 836.417L1440 838L1440 841C1324.65 928.971 1170.71 1002.43 984.387 1045.45C527.359 1150.97 241 1225.13 241 1225.13C140.543 1241.28 62.0558 1239.87 -0.000177591 1225.45C0.00048257 1216.18 0.000411695 1210.31 0.000367437 1203.53C0.000342864 1199.02 0.000319997 1194.1 0.000499453 1187.5C-0.000234374 1117 0.000521838 1098.5 -0.000217509 988C-0.000956857 877.5 -0.000262037 629.5 -0.000262037 629.5L-0.000257116 557L-0.000238694 524.206L814.463 318.2Z" fill="url(#paint0_linear_346_219)"/>
</g>
<g style="mix-blend-mode:lighten">
<g filter="url(#filter1_d_346_219)">
<path d="M1203.62 466.775H1204.62V465.775V456.24H1213.51H1214.51V455.24V448.573V447.573H1213.51H1204.62V438.005V437.005H1203.62H1196.53H1195.53V438.005V447.573H1186.61H1185.61V448.573V455.24V456.24H1186.61H1195.53V465.775V466.775H1196.53H1203.62ZM1166.99 456.311C1164.34 453.654 1164.34 449.346 1166.99 446.689L1195.69 417.993C1198.35 415.336 1202.65 415.336 1205.31 417.993L1234.01 446.689C1236.66 449.346 1236.66 453.654 1234.01 456.311L1205.31 485.007C1202.65 487.664 1198.35 487.664 1195.69 485.007L1166.99 456.311Z" stroke="#707070" stroke-width="2" shape-rendering="crispEdges"/>
</g>
</g>
<g style="mix-blend-mode:lighten">
<g filter="url(#filter2_d_346_219)">
<path d="M1159.62 424.775H1160.62V423.775V414.24H1169.51H1170.51V413.24V406.573V405.573H1169.51H1160.62V396.005V395.005H1159.62H1152.53H1151.53V396.005V405.573H1142.61H1141.61V406.573V413.24V414.24H1142.61H1151.53V423.775V424.775H1152.53H1159.62ZM1122.99 414.311C1120.34 411.654 1120.34 407.346 1122.99 404.689L1151.69 375.993C1154.35 373.336 1158.65 373.336 1161.31 375.993L1190.01 404.689C1192.66 407.346 1192.66 411.654 1190.01 414.311L1161.31 443.007C1158.65 445.664 1154.35 445.664 1151.69 443.007L1122.99 414.311Z" stroke="#707070" stroke-width="2" shape-rendering="crispEdges"/>
</g>
</g>
<g style="mix-blend-mode:lighten">
<g filter="url(#filter3_d_346_219)">
<path d="M1114.62 383.775H1115.62V382.775V373.24H1124.51H1125.51V372.24V365.573V364.573H1124.51H1115.62V355.005V354.005H1114.62H1107.53H1106.53V355.005V364.573H1097.61H1096.61V365.573V372.24V373.24H1097.61H1106.53V382.775V383.775H1107.53H1114.62ZM1077.99 373.311C1075.34 370.654 1075.34 366.346 1077.99 363.689L1106.69 334.993C1109.35 332.336 1113.65 332.336 1116.31 334.993L1145.01 363.689C1147.66 366.346 1147.66 370.654 1145.01 373.311L1116.31 402.007C1113.65 404.664 1109.35 404.664 1106.69 402.007L1077.99 373.311Z" stroke="#707070" stroke-width="2" shape-rendering="crispEdges"/>
</g>
</g>
<g filter="url(#filter4_d_346_219)">
<path fill-rule="evenodd" clip-rule="evenodd" d="M908.2 421.032C899.933 429.299 899.933 442.701 908.2 450.968L986.032 528.8C994.299 537.067 1007.7 537.067 1015.97 528.8L1093.8 450.968C1102.07 442.701 1102.07 429.299 1093.8 421.032L1015.97 343.2C1007.7 334.933 994.299 334.933 986.032 343.2L908.2 421.032ZM990.24 474.719H1009.47V446.143H1036.28V428.062H1009.47V399.398H990.24V428.062H963.339V446.143H990.24V474.719Z" fill="url(#paint1_linear_346_219)"/>
</g>
<g filter="url(#filter5_d_346_219)">
<path fill-rule="evenodd" clip-rule="evenodd" d="M1039.35 463.573C1032.22 470.713 1032.22 482.287 1039.35 489.427L1106.57 556.646C1113.71 563.785 1125.29 563.785 1132.43 556.646L1199.65 489.427C1206.78 482.287 1206.78 470.713 1199.65 463.573L1132.43 396.354C1125.29 389.215 1113.71 389.215 1106.57 396.354L1039.35 463.573ZM1110.21 509.939H1126.81V485.26H1149.97V469.645H1126.81V444.889H1110.21V469.645H1086.97V485.26H1110.21V509.939Z" fill="url(#paint2_linear_346_219)"/>
</g>
<defs>
<filter id="filter0_i_346_219" x="-0.000488281" y="0.499603" width="1482.06" height="1269.26" filterUnits="userSpaceOnUse" color-interpolation-filters="sRGB">
<feFlood flood-opacity="0" result="BackgroundImageFix"/>
<feBlend mode="normal" in="SourceGraphic" in2="BackgroundImageFix" result="shape"/>
<feColorMatrix in="SourceAlpha" type="matrix" values="0 0 0 0 0 0 0 0 0 0 0 0 0 0 0 0 0 0 127 0" result="hardAlpha"/>
<feOffset dx="42" dy="33"/>
<feGaussianBlur stdDeviation="22.5"/>
<feComposite in2="hardAlpha" operator="arithmetic" k2="-1" k3="1"/>
<feColorMatrix type="matrix" values="0 0 0 0 0 0 0 0 0 0 0 0 0 0 0 0 0 0 0.25 0"/>
<feBlend mode="normal" in2="shape" result="effect1_innerShadow_346_219"/>
</filter>
<filter id="filter1_d_346_219" x="1162" y="413" width="89" height="89" filterUnits="userSpaceOnUse" color-interpolation-filters="sRGB">
<feFlood flood-opacity="0" result="BackgroundImageFix"/>
<feColorMatrix in="SourceAlpha" type="matrix" values="0 0 0 0 0 0 0 0 0 0 0 0 0 0 0 0 0 0 127 0" result="hardAlpha"/>
<feOffset dx="6" dy="6"/>
<feGaussianBlur stdDeviation="4"/>
<feComposite in2="hardAlpha" operator="out"/>
<feColorMatrix type="matrix" values="0 0 0 0 0 0 0 0 0 0 0 0 0 0 0 0 0 0 0.25 0"/>
<feBlend mode="normal" in2="BackgroundImageFix" result="effect1_dropShadow_346_219"/>
<feBlend mode="normal" in="SourceGraphic" in2="effect1_dropShadow_346_219" result="shape"/>
</filter>
<filter id="filter2_d_346_219" x="1118" y="371" width="89" height="89" filterUnits="userSpaceOnUse" color-interpolation-filters="sRGB">
<feFlood flood-opacity="0" result="BackgroundImageFix"/>
<feColorMatrix in="SourceAlpha" type="matrix" values="0 0 0 0 0 0 0 0 0 0 0 0 0 0 0 0 0 0 127 0" result="hardAlpha"/>
<feOffset dx="6" dy="6"/>
<feGaussianBlur stdDeviation="4"/>
<feComposite in2="hardAlpha" operator="out"/>
<feColorMatrix type="matrix" values="0 0 0 0 0 0 0 0 0 0 0 0 0 0 0 0 0 0 0.25 0"/>
<feBlend mode="normal" in2="BackgroundImageFix" result="effect1_dropShadow_346_219"/>
<feBlend mode="normal" in="SourceGraphic" in2="effect1_dropShadow_346_219" result="shape"/>
</filter>
<filter id="filter3_d_346_219" x="1073" y="330" width="89" height="89" filterUnits="userSpaceOnUse" color-interpolation-filters="sRGB">
<feFlood flood-opacity="0" result="BackgroundImageFix"/>
<feColorMatrix in="SourceAlpha" type="matrix" values="0 0 0 0 0 0 0 0 0 0 0 0 0 0 0 0 0 0 127 0" result="hardAlpha"/>
<feOffset dx="6" dy="6"/>
<feGaussianBlur stdDeviation="4"/>
<feComposite in2="hardAlpha" operator="out"/>
<feColorMatrix type="matrix" values="0 0 0 0 0 0 0 0 0 0 0 0 0 0 0 0 0 0 0.25 0"/>
<feBlend mode="normal" in2="BackgroundImageFix" result="effect1_dropShadow_346_219"/>
<feBlend mode="normal" in="SourceGraphic" in2="effect1_dropShadow_346_219" result="shape"/>
</filter>
<filter id="filter4_d_346_219" x="900" y="335" width="214" height="214" filterUnits="userSpaceOnUse" color-interpolation-filters="sRGB">
<feFlood flood-opacity="0" result="BackgroundImageFix"/>
<feColorMatrix in="SourceAlpha" type="matrix" values="0 0 0 0 0 0 0 0 0 0 0 0 0 0 0 0 0 0 127 0" result="hardAlpha"/>
<feOffset dx="6" dy="6"/>
<feGaussianBlur stdDeviation="4"/>
<feComposite in2="hardAlpha" operator="out"/>
<feColorMatrix type="matrix" values="0 0 0 0 0 0 0 0 0 0 0 0 0 0 0 0 0 0 0.25 0"/>
<feBlend mode="normal" in2="BackgroundImageFix" result="effect1_dropShadow_346_219"/>
<feBlend mode="normal" in="SourceGraphic" in2="effect1_dropShadow_346_219" result="shape"/>
</filter>
<filter id="filter5_d_346_219" x="1032" y="389" width="187" height="187" filterUnits="userSpaceOnUse" color-interpolation-filters="sRGB">
<feFlood flood-opacity="0" result="BackgroundImageFix"/>
<feColorMatrix in="SourceAlpha" type="matrix" values="0 0 0 0 0 0 0 0 0 0 0 0 0 0 0 0 0 0 127 0" result="hardAlpha"/>
<feOffset dx="6" dy="6"/>
<feGaussianBlur stdDeviation="4"/>
<feComposite in2="hardAlpha" operator="out"/>
<feColorMatrix type="matrix" values="0 0 0 0 0 0 0 0 0 0 0 0 0 0 0 0 0 0 0.25 0"/>
<feBlend mode="normal" in2="BackgroundImageFix" result="effect1_dropShadow_346_219"/>
<feBlend mode="normal" in="SourceGraphic" in2="effect1_dropShadow_346_219" result="shape"/>
</filter>
<linearGradient id="paint0_linear_346_219" x1="-241.499" y1="1113.5" x2="1663.88" y2="215.094" gradientUnits="userSpaceOnUse">
<stop offset="0.0337301" stop-color="#006A5B"/>
<stop offset="0.656265" stop-color="#006A5B"/>
<stop offset="1" stop-color="#74AA1B"/>
</linearGradient>
<linearGradient id="paint1_linear_346_219" x1="1037.47" y1="355.526" x2="954.684" y2="514.158" gradientUnits="userSpaceOnUse">
<stop stop-color="#FFA500"/>
<stop offset="1" stop-color="#F5C73D"/>
</linearGradient>
<linearGradient id="paint2_linear_346_219" x1="1213.5" y1="351" x2="1079.5" y2="544" gradientUnits="userSpaceOnUse">
<stop stop-color="#424445"/>
<stop offset="1" stop-color="#5B6F6C"/>
</linearGradient>
</defs>
</svg>
