<svg 
 xmlns="http://www.w3.org/2000/svg"
 xmlns:xlink="http://www.w3.org/1999/xlink"
 width="40px" height="29px">
<path fill-rule="evenodd"  fill="#ff1322"
 d="M24.421,27.619 C26.29,27.103 27.422,26.33 28.575,24.806 C30.494,22.802 35.936,17.597 35.936,17.597 C35.961,17.569 37.224,16.352 37.250,16.324 C37.491,16.98 38.484,14.789 38.975,13.504 C39.66,13.283 39.142,13.56 39.205,12.823 C39.215,12.789 39.223,12.756 39.232,12.722 C39.237,12.700 39.244,12.677 39.250,12.655 C39.296,12.477 39.338,12.296 39.374,12.113 L39.385,12.185 C39.457,11.764 39.505,11.337 39.525,10.907 C39.526,10.891 39.527,10.875 39.528,10.859 C39.532,10.773 39.533,10.688 39.535,10.602 C39.536,10.577 39.536,10.551 39.536,10.525 C39.549,9.167 39.282,7.806 38.632,6.606 C38.308,5.957 37.875,5.391 37.395,4.864 C37.289,4.745 37.180,4.629 37.67,4.516 C36.481,3.916 35.844,3.357 35.253,2.772 C34.637,2.211 34.82,1.574 33.417,1.68 L20.820,14.137 L6.965,0.903 C6.908,0.890 6.851,0.881 6.791,0.881 C5.508,2.165 4.238,3.467 2.997,4.793 C1.417,6.528 0.748,8.967 1.28,11.294 L1.43,11.298 C1.311,13.748 2.869,15.832 4.765,17.279 C6.865,19.455 9.122,21.472 11.263,23.607 C12.505,24.746 13.628,26.60 15.106,26.897 C15.946,27.375 16.834,27.806 17.788,27.988 C19.946,28.578 22.349,28.506 24.421,27.619 Z"/>
</svg>