<svg 
 xmlns="http://www.w3.org/2000/svg"
 xmlns:xlink="http://www.w3.org/1999/xlink"
 width="39px" height="28px">
<path fill-rule="evenodd"  fill="#317287"
 d="M15.330,1.260 C13.723,1.781 12.333,2.856 11.185,4.87 C9.273,6.97 3.849,11.321 3.849,11.321 C3.824,11.348 2.565,12.570 2.539,12.598 C2.299,12.825 1.310,14.137 0.824,15.423 C0.733,15.645 0.658,15.873 0.596,16.106 C0.586,16.139 0.578,16.173 0.569,16.207 C0.564,16.229 0.557,16.252 0.552,16.274 C0.506,16.452 0.464,16.633 0.429,16.816 L0.418,16.744 C0.347,17.165 0.301,17.593 0.282,18.23 C0.281,18.39 0.280,18.55 0.279,18.71 C0.276,18.156 0.275,18.242 0.273,18.328 C0.273,18.353 0.272,18.379 0.273,18.404 C0.264,19.763 0.535,21.122 1.190,22.321 C1.516,22.969 1.950,23.534 2.433,24.59 C2.539,24.177 2.648,24.292 2.761,24.405 C3.350,25.3 3.988,25.560 4.582,26.143 C5.200,26.703 5.757,27.337 6.424,27.841 L18.976,14.730 L32.876,27.917 C32.933,27.930 32.990,27.938 33.50,27.938 C34.328,26.650 35.594,25.343 36.831,24.13 C38.405,22.273 39.65,19.831 38.778,17.506 L38.762,17.502 C38.487,15.52 36.921,12.973 35.20,11.533 C32.913,9.364 30.650,7.355 28.501,5.227 C27.255,4.92 26.128,2.782 24.647,1.950 C23.805,1.475 22.915,1.47 21.961,0.869 C19.801,0.286 17.398,0.366 15.330,1.260 Z"/>
</svg>