<svg width="85" height="83" viewBox="0 0 85 83" fill="none" xmlns="http://www.w3.org/2000/svg">
<g id="Contenido" clip-path="url(#clip0_2059_121)">
<path id="Vector" d="M74.9099 24.3202C72.4044 24.3228 70.0022 25.3193 68.2306 27.0909C66.459 28.8626 65.4625 31.2647 65.4598 33.7701C65.4601 34.2758 65.5002 34.7808 65.5798 35.2802L50.8198 40.8802C50.1781 39.3036 49.1199 37.931 47.7583 36.9094C46.3967 35.8878 44.783 35.2555 43.0898 35.0802V18.8802C45.4959 18.6242 47.712 17.4549 49.2816 15.6135C50.8512 13.7721 51.6548 11.3988 51.5266 8.98254C51.3984 6.56633 50.3482 4.29133 48.5925 2.62634C46.8369 0.961359 44.5095 0.0332031 42.0898 0.0332031C39.6702 0.0332031 37.3428 0.961359 35.5872 2.62634C33.8315 4.29133 32.7813 6.56633 32.6531 8.98254C32.5249 11.3988 33.3285 13.7721 34.8981 15.6135C36.4677 17.4549 38.6838 18.6242 41.0898 18.8802V35.0802C39.3887 35.2556 37.7678 35.8923 36.402 36.9215C35.0362 37.9507 33.9774 39.3333 33.3398 40.9202L18.7599 35.3802C18.8507 34.8483 18.8976 34.3097 18.8999 33.7701C18.9092 31.4102 18.0387 29.1314 16.4585 27.3785C14.8783 25.6257 12.7017 24.5245 10.3534 24.2899C8.00508 24.0553 5.65359 24.704 3.75782 26.1096C1.86205 27.5152 0.558028 29.5768 0.100225 31.892C-0.357579 34.2071 0.0636157 36.6098 1.28174 38.6311C2.49987 40.6524 4.42748 42.1474 6.68836 42.8242C8.94924 43.501 11.3812 43.3112 13.5096 42.2916C15.6381 41.2721 17.3102 39.4961 18.1998 37.3102L32.7799 42.8402C32.6893 43.3755 32.6425 43.9173 32.6399 44.4602C32.6361 45.8409 32.938 47.2052 33.5242 48.4553C34.1103 49.7054 34.9661 50.8101 36.0299 51.6902L25.8999 64.5201C23.7085 63.4647 21.1957 63.2901 18.8793 64.0322C16.5629 64.7744 14.6193 66.3767 13.4492 68.5092C12.2791 70.6416 11.9714 73.1417 12.5897 75.4941C13.208 77.8466 14.7051 79.8723 16.7725 81.1538C18.8398 82.4353 21.3201 82.875 23.702 82.3823C26.084 81.8896 28.1862 80.5021 29.5756 78.5056C30.9649 76.5091 31.5355 74.0557 31.1698 71.651C30.8041 69.2463 29.5299 67.0734 27.6099 65.5802L37.6898 52.8102C39.0816 53.538 40.6319 53.9098 42.2024 53.8923C43.7729 53.8749 45.3146 53.4688 46.6898 52.7102L56.9298 65.7102C55.1946 67.105 54.0087 69.0687 53.5823 71.2538C53.1558 73.4389 53.5163 75.7044 54.5997 77.6493C55.6832 79.5942 57.4198 81.0931 59.5022 81.8806C61.5846 82.6681 63.8785 82.6934 65.9778 81.952C68.0771 81.2107 69.8463 79.7505 70.9724 77.83C72.0985 75.9094 72.5088 73.6525 72.1306 71.4585C71.7525 69.2645 70.6103 67.275 68.9063 65.8423C67.2022 64.4096 65.0462 63.626 62.8198 63.6302C61.3619 63.6393 59.9254 63.9813 58.6199 64.6302L48.3298 51.6302C49.5517 50.5599 50.4757 49.1914 51.012 47.6581C51.5482 46.1247 51.6785 44.4788 51.3899 42.8802L66.1199 37.2902C66.7459 38.892 67.7972 40.2926 69.1605 41.3411C70.5238 42.3895 72.1474 43.0461 73.8563 43.24C75.5652 43.4338 77.2946 43.1576 78.8582 42.4412C80.4217 41.7247 81.7601 40.5952 82.729 39.1743C83.698 37.7534 84.2608 36.095 84.3568 34.3778C84.4528 32.6606 84.0784 30.9498 83.2739 29.4297C82.4694 27.9096 81.2653 26.6379 79.7914 25.7516C78.3175 24.8653 76.6298 24.398 74.9099 24.4001V24.3202ZM21.8499 80.4402C20.3764 80.4402 18.936 80.0033 17.7108 79.1847C16.4857 78.3661 15.5308 77.2025 14.9669 75.8412C14.4031 74.4799 14.2555 72.9819 14.543 71.5367C14.8304 70.0916 15.54 68.7642 16.5819 67.7223C17.6238 66.6804 18.9513 65.9708 20.3965 65.6833C21.8416 65.3959 23.3395 65.5434 24.7008 66.1073C26.0621 66.6712 27.2257 67.6261 28.0443 68.8512C28.8629 70.0763 29.2998 71.5168 29.2998 72.9902C29.2972 74.9653 28.5114 76.8587 27.1149 78.2552C25.7183 79.6518 23.8249 80.4375 21.8499 80.4402ZM9.46985 41.1702C7.99638 41.1702 6.55596 40.7333 5.33082 39.9147C4.10567 39.0961 3.15079 37.9325 2.58692 36.5712C2.02305 35.2099 1.87551 33.7119 2.16297 32.2667C2.45043 30.8216 3.16001 29.4942 4.20191 28.4523C5.24381 27.4104 6.57133 26.7008 8.01648 26.4133C9.46164 26.1259 10.9595 26.2734 12.3208 26.8373C13.6821 27.4012 14.8457 28.356 15.6643 29.5812C16.4829 30.8063 16.9198 32.2467 16.9198 33.7202C16.9185 34.6999 16.7243 35.6696 16.3482 36.5742C15.972 37.4788 15.4214 38.3005 14.7278 38.9923C14.0341 39.6841 13.211 40.2325 12.3054 40.6062C11.3998 40.9799 10.4295 41.1715 9.44983 41.1702H9.46985ZM42.1099 2.00024C43.5833 2.00024 45.0238 2.43712 46.2489 3.25574C47.4741 4.07435 48.4289 5.23793 48.9928 6.59924C49.5567 7.96055 49.7042 9.45841 49.4168 10.9036C49.1293 12.3487 48.4197 13.6762 47.3778 14.7181C46.3359 15.76 45.0084 16.4696 43.5632 16.7571C42.1181 17.0445 40.6202 16.897 39.2589 16.3331C37.8976 15.7693 36.734 14.8144 35.9154 13.5892C35.0968 12.3641 34.6599 10.9237 34.6599 9.4502C34.6625 7.4786 35.4455 5.58826 36.8378 4.19226C38.23 2.79626 40.1183 2.00817 42.0898 2.00024H42.1099ZM42.1099 37.0002C43.5833 37.0002 45.0238 37.4371 46.2489 38.2557C47.4741 39.0744 48.4289 40.2379 48.9928 41.5992C49.5567 42.9606 49.7042 44.4584 49.4168 45.9036C49.1293 47.3487 48.4197 48.6762 47.3778 49.7181C46.3359 50.76 45.0084 51.4696 43.5632 51.7571C42.1181 52.0445 40.6202 51.897 39.2589 51.3331C37.8976 50.7693 36.734 49.8144 35.9154 48.5892C35.0968 47.3641 34.6599 45.9237 34.6599 44.4502C34.656 43.4705 34.8449 42.4997 35.2162 41.5931C35.5874 40.6865 36.1337 39.8619 36.8236 39.1664C37.5136 38.4709 38.3337 37.9181 39.2373 37.5396C40.1409 37.161 41.1102 36.9641 42.0898 36.9602L42.1099 37.0002ZM62.8398 80.4802C61.3664 80.4802 59.926 80.0432 58.7008 79.2246C57.4757 78.406 56.5208 77.2425 55.9569 75.8812C55.393 74.5199 55.2455 73.0219 55.533 71.5768C55.8204 70.1316 56.53 68.8041 57.5719 67.7622C58.6138 66.7203 59.9413 66.0108 61.3865 65.7234C62.8316 65.4359 64.3295 65.5835 65.6908 66.1473C67.0521 66.7112 68.2157 67.6661 69.0343 68.8912C69.8529 70.1164 70.2898 71.5567 70.2898 73.0302C70.2766 74.9965 69.4876 76.8782 68.0944 78.2659C66.7011 79.6535 64.8163 80.435 62.8499 80.4402L62.8398 80.4802ZM74.9298 26.3102C76.4033 26.3102 77.8437 26.7472 79.0689 27.5658C80.294 28.3844 81.2489 29.5479 81.8128 30.9092C82.3766 32.2705 82.5242 33.7685 82.2367 35.2136C81.9492 36.6588 81.2397 37.9862 80.1978 39.0281C79.1559 40.07 77.8285 40.7796 76.3833 41.067C74.9381 41.3545 73.4402 41.2069 72.0789 40.6431C70.7176 40.0792 69.554 39.1243 68.7354 37.8992C67.9167 36.674 67.4799 35.2336 67.4799 33.7601C67.4851 31.7903 68.2693 29.9025 69.6613 28.5087C71.0532 27.1148 72.9401 26.3281 74.9099 26.3202L74.9298 26.3102Z" fill="white"/>
</g>
<defs>
<clipPath id="clip0_2059_121">
<rect width="84.36" height="82.45" fill="white"/>
</clipPath>
</defs>
</svg>
