<svg width="176" height="24" viewBox="0 0 176 24" fill="none" xmlns="http://www.w3.org/2000/svg">
<path d="M51.8108 20.087C50.7158 20.087 49.7408 19.8395 48.8859 19.3445C48.0459 18.8346 47.3859 18.1446 46.9059 17.2746C46.4259 16.3896 46.1859 15.3771 46.1859 14.2372C46.1859 13.0822 46.4184 12.0622 46.8834 11.1773C47.3484 10.2923 48.0009 9.60229 48.8409 9.10731C49.6808 8.59732 50.6408 8.34233 51.7208 8.34233C52.8458 8.34233 53.8132 8.58232 54.6232 9.06231C55.4332 9.5273 56.0557 10.1798 56.4907 11.0198C56.9407 11.8597 57.1656 12.8647 57.1656 14.0347V14.8672L47.6259 14.8897L47.6709 13.1347H54.4432C54.4432 12.3697 54.1957 11.7547 53.7007 11.2898C53.2207 10.8248 52.5683 10.5923 51.7433 10.5923C51.0983 10.5923 50.5508 10.7273 50.1008 10.9973C49.6658 11.2673 49.3359 11.6722 49.1109 12.2122C48.8859 12.7522 48.7734 13.4122 48.7734 14.1922C48.7734 15.3921 49.0284 16.2996 49.5383 16.9146C50.0633 17.5296 50.8358 17.8371 51.8558 17.8371C52.6058 17.8371 53.2207 17.6946 53.7007 17.4096C54.1957 17.1246 54.5182 16.7196 54.6682 16.1946H57.2106C56.9707 17.4096 56.3707 18.3621 55.4107 19.052C54.4657 19.742 53.2658 20.087 51.8108 20.087Z" fill="#FF552E"/>
<path d="M62.1101 20.087C60.9401 20.087 60.0101 19.772 59.3201 19.142C58.6452 18.4971 58.3077 17.6571 58.3077 16.6221C58.3077 15.6021 58.6602 14.7922 59.3651 14.1922C60.0851 13.5772 61.1051 13.2172 62.4251 13.1122L65.755 12.8422V12.5947C65.755 12.0847 65.6575 11.6797 65.4625 11.3797C65.2825 11.0648 65.02 10.8398 64.675 10.7048C64.33 10.5548 63.925 10.4798 63.46 10.4798C62.6501 10.4798 62.0276 10.6448 61.5926 10.9748C61.1576 11.2898 60.9401 11.7397 60.9401 12.3247H58.6002C58.6002 11.5147 58.8027 10.8173 59.2076 10.2323C59.6276 9.63229 60.2126 9.1673 60.9626 8.83731C61.7276 8.50732 62.6051 8.34233 63.595 8.34233C64.6 8.34233 65.4625 8.52232 66.1825 8.88231C66.9024 9.2273 67.4574 9.75229 67.8474 10.4573C68.2374 11.1473 68.4324 12.0097 68.4324 13.0447V19.7945H66.025L65.8225 18.1521C65.5825 18.7221 65.1175 19.187 64.4275 19.547C63.7525 19.907 62.98 20.087 62.1101 20.087ZM62.9875 18.0171C63.8425 18.0171 64.5175 17.7771 65.0125 17.2971C65.5225 16.8171 65.7775 16.1496 65.7775 15.2946V14.7097L63.46 14.8897C62.6051 14.9647 61.9976 15.1446 61.6376 15.4296C61.2776 15.6996 61.0976 16.0596 61.0976 16.5096C61.0976 17.0046 61.2626 17.3796 61.5926 17.6346C61.9226 17.8896 62.3876 18.0171 62.9875 18.0171Z" fill="#FF552E"/>
<path d="M73.4239 19.7945H70.679V8.67982H73.1989L73.5364 10.6598L73.2214 10.3898C73.4464 9.84979 73.8589 9.3773 74.4589 8.97231C75.0589 8.55232 75.8089 8.34233 76.7089 8.34233C77.6838 8.34233 78.4788 8.59732 79.0938 9.10731C79.7238 9.61729 80.1588 10.2923 80.3988 11.1323H79.9488C80.1138 10.2923 80.5338 9.61729 81.2087 9.10731C81.8987 8.59732 82.7312 8.34233 83.7062 8.34233C85.0561 8.34233 86.0911 8.72482 86.8111 9.4898C87.5311 10.2398 87.8911 11.2523 87.8911 12.5272V19.7945H85.1686V13.2472C85.1686 12.4522 84.9661 11.8522 84.5611 11.4472C84.1712 11.0273 83.6462 10.8173 82.9862 10.8173C82.5662 10.8173 82.1762 10.9148 81.8162 11.1098C81.4712 11.3048 81.1937 11.5972 80.9837 11.9872C80.7738 12.3772 80.6688 12.8797 80.6688 13.4947V19.7945H77.9238V13.2247C77.9238 12.4447 77.7288 11.8522 77.3388 11.4472C76.9488 11.0423 76.4314 10.8398 75.7864 10.8398C75.3514 10.8398 74.9539 10.9373 74.5939 11.1323C74.2339 11.3123 73.9489 11.6047 73.7389 12.0097C73.5289 12.3997 73.4239 12.8947 73.4239 13.4947V19.7945Z" fill="#FF552E"/>
<path d="M89.4832 14.2147C89.4832 13.0747 89.7157 12.0622 90.1807 11.1773C90.6607 10.2923 91.3132 9.60229 92.1382 9.10731C92.9782 8.59732 93.9456 8.34233 95.0406 8.34233C96.5556 8.34233 97.793 8.73982 98.753 9.5348C99.728 10.3148 100.29 11.3722 100.44 12.7072H97.6955C97.5305 12.0772 97.223 11.6047 96.7731 11.2898C96.3381 10.9598 95.7906 10.7948 95.1306 10.7948C94.5606 10.7948 94.0506 10.9373 93.6006 11.2223C93.1656 11.4922 92.8282 11.8822 92.5882 12.3922C92.3482 12.9022 92.2282 13.5097 92.2282 14.2147C92.2282 14.9197 92.3407 15.5271 92.5657 16.0371C92.7907 16.5471 93.1132 16.9446 93.5331 17.2296C93.9681 17.4996 94.4781 17.6346 95.0631 17.6346C95.7531 17.6346 96.3231 17.4696 96.7731 17.1396C97.238 16.8096 97.5455 16.3371 97.6955 15.7221H100.463C100.343 16.5921 100.035 17.3571 99.5405 18.0171C99.0605 18.6621 98.438 19.172 97.673 19.547C96.9081 19.907 96.0381 20.087 95.0631 20.087C93.9381 20.087 92.9557 19.847 92.1157 19.367C91.2757 18.8721 90.6232 18.1896 90.1582 17.3196C89.7082 16.4346 89.4832 15.3996 89.4832 14.2147Z" fill="#551872"/>
<path d="M109.593 8.67982H112.338V19.7945H109.796L109.593 18.3096C109.263 18.8346 108.768 19.262 108.108 19.592C107.448 19.922 106.743 20.087 105.993 20.087C104.718 20.087 103.721 19.682 103.001 18.8721C102.281 18.0621 101.921 16.9821 101.921 15.6321V8.67982H104.666V14.6647C104.666 15.7146 104.868 16.4721 105.273 16.9371C105.678 17.4021 106.263 17.6346 107.028 17.6346C107.898 17.6346 108.543 17.3796 108.963 16.8696C109.383 16.3446 109.593 15.5571 109.593 14.5072V8.67982Z" fill="#551872"/>
<path d="M117.266 19.7945H114.723V3.05496H117.468V10.2998C117.828 9.66979 118.353 9.1898 119.043 8.85981C119.733 8.51482 120.506 8.34233 121.361 8.34233C122.426 8.34233 123.333 8.59732 124.083 9.10731C124.848 9.60229 125.433 10.2998 125.838 11.1998C126.258 12.0997 126.468 13.1422 126.468 14.3272C126.468 15.4521 126.251 16.4496 125.816 17.3196C125.381 18.1896 124.766 18.8721 123.971 19.367C123.176 19.847 122.246 20.087 121.181 20.087C120.356 20.087 119.606 19.907 118.931 19.547C118.271 19.187 117.776 18.6921 117.446 18.0621L117.266 19.7945ZM117.491 14.1922C117.491 14.8522 117.618 15.4446 117.873 15.9696C118.128 16.4796 118.488 16.8771 118.953 17.1621C119.433 17.4321 119.988 17.5671 120.618 17.5671C121.263 17.5671 121.818 17.4246 122.283 17.1396C122.748 16.8546 123.101 16.4571 123.341 15.9471C123.581 15.4371 123.701 14.8522 123.701 14.1922C123.701 13.5322 123.581 12.9472 123.341 12.4372C123.101 11.9272 122.748 11.5297 122.283 11.2448C121.818 10.9448 121.263 10.7948 120.618 10.7948C119.988 10.7948 119.433 10.9448 118.953 11.2448C118.488 11.5297 118.128 11.9272 117.873 12.4372C117.618 12.9322 117.491 13.5172 117.491 14.1922Z" fill="#551872"/>
<path d="M131.511 20.087C130.341 20.087 129.411 19.772 128.721 19.142C128.046 18.4971 127.709 17.6571 127.709 16.6221C127.709 15.6021 128.061 14.7922 128.766 14.1922C129.486 13.5772 130.506 13.2172 131.826 13.1122L135.156 12.8422V12.5947C135.156 12.0847 135.059 11.6797 134.864 11.3797C134.684 11.0648 134.421 10.8398 134.076 10.7048C133.731 10.5548 133.326 10.4798 132.861 10.4798C132.051 10.4798 131.429 10.6448 130.994 10.9748C130.559 11.2898 130.341 11.7397 130.341 12.3247H128.001C128.001 11.5147 128.204 10.8173 128.609 10.2323C129.029 9.63229 129.614 9.1673 130.364 8.83731C131.129 8.50732 132.006 8.34233 132.996 8.34233C134.001 8.34233 134.864 8.52232 135.583 8.88231C136.303 9.2273 136.858 9.75229 137.248 10.4573C137.638 11.1473 137.833 12.0097 137.833 13.0447V19.7945H135.426L135.224 18.1521C134.984 18.7221 134.519 19.187 133.829 19.547C133.154 19.907 132.381 20.087 131.511 20.087ZM132.389 18.0171C133.244 18.0171 133.919 17.7771 134.414 17.2971C134.924 16.8171 135.178 16.1496 135.178 15.2946V14.7097L132.861 14.8897C132.006 14.9647 131.399 15.1446 131.039 15.4296C130.679 15.6996 130.499 16.0596 130.499 16.5096C130.499 17.0046 130.664 17.3796 130.994 17.6346C131.324 17.8896 131.789 18.0171 132.389 18.0171Z" fill="#551872"/>
<path d="M138.824 8.67982H145.844V10.9748H138.824V8.67982ZM143.706 19.7945H140.961V5.21491H143.706V19.7945Z" fill="#551872"/>
<path d="M147.123 19.7945V8.67982H149.867V19.7945H147.123ZM148.473 6.45238C148.008 6.45238 147.61 6.29488 147.28 5.97989C146.965 5.6499 146.808 5.25241 146.808 4.78742C146.808 4.32243 146.965 3.93244 147.28 3.61745C147.61 3.30246 148.008 3.14496 148.473 3.14496C148.937 3.14496 149.327 3.30246 149.642 3.61745C149.972 3.93244 150.137 4.32243 150.137 4.78742C150.137 5.25241 149.972 5.6499 149.642 5.97989C149.327 6.29488 148.937 6.45238 148.473 6.45238Z" fill="#551872"/>
<path d="M151.601 14.2147C151.601 13.0597 151.856 12.0472 152.366 11.1773C152.876 10.2923 153.581 9.60229 154.481 9.10731C155.381 8.61232 156.401 8.36483 157.541 8.36483C158.696 8.36483 159.716 8.61232 160.601 9.10731C161.501 9.60229 162.206 10.2923 162.716 11.1773C163.226 12.0472 163.481 13.0597 163.481 14.2147C163.481 15.3696 163.226 16.3896 162.716 17.2746C162.206 18.1446 161.501 18.8271 160.601 19.322C159.716 19.817 158.696 20.0645 157.541 20.0645C156.401 20.0645 155.381 19.817 154.481 19.322C153.581 18.8271 152.876 18.1446 152.366 17.2746C151.856 16.3896 151.601 15.3696 151.601 14.2147ZM154.346 14.2147C154.346 14.8897 154.481 15.4821 154.751 15.9921C155.036 16.5021 155.411 16.8996 155.876 17.1846C156.356 17.4696 156.911 17.6121 157.541 17.6121C158.171 17.6121 158.726 17.4696 159.206 17.1846C159.686 16.8996 160.061 16.5021 160.331 15.9921C160.601 15.4821 160.736 14.8897 160.736 14.2147C160.736 13.5247 160.601 12.9322 160.331 12.4372C160.061 11.9272 159.686 11.5297 159.206 11.2448C158.726 10.9598 158.171 10.8173 157.541 10.8173C156.911 10.8173 156.356 10.9598 155.876 11.2448C155.411 11.5297 155.036 11.9272 154.751 12.4372C154.481 12.9322 154.346 13.5247 154.346 14.2147Z" fill="#551872"/>
<path d="M167.951 19.7945H165.206V8.67982H167.749L167.974 10.1198C168.319 9.56479 168.806 9.12981 169.436 8.81481C170.081 8.49982 170.779 8.34233 171.529 8.34233C172.924 8.34233 173.974 8.75482 174.679 9.57979C175.399 10.4048 175.759 11.5297 175.759 12.9547V19.7945H173.014V13.6072C173.014 12.6772 172.804 11.9872 172.384 11.5372C171.964 11.0723 171.394 10.8398 170.674 10.8398C169.819 10.8398 169.151 11.1098 168.671 11.6497C168.191 12.1897 167.951 12.9097 167.951 13.8097V19.7945Z" fill="#551872"/>
<path d="M38.2132 8.67493H40.3517V5.20834H43.0979V8.67493H45.2364V10.971H43.0979V17.5001H45.2364V19.796H42.5432C41.3332 19.796 40.3524 18.8152 40.3524 17.6052L40.3517 10.971H38.2132V8.67493Z" fill="#FF552E"/>
<path d="M7.73421 13.7428L12.3816 18.3901C13.6649 19.6735 13.6649 21.7542 12.3816 23.0375C11.0982 24.3208 9.01755 24.3208 7.73421 23.0375L6.57237 21.8757C4.64737 19.9507 4.64737 16.8296 6.57237 14.9046L7.73421 13.7428Z" fill="#FF552E"/>
<path d="M1.925 17.2283L8.89605 10.2572C10.1794 8.9739 10.1794 6.8932 8.89605 5.60987C7.61272 4.32653 5.53202 4.32653 4.24869 5.60987L1.925 7.93355C-0.641668 10.5002 -0.641667 14.6616 1.925 17.2283Z" fill="#FF552E"/>
<path d="M24 11.4191L18.1908 5.60987C16.9075 4.32653 16.9075 2.24584 18.1908 0.962501C19.4741 -0.320834 21.5548 -0.320834 22.8382 0.962502L24.5809 2.70526C26.8268 4.9511 26.8268 8.59232 24.5809 10.8382L24 11.4191Z" fill="#FF552E"/>
<path d="M29.8092 7.93355L19.3526 18.3901C18.0693 19.6735 18.0693 21.7542 19.3526 23.0375C20.636 24.3208 22.7167 24.3208 24 23.0375L29.8092 17.2283C32.3759 14.6616 32.3759 10.5002 29.8092 7.93355Z" fill="#FF552E"/>
</svg>
