<svg width="202" height="22" viewBox="0 0 202 22" fill="none" xmlns="http://www.w3.org/2000/svg">
<g clip-path="url(#clip0_871_2909)">
<path d="M55.1631 6.79019C51.6949 6.79019 49.1631 9.57791 49.1631 13.3738C49.2864 17.2384 51.2132 20.0299 55.2864 20.0299C58.1496 20.0299 60.1766 18.5024 60.743 15.7223H58.6698C58.2845 17.3606 57.0899 18.1931 55.3596 18.1931C52.5696 18.1931 51.3095 16.234 51.3866 14.0344H60.9396C61.0629 10.9756 59.6833 6.79019 55.1631 6.79019ZM51.3904 12.1976C51.5369 10.2653 52.8471 8.62702 55.0436 8.62702C56.0071 8.62485 56.9328 8.99794 57.6212 9.66586C58.3096 10.3338 58.7056 11.243 58.7238 12.1976H51.3904Z" fill="white"/>
<path d="M90.8095 6.78978C90.015 6.78352 89.2317 6.97626 88.5325 7.35012C87.8332 7.72398 87.2405 8.26683 86.8095 8.9283C86.2893 7.40079 84.8596 6.77451 83.3028 6.77451C82.4859 6.74732 81.6759 6.93168 80.9528 7.30938C80.2297 7.68708 79.6185 8.24507 79.1795 8.9283H79.1371V7.06856H77.1641V19.7355H79.2604V11.8535C79.2604 10.8988 80.1737 8.62662 82.667 8.62662C84.5436 8.62662 85.0639 9.79899 85.0639 11.4372V19.7355H87.1641V11.8535C87.1641 9.89828 88.4704 8.62662 90.4974 8.62662C92.5244 8.62662 92.9675 9.87155 92.9675 11.4372V19.7355H95.0639V10.4558C95.0562 7.83995 93.3529 6.78978 90.8095 6.78978Z" fill="white"/>
<path d="M103.287 18.1931C100.62 18.1931 99.5604 15.9018 99.5604 13.5685C99.5604 10.9985 100.497 8.62702 103.533 8.62702C105.264 8.62702 106.374 9.55499 106.697 11.1474H108.867C108.57 8.1344 106.25 6.79019 103.36 6.79019C99.3138 6.79019 97.3369 9.77648 97.3369 13.5685C97.3369 17.3606 99.4101 20.0299 103.314 20.0299C106.524 20.0299 108.474 18.1931 108.944 15.1113H106.794C106.524 17.0169 105.314 18.1931 103.287 18.1931Z" fill="white"/>
<path d="M119.662 14.2291C119.662 16.5204 118.425 18.193 115.881 18.193C114.278 18.193 113.292 17.1887 113.292 15.6497V7.0842H111.191V15.4206C111.191 18.1396 112.228 20.049 115.588 20.049C117.415 20.049 118.845 19.3119 119.735 17.7577H119.785V19.7664H121.762V7.0842H119.662V14.2291Z" fill="white"/>
<path d="M130.816 6.78978C129.063 6.78978 127.433 7.40079 126.739 8.79464H126.693V3.29178H124.608V19.7354H126.709V18.0437H126.755C127.695 19.5369 129.572 20.0295 130.882 20.0295C134.782 20.0295 136.709 17.0165 136.709 13.4459C136.709 9.87536 134.743 6.78978 130.816 6.78978ZM130.643 18.1927C127.753 18.1927 126.616 15.9014 126.616 13.3963C126.616 11.0248 127.703 8.62662 130.52 8.62662C133.217 8.62662 134.47 10.9179 134.47 13.297C134.47 15.7716 133.506 18.1927 130.643 18.1927Z" fill="white"/>
<path d="M164.694 7.07968H162.594V19.7313H164.694V7.07968Z" fill="white"/>
<path d="M164.694 3.29944H162.594V5.3654H164.694V3.29944Z" fill="white"/>
<path d="M173.349 6.79019C169.299 6.79019 167.152 9.70011 167.152 13.4196C167.152 17.1391 169.299 20.0299 173.349 20.0299C177.399 20.0299 179.549 17.1162 179.549 13.4196C179.549 9.72302 177.403 6.79019 173.349 6.79019ZM173.349 18.1931C171.152 18.1931 169.376 16.4784 169.376 13.4196C169.376 10.3608 171.152 8.62702 173.349 8.62702C175.545 8.62702 177.326 10.3378 177.326 13.4196C177.326 16.5014 175.545 18.1931 173.349 18.1931Z" fill="white"/>
<path d="M187.712 6.79019C185.885 6.79019 184.455 7.5234 183.565 9.08146H183.515V7.0766H181.538V19.7359H183.638V12.5909C183.638 10.2997 184.871 8.62702 187.415 8.62702C189.022 8.62702 190.008 9.62755 190.008 11.1703V19.7359H192.108V11.4147C192.108 8.69959 191.072 6.79019 187.712 6.79019Z" fill="white"/>
<path d="M43.3722 17.4821V8.92802H47.3414V7.09501H43.3722V3.30295H41.272V7.09501H39.0986V8.92802H41.272V18.0549C41.272 18.4975 41.4495 18.922 41.7653 19.2349C42.0811 19.5479 42.5094 19.7237 42.956 19.7237H47.7576V17.8983H43.7923C43.7371 17.8983 43.6825 17.8876 43.6315 17.8667C43.5806 17.8457 43.5343 17.8151 43.4953 17.7764C43.4563 17.7378 43.4253 17.6919 43.4042 17.6414C43.3831 17.5909 43.3722 17.5367 43.3722 17.4821Z" fill="white"/>
<path d="M155.599 17.4821V8.92802H159.568V7.09501H155.599V3.30295H153.51V7.09501H151.337V8.92802H153.51V18.0549C153.51 18.4975 153.688 18.922 154.004 19.2349C154.319 19.5479 154.748 19.7237 155.194 19.7237H159.984V17.8983H156.019C155.964 17.8983 155.909 17.8876 155.858 17.8667C155.807 17.8457 155.761 17.8151 155.722 17.7764C155.683 17.7378 155.652 17.6919 155.631 17.6414C155.61 17.5909 155.599 17.5367 155.599 17.4821Z" fill="white"/>
<path d="M73.5684 17.5401C73.5684 17.3224 73.5337 10.2653 73.5337 10.2653C73.5337 7.30191 71.0404 6.79019 68.7437 6.79019C65.9036 6.79019 63.4605 7.89 63.3487 11.0252H65.4451C65.5453 9.16165 66.8555 8.62702 68.632 8.62702C69.9653 8.62702 71.472 8.91726 71.472 10.7312C71.472 12.2969 69.4952 12.1479 67.1753 12.5909C65.0019 13.0072 62.8555 13.6182 62.8555 16.4784C62.8555 18.9988 64.7553 20.0299 67.0751 20.0299C67.8973 20.0555 68.7152 19.9038 69.4724 19.5853C70.2295 19.2668 70.9079 18.7892 71.4605 18.1854C71.4953 18.6015 71.6865 18.9894 71.9962 19.2723C72.306 19.5552 72.7117 19.7125 73.1329 19.7129H75.2293V17.8876H73.9691C73.9192 17.8941 73.8684 17.89 73.8202 17.8755C73.7719 17.861 73.7274 17.8365 73.6894 17.8036C73.6515 17.7708 73.6211 17.7302 73.6002 17.6848C73.5794 17.6393 73.5685 17.59 73.5684 17.5401ZM71.4297 15.329C71.4297 16.4746 70.2928 18.1931 67.526 18.1931C66.2428 18.1931 65.0559 17.7043 65.0559 16.3333C65.0559 14.8058 66.2428 14.3017 67.6262 14.0421C69.0096 13.7824 70.6127 13.7747 71.4297 13.1867V15.329Z" fill="white"/>
<path d="M149.148 17.5401C149.148 17.3224 149.114 10.2653 149.114 10.2653C149.114 7.30191 146.621 6.79019 144.324 6.79019C141.484 6.79019 139.037 7.89 138.929 11.0252H141.029C141.129 9.16165 142.436 8.62702 144.216 8.62702C145.549 8.62702 147.056 8.91726 147.056 10.7312C147.056 12.2969 145.079 12.1479 142.759 12.5909C140.586 13.0072 138.436 13.6182 138.436 16.4784C138.436 18.9988 140.339 20.0299 142.674 20.0299C143.497 20.0552 144.314 19.9034 145.072 19.5849C145.829 19.2665 146.507 18.789 147.06 18.1854C147.094 18.6011 147.284 18.989 147.593 19.272C147.902 19.555 148.308 19.7124 148.728 19.7129H150.813V17.8876H149.549C149.499 17.8947 149.448 17.8911 149.4 17.8769C149.351 17.8626 149.306 17.8382 149.268 17.8052C149.23 17.7721 149.2 17.7314 149.179 17.6856C149.158 17.6398 149.148 17.5902 149.148 17.5401ZM147.014 15.329C147.014 16.4746 145.877 18.1931 143.114 18.1931C141.831 18.1931 140.644 17.7043 140.644 16.3333C140.644 14.8058 141.831 14.3017 143.21 14.0421C144.59 13.7824 146.2 13.7747 147.014 13.1867V15.329Z" fill="white"/>
<path d="M202 20.1636H193.757V22.0005H202V20.1636Z" fill="white"/>
<path d="M7.46057 14.2749C7.22346 14.1135 7.02945 13.8975 6.8952 13.6454C6.76095 13.3933 6.69048 13.1126 6.68986 12.8276C6.68856 12.7902 6.67552 12.7542 6.65257 12.7246C6.62962 12.6949 6.59789 12.6731 6.56183 12.6621C6.52576 12.6512 6.48715 12.6517 6.45138 12.6636C6.41561 12.6754 6.38447 12.6981 6.3623 12.7283L4.43552 15.4282C4.00017 16.0443 3.82911 16.8064 3.95986 17.5473C4.09061 18.2882 4.5125 18.9475 5.13302 19.3806L7.03668 20.7172C7.34761 20.9375 7.69985 21.0939 8.07269 21.1773C8.44552 21.2607 8.83142 21.2694 9.2077 21.2029C9.58397 21.1364 9.94302 20.996 10.2637 20.7899C10.5845 20.5839 10.8604 20.3163 11.0752 20.0031L11.5839 19.2775C11.8558 18.892 11.9622 18.4153 11.8799 17.9521C11.7975 17.4889 11.5331 17.077 11.1446 16.8068L7.46057 14.2749Z" fill="white"/>
<path d="M8.93997 7.62993C9.17037 7.244 9.24596 6.78635 9.15173 6.34777C9.05751 5.90919 8.80035 5.52173 8.4313 5.26228C7.80881 4.83003 7.03859 4.66043 6.28996 4.79076C5.54133 4.92109 4.87556 5.34069 4.43901 5.9573L0.781971 11.1279C0.12871 12.0536 -0.127397 13.1982 0.0698238 14.3107C0.267045 15.4232 0.901488 16.4127 1.83399 17.0623L2.9207 17.8261C2.94987 17.8459 2.98424 17.8568 3.01958 17.8574C3.05492 17.8581 3.08969 17.8485 3.1196 17.8298C3.14951 17.8112 3.17325 17.7842 3.18789 17.7523C3.20253 17.7205 3.20744 17.685 3.20201 17.6504C3.10983 17.184 3.11315 16.704 3.21179 16.2389C3.31042 15.7738 3.50236 15.3331 3.77619 14.9429L8.93997 7.62993Z" fill="white"/>
<path d="M26.6356 5.10951L23.8918 3.20012C23.8608 3.17757 23.8233 3.16561 23.7848 3.16606C23.7464 3.16651 23.7091 3.17935 23.6787 3.20263C23.6482 3.22591 23.6262 3.25837 23.616 3.29511C23.6058 3.33186 23.608 3.3709 23.6221 3.40634C23.9634 4.29807 24.0796 5.25892 23.9607 6.20533C23.8419 7.15173 23.4915 8.05503 22.94 8.83665L16.1847 18.3836C15.9352 18.769 15.8452 19.235 15.9335 19.6845C16.0218 20.134 16.2815 20.5325 16.6587 20.7971L16.782 20.8811C17.3411 21.2712 17.9723 21.548 18.6395 21.6958C19.3068 21.8436 19.9969 21.8595 20.6703 21.7424C21.3438 21.6253 21.9872 21.3776 22.5639 21.0136C23.1405 20.6495 23.6389 20.1762 24.0306 19.6209L28.1809 13.7476C29.1302 12.3985 29.5007 10.7313 29.211 9.11185C28.9213 7.49237 27.9951 6.05296 26.6356 5.10951Z" fill="white"/>
<path d="M19.9186 11.0597C19.9177 11.0976 19.9292 11.1348 19.9513 11.1657C19.9735 11.1966 20.0052 11.2196 20.0416 11.2312C20.078 11.2428 20.1172 11.2424 20.1534 11.2301C20.1896 11.2177 20.2208 11.1942 20.2423 11.1628L22.2346 8.34076C22.625 7.78668 22.9013 7.16181 23.0479 6.50185C23.1945 5.84189 23.2084 5.15977 23.0889 4.49447C22.9694 3.82918 22.7187 3.19374 22.3513 2.62447C21.9839 2.0552 21.5069 1.56325 20.9475 1.17673L20.6123 0.92469C19.4838 0.14646 18.0899 -0.156692 16.7363 0.0816748C15.3826 0.320041 14.1795 1.08048 13.3907 2.19634L12.7934 3.04411C12.5225 3.42995 12.4166 3.90634 12.4989 4.36925C12.5812 4.83216 12.845 5.24401 13.2327 5.51486L19.1402 9.61242C19.3773 9.77434 19.5718 9.99029 19.7073 10.2421C19.8427 10.494 19.9152 10.7744 19.9186 11.0597Z" fill="white"/>
</g>
<defs>
<clipPath id="clip0_871_2909">
<rect width="202" height="22" fill="white"/>
</clipPath>
</defs>
</svg>
