<svg width="26" height="19" viewBox="0 0 26 19" fill="none" xmlns="http://www.w3.org/2000/svg">
<path d="M6.72017 12.4291C6.51418 12.2886 6.34562 12.1004 6.22899 11.8809C6.11236 11.6614 6.05114 11.417 6.0506 11.1687C6.04947 11.1362 6.03814 11.1048 6.0182 11.079C5.99826 11.0532 5.9707 11.0342 5.93936 11.0247C5.90803 11.0151 5.87449 11.0156 5.84341 11.0259C5.81234 11.0362 5.78528 11.0559 5.76602 11.0823L4.09209 13.4334C3.71386 13.97 3.56526 14.6336 3.67885 15.2788C3.79244 15.9241 4.15896 16.4982 4.69806 16.8754L6.3519 18.0393C6.62203 18.2312 6.92805 18.3674 7.25196 18.44C7.57587 18.5127 7.91113 18.5203 8.23803 18.4623C8.56492 18.4044 8.87686 18.2821 9.15549 18.1027C9.43412 17.9232 9.67381 17.6903 9.86048 17.4175L10.3024 16.7856C10.5386 16.4499 10.6311 16.0348 10.5596 15.6314C10.488 15.228 10.2583 14.8693 9.92074 14.634L6.72017 12.4291Z" fill="white"/>
<path d="M8.00475 6.64261C8.20492 6.30653 8.27059 5.90798 8.18873 5.52605C8.10687 5.14412 7.88346 4.8067 7.56284 4.58076C7.02204 4.20434 6.35289 4.05664 5.7025 4.17014C5.0521 4.28364 4.4737 4.64904 4.09444 5.18602L0.917302 9.68883C0.349765 10.4949 0.127266 11.4917 0.298607 12.4605C0.469947 13.4293 1.02113 14.2911 1.83127 14.8567L2.77537 15.5219C2.80071 15.5391 2.83057 15.5486 2.86128 15.5492C2.89198 15.5498 2.92219 15.5414 2.94817 15.5251C2.97416 15.5089 2.99478 15.4854 3.0075 15.4576C3.02022 15.4299 3.02449 15.399 3.01977 15.3689C2.93968 14.9627 2.94257 14.5447 3.02826 14.1397C3.11395 13.7346 3.2807 13.3508 3.5186 13.0111L8.00475 6.64261Z" fill="white"/>
<path d="M23.3772 4.44783L20.9936 2.78505C20.9666 2.7654 20.934 2.75499 20.9006 2.75538C20.8672 2.75578 20.8348 2.76696 20.8083 2.78723C20.7819 2.8075 20.7628 2.83577 20.7539 2.86777C20.7451 2.89977 20.7469 2.93377 20.7592 2.96463C21.0557 3.74119 21.1567 4.57794 21.0534 5.40211C20.9501 6.22628 20.6457 7.01291 20.1666 7.69358L14.2978 16.0075C14.081 16.3431 14.0028 16.7489 14.0795 17.1404C14.1562 17.5318 14.3819 17.8788 14.7096 18.1092L14.8167 18.1824C15.3024 18.5221 15.8508 18.7632 16.4305 18.8919C17.0102 19.0206 17.6097 19.0344 18.1948 18.9324C18.7798 18.8305 19.3389 18.6148 19.8398 18.2978C20.3408 17.9807 20.7738 17.5686 21.1141 17.085L24.7197 11.9702C25.5445 10.7954 25.8664 9.34354 25.6147 7.93323C25.363 6.52292 24.5583 5.26942 23.3772 4.44783Z" fill="white"/>
<path d="M17.542 9.62932C17.5412 9.66232 17.5511 9.6947 17.5704 9.72161C17.5897 9.74851 17.6172 9.76851 17.6488 9.77861C17.6804 9.78871 17.7145 9.78838 17.7459 9.77766C17.7774 9.76693 17.8045 9.7464 17.8232 9.71912L19.554 7.26153C19.8932 6.77901 20.1333 6.23485 20.2606 5.66012C20.388 5.0854 20.4001 4.49138 20.2962 3.91201C20.1924 3.33264 19.9746 2.77928 19.6554 2.28354C19.3362 1.78779 18.9218 1.35938 18.4358 1.02278L18.1446 0.803293C17.1642 0.125577 15.9533 -0.138421 14.7772 0.0691593C13.6012 0.276739 12.556 0.93896 11.8707 1.9107L11.3517 2.64898C11.1164 2.98498 11.0244 3.39984 11.0959 3.80297C11.1674 4.20609 11.3966 4.56474 11.7334 4.80061L16.8657 8.36894C17.0717 8.50995 17.2407 8.69801 17.3583 8.91733C17.476 9.13665 17.539 9.38081 17.542 9.62932Z" fill="white"/>
</svg>
