<svg width="330" height="50" viewBox="0 0 330 50" fill="none" xmlns="http://www.w3.org/2000/svg">
<path d="M62.5061 17.5099H66.5737V10.9167H71.7974V17.5099H75.865V21.8767H71.7974V34.2944H75.865V38.6611H70.7422C68.4408 38.6611 66.5751 36.7956 66.5751 34.4944L66.5737 21.8767H62.5061V17.5099Z" fill="#4B1FFC"/>
<path d="M88.37 39.2143C86.2873 39.2143 84.4328 38.7436 82.8066 37.8022C81.2089 36.8323 79.9535 35.52 79.0405 33.8654C78.1275 32.1822 77.6711 30.2566 77.6711 28.0885C77.6711 25.8919 78.1133 23.952 78.9977 22.2688C79.8822 20.5857 81.1233 19.2734 82.721 18.332C84.3187 17.362 86.1446 16.8771 88.1989 16.8771C90.3386 16.8771 92.1789 17.3335 93.7195 18.2464C95.2602 19.1308 96.4442 20.3717 97.2716 21.9693C98.1275 23.5668 98.5555 25.4782 98.5555 27.7034V29.2867L80.41 29.3295L80.4956 25.9917H93.3772C93.3772 24.5368 92.9064 23.3672 91.9649 22.4828C91.0519 21.5984 89.8108 21.1562 88.2416 21.1562C87.0148 21.1562 85.9735 21.413 85.1175 21.9265C84.2902 22.44 83.6625 23.2102 83.2345 24.2372C82.8066 25.2642 82.5926 26.5195 82.5926 28.0029C82.5926 30.2851 83.0776 32.0111 84.0476 33.1807C85.0462 34.3504 86.5155 34.9352 88.4556 34.9352C89.8822 34.9352 91.0519 34.6642 91.9649 34.1221C92.9064 33.5801 93.5198 32.8099 93.8051 31.8114H98.6411C98.1846 34.1221 97.0433 35.9336 95.2174 37.2459C93.42 38.5582 91.1375 39.2143 88.37 39.2143Z" fill="#4B1FFC"/>
<path d="M107.96 39.2143C105.735 39.2143 103.966 38.6153 102.653 37.4171C101.37 36.1904 100.728 34.5928 100.728 32.6244C100.728 30.6845 101.398 29.144 102.739 28.0029C104.109 26.8333 106.049 26.1486 108.559 25.9489L114.893 25.4354V24.9647C114.893 23.9948 114.708 23.2245 114.337 22.654C113.994 22.0549 113.495 21.627 112.839 21.3702C112.183 21.0849 111.412 20.9423 110.528 20.9423C108.987 20.9423 107.803 21.2561 106.976 21.8837C106.148 22.4828 105.735 23.3386 105.735 24.4512H101.284C101.284 22.9107 101.669 21.5842 102.44 20.4716C103.238 19.3305 104.351 18.4461 105.778 17.8185C107.233 17.1909 108.902 16.8771 110.785 16.8771C112.696 16.8771 114.337 17.2194 115.706 17.9041C117.076 18.5602 118.131 19.5587 118.873 20.8995C119.615 22.2118 119.986 23.8521 119.986 25.8205V38.6581H115.407L115.022 35.5343C114.565 36.6183 113.681 37.5027 112.368 38.1873C111.084 38.872 109.615 39.2143 107.96 39.2143ZM109.629 35.2775C111.255 35.2775 112.539 34.8211 113.481 33.9082C114.451 32.9953 114.936 31.7258 114.936 30.0997V28.9871L110.528 29.3295C108.902 29.4721 107.746 29.8144 107.061 30.3565C106.377 30.87 106.034 31.5546 106.034 32.4105C106.034 33.3519 106.348 34.0651 106.976 34.5501C107.604 35.035 108.488 35.2775 109.629 35.2775Z" fill="#4B1FFC"/>
<path d="M129.48 38.6581H124.259V17.519H129.052L129.694 21.2846L129.095 20.7711C129.523 19.7441 130.308 18.8455 131.449 18.0752C132.59 17.2765 134.017 16.8771 135.728 16.8771C137.583 16.8771 139.095 17.362 140.265 18.332C141.463 19.3019 142.29 20.5857 142.747 22.1832H141.891C142.205 20.5857 143.004 19.3019 144.288 18.332C145.6 17.362 147.183 16.8771 149.038 16.8771C151.606 16.8771 153.574 17.6045 154.944 19.0595C156.313 20.4858 156.998 22.4115 156.998 24.8363V38.6581H151.82V26.2057C151.82 24.6937 151.434 23.5526 150.664 22.7823C149.922 21.9836 148.924 21.5842 147.668 21.5842C146.87 21.5842 146.128 21.7696 145.443 22.1405C144.787 22.5113 144.259 23.0676 143.86 23.8093C143.46 24.5511 143.26 25.5067 143.26 26.6764V38.6581H138.039V26.1629C138.039 24.6794 137.668 23.5526 136.927 22.7823C136.185 22.0121 135.201 21.627 133.974 21.627C133.146 21.627 132.39 21.8124 131.706 22.1832C131.021 22.5256 130.479 23.0819 130.079 23.8521C129.68 24.5938 129.48 25.5353 129.48 26.6764V38.6581Z" fill="#4B1FFC"/>
<path d="M166.103 38.6581H161.267V6.82102H166.489V20.6C167.173 19.4018 168.172 18.4889 169.484 17.8613C170.797 17.2051 172.266 16.8771 173.892 16.8771C175.918 16.8771 177.644 17.362 179.071 18.332C180.526 19.2734 181.638 20.6 182.409 22.3116C183.208 24.0233 183.607 26.006 183.607 28.2597C183.607 30.3993 183.193 32.2964 182.366 33.951C181.538 35.6056 180.369 36.9036 178.857 37.845C177.344 38.7579 175.576 39.2143 173.55 39.2143C171.981 39.2143 170.554 38.872 169.27 38.1873C168.015 37.5027 167.073 36.5613 166.446 35.3631L166.103 38.6581ZM166.531 28.0029C166.531 29.2581 166.774 30.385 167.259 31.3835C167.744 32.3534 168.429 33.1094 169.313 33.6514C170.226 34.1649 171.282 34.4217 172.48 34.4217C173.707 34.4217 174.762 34.1507 175.647 33.6086C176.531 33.0666 177.202 32.3106 177.658 31.3407C178.115 30.3707 178.343 29.2581 178.343 28.0029C178.343 26.7477 178.115 25.6351 177.658 24.6652C177.202 23.6952 176.531 22.9392 175.647 22.3972C174.762 21.8267 173.707 21.5414 172.48 21.5414C171.282 21.5414 170.226 21.8267 169.313 22.3972C168.429 22.9392 167.744 23.6952 167.259 24.6652C166.774 25.6066 166.531 26.7192 166.531 28.0029Z" fill="#1D1B1B"/>
<path d="M185.667 28.0457C185.667 25.8491 186.152 23.9234 187.122 22.2688C188.092 20.5857 189.433 19.2734 191.145 18.332C192.857 17.3906 194.797 16.9199 196.965 16.9199C199.162 16.9199 201.102 17.3906 202.786 18.332C204.497 19.2734 205.838 20.5857 206.808 22.2688C207.778 23.9234 208.263 25.8491 208.263 28.0457C208.263 30.2424 207.778 32.1822 206.808 33.8654C205.838 35.52 204.497 36.818 202.786 37.7594C201.102 38.7008 199.162 39.1716 196.965 39.1716C194.797 39.1716 192.857 38.7008 191.145 37.7594C189.433 36.818 188.092 35.52 187.122 33.8654C186.152 32.1822 185.667 30.2424 185.667 28.0457ZM190.888 28.0457C190.888 29.3295 191.145 30.4563 191.659 31.4263C192.201 32.3962 192.914 33.1522 193.798 33.6942C194.711 34.2362 195.767 34.5073 196.965 34.5073C198.164 34.5073 199.219 34.2362 200.132 33.6942C201.045 33.1522 201.758 32.3962 202.272 31.4263C202.786 30.4563 203.042 29.3295 203.042 28.0457C203.042 26.7334 202.786 25.6066 202.272 24.6652C201.758 23.6952 201.045 22.9392 200.132 22.3972C199.219 21.8552 198.164 21.5842 196.965 21.5842C195.767 21.5842 194.711 21.8552 193.798 22.3972C192.914 22.9392 192.201 23.6952 191.659 24.6652C191.145 25.6066 190.888 26.7334 190.888 28.0457Z" fill="#1D1B1B"/>
<path d="M217.837 39.2143C215.612 39.2143 213.843 38.6153 212.53 37.4171C211.246 36.1904 210.604 34.5928 210.604 32.6244C210.604 30.6845 211.275 29.144 212.616 28.0029C213.985 26.8333 215.925 26.1486 218.436 25.9489L224.77 25.4354V24.9647C224.77 23.9948 224.584 23.2245 224.214 22.654C223.871 22.0549 223.372 21.627 222.716 21.3702C222.06 21.0849 221.289 20.9423 220.405 20.9423C218.864 20.9423 217.68 21.2561 216.853 21.8837C216.025 22.4828 215.612 23.3386 215.612 24.4512H211.161C211.161 22.9107 211.546 21.5842 212.316 20.4716C213.115 19.3305 214.228 18.4461 215.654 17.8185C217.109 17.1909 218.778 16.8771 220.662 16.8771C222.573 16.8771 224.214 17.2194 225.583 17.9041C226.953 18.5602 228.008 19.5587 228.75 20.8995C229.492 22.2118 229.863 23.8521 229.863 25.8205V38.6581H225.283L224.898 35.5343C224.442 36.6183 223.557 37.5027 222.245 38.1873C220.961 38.872 219.492 39.2143 217.837 39.2143ZM219.506 35.2775C221.132 35.2775 222.416 34.8211 223.358 33.9082C224.328 32.9953 224.813 31.7258 224.813 30.0997V28.9871L220.405 29.3295C218.779 29.4721 217.623 29.8144 216.938 30.3565C216.254 30.87 215.911 31.5546 215.911 32.4105C215.911 33.3519 216.225 34.0651 216.853 34.5501C217.48 35.035 218.365 35.2775 219.506 35.2775Z" fill="#1D1B1B"/>
<path d="M247.403 17.4334V22.2688H245.477C243.565 22.2688 242.067 22.7823 240.983 23.8093C239.899 24.8078 239.357 26.334 239.357 28.388V38.6581H234.136V17.5617H239.057L239.485 21.9265H238.972C239.257 20.5286 239.928 19.3875 240.983 18.5032C242.039 17.6188 243.408 17.1766 245.092 17.1766C245.463 17.1766 245.833 17.1909 246.204 17.2194C246.575 17.2479 246.975 17.3193 247.403 17.4334Z" fill="#1D1B1B"/>
<path d="M258.058 39.2143C256.004 39.2143 254.235 38.7579 252.751 37.845C251.296 36.9036 250.155 35.6056 249.327 33.951C248.529 32.2964 248.129 30.3707 248.129 28.1741C248.129 25.9774 248.529 24.0376 249.327 22.3544C250.155 20.6427 251.339 19.3019 252.879 18.332C254.42 17.362 256.246 16.8771 258.357 16.8771C259.841 16.8771 261.196 17.1766 262.423 17.7757C263.65 18.3463 264.591 19.1593 265.247 20.2148V6.82102H270.426V38.6581H265.633L265.29 35.3631C264.663 36.5613 263.693 37.5027 262.38 38.1873C261.096 38.872 259.655 39.2143 258.058 39.2143ZM259.213 34.4217C260.44 34.4217 261.496 34.1649 262.38 33.6514C263.265 33.1094 263.949 32.3534 264.434 31.3835C264.948 30.385 265.205 29.2581 265.205 28.0029C265.205 26.7192 264.948 25.6066 264.434 24.6652C263.949 23.6952 263.265 22.9392 262.38 22.3972C261.496 21.8267 260.44 21.5414 259.213 21.5414C258.015 21.5414 256.974 21.8267 256.089 22.3972C255.205 22.9392 254.52 23.6952 254.035 24.6652C253.578 25.6351 253.35 26.7477 253.35 28.0029C253.35 29.2581 253.578 30.3707 254.035 31.3407C254.52 32.3106 255.205 33.0666 256.089 33.6086C256.974 34.1507 258.015 34.4217 259.213 34.4217Z" fill="#1D1B1B"/>
<path d="M275.011 38.6581V17.519H280.232V38.6581H275.011ZM277.579 13.2826C276.694 13.2826 275.938 12.983 275.311 12.3839C274.711 11.7563 274.412 11.0003 274.412 10.116C274.412 9.23162 274.711 8.4899 275.311 7.89082C275.938 7.29173 276.694 6.99219 277.579 6.99219C278.463 6.99219 279.205 7.29173 279.804 7.89082C280.432 8.4899 280.746 9.23162 280.746 10.116C280.746 11.0003 280.432 11.7563 279.804 12.3839C279.205 12.983 278.463 13.2826 277.579 13.2826Z" fill="#1D1B1B"/>
<path d="M289.992 38.6581H284.77V17.519H289.606L290.034 20.2576C290.691 19.2021 291.618 18.3748 292.816 17.7757C294.043 17.1766 295.37 16.8771 296.796 16.8771C299.449 16.8771 301.447 17.6616 302.788 19.2306C304.157 20.7996 304.842 22.9392 304.842 25.6494V38.6581H299.621V26.8903C299.621 25.1216 299.221 23.8093 298.422 22.9535C297.623 22.0691 296.539 21.627 295.17 21.627C293.544 21.627 292.274 22.1405 291.361 23.1675C290.448 24.1945 289.992 25.5638 289.992 27.2755V38.6581Z" fill="#1D1B1B"/>
<path d="M307.917 27.6178C307.917 25.5638 308.331 23.738 309.158 22.1405C310.014 20.5144 311.198 19.2306 312.71 18.2892C314.223 17.3478 315.977 16.8771 317.974 16.8771C319.772 16.8771 321.312 17.2765 322.596 18.0752C323.88 18.8455 324.779 19.9296 325.292 21.3274L324.736 21.7981L325.164 17.519H330V37.5883C330 39.9275 329.544 41.953 328.631 43.6647C327.746 45.4049 326.477 46.7314 324.822 47.6443C323.195 48.5857 321.227 49.0564 318.916 49.0564C315.892 49.0564 313.409 48.2434 311.469 46.6173C309.529 44.9912 308.388 42.7661 308.046 39.9418H313.267C313.438 41.3111 314.009 42.3809 314.979 43.1512C315.977 43.9214 317.29 44.3066 318.916 44.3066C320.713 44.3066 322.14 43.7788 323.195 42.7233C324.28 41.6963 324.822 40.2984 324.822 38.5297V33.2663L325.421 33.8226C324.907 35.1634 323.966 36.2332 322.596 37.032C321.227 37.8307 319.643 38.2301 317.846 38.2301C315.849 38.2301 314.108 37.7737 312.625 36.8608C311.141 35.9479 309.986 34.6927 309.158 33.0951C308.331 31.4976 307.917 29.6718 307.917 27.6178ZM313.181 27.4894C313.181 28.6876 313.409 29.7574 313.866 30.6988C314.351 31.6117 315.021 32.3391 315.877 32.8812C316.733 33.4232 317.732 33.6942 318.873 33.6942C320.071 33.6942 321.098 33.4375 321.954 32.924C322.839 32.3819 323.509 31.6545 323.966 30.7416C324.451 29.8002 324.693 28.7161 324.693 27.4894C324.693 26.2627 324.465 25.2072 324.009 24.3228C323.552 23.4099 322.882 22.6967 321.997 22.1832C321.141 21.6697 320.1 21.413 318.873 21.413C317.703 21.413 316.691 21.684 315.835 22.226C314.979 22.7395 314.322 23.4527 313.866 24.3656C313.409 25.2785 313.181 26.3198 313.181 27.4894Z" fill="#1D1B1B"/>
<path d="M31.2531 15.625V6.24999C31.2531 2.79822 28.4546 1.50882e-07 25.0024 0C21.5503 -1.50882e-07 18.7518 2.79822 18.7518 6.25V7.8125C18.7518 12.1272 22.25 15.625 26.5651 15.625H31.2531Z" fill="#4B1FFC"/>
<path d="M18.7518 34.375V43.75C18.7518 47.2018 21.5503 50 25.0024 50C28.4545 50 31.253 47.2018 31.253 43.75V42.1875C31.253 37.8728 27.7549 34.375 23.4398 34.375H18.7518Z" fill="#4B1FFC"/>
<path d="M25.0024 18.75H43.7543C47.2064 18.75 50.0049 21.5482 50.0049 25C50.0049 28.4518 47.2064 31.25 43.7543 31.25H37.5037C30.5994 31.25 25.0024 25.6535 25.0024 18.75Z" fill="#4B1FFC"/>
<path d="M25.0024 31.25H6.25061C2.7985 31.25 0 28.4518 0 25C0 21.5482 2.79849 18.75 6.25061 18.75H12.5012C19.4054 18.75 25.0024 24.3465 25.0024 31.25Z" fill="#4B1FFC"/>
</svg>
