<svg width="131" height="92" viewBox="0 0 131 92" fill="none" xmlns="http://www.w3.org/2000/svg">
<path d="M28.4717 55.494L50.0291 25.9944C50.0291 25.9944 45.9446 22.931 41.4062 19.6407C36.8678 16.3503 27.4506 15.1023 20.3026 23.2714C20.3026 23.2714 14.9766 30.6463 6.2335 42.1057C-2.50957 53.5652 1.21435 64.812 6.46054 69.9034C11.7067 74.9949 24.1601 83.859 24.1601 83.859C14.4026 72.3995 22.7987 63.2093 24.6141 60.7132L28.4717 55.494Z" stroke="#423B3B" stroke-width="2"/>
<path d="M48.8944 85.4475C48.8944 85.4475 53.1781 80.6767 55.702 76.3707L28.2447 55.8345C25.9755 59.0114 22.6852 63.0959 22.6852 63.0959C10.4313 82.0437 37.3215 98.2685 48.8944 85.4475Z" stroke="#423B3B" stroke-width="2"/>
<path d="M95.924 43.0991L69.6248 78.9899C69.6248 78.9899 74.5942 82.727 80.1159 86.7411C85.6376 90.7553 97.104 92.29 105.822 82.3528C105.822 82.3528 112.319 73.38 122.985 59.4384C133.65 45.4968 129.133 31.7945 122.752 25.5858C116.371 19.3772 101.219 8.56279 101.219 8.56279C113.084 22.5335 102.845 33.7123 100.63 36.7492L95.924 43.0991Z" stroke="#423B3B" stroke-width="2"/>
<path d="M71.0997 6.58931C71.0997 6.58931 65.8754 12.3925 62.795 17.6324L96.2005 42.6849C98.969 38.8197 102.982 33.8506 102.982 33.8506C117.935 10.795 85.2135 -9.006 71.0997 6.58931Z" stroke="#423B3B" stroke-width="2"/>
</svg>
