<svg width="32" height="31" viewBox="0 0 32 31" fill="none" xmlns="http://www.w3.org/2000/svg">
<path d="M15.9681 7.25832C17.6348 7.25832 18.986 5.92173 18.986 4.27296C18.986 2.62419 17.6348 1.2876 15.9681 1.2876C14.3013 1.2876 12.9502 2.62419 12.9502 4.27296C12.9502 5.92173 14.3013 7.25832 15.9681 7.25832Z" stroke="white" stroke-width="1.5" stroke-miterlimit="10" stroke-linecap="round"/>
<path d="M15.9681 19.6126C17.6348 19.6126 18.986 18.276 18.986 16.6272C18.986 14.9784 17.6348 13.6418 15.9681 13.6418C14.3013 13.6418 12.9502 14.9784 12.9502 16.6272C12.9502 18.276 14.3013 19.6126 15.9681 19.6126Z" stroke="white" stroke-width="1.5" stroke-miterlimit="10" stroke-linecap="round"/>
<path d="M4.30889 15.8325C5.97562 15.8325 7.32677 14.496 7.32677 12.8472C7.32677 11.1984 5.97562 9.86182 4.30889 9.86182C2.64217 9.86182 1.29102 11.1984 1.29102 12.8472C1.29102 14.496 2.64217 15.8325 4.30889 15.8325Z" stroke="white" stroke-width="1.5" stroke-miterlimit="10" stroke-linecap="round"/>
<path d="M27.6917 15.8325C29.3584 15.8325 30.7096 14.496 30.7096 12.8472C30.7096 11.1984 29.3584 9.86182 27.6917 9.86182C26.025 9.86182 24.6738 11.1984 24.6738 12.8472C24.6738 14.496 26.025 15.8325 27.6917 15.8325Z" stroke="white" stroke-width="1.5" stroke-miterlimit="10" stroke-linecap="round"/>
<path d="M23.3714 29.7124C25.0381 29.7124 26.3893 28.3758 26.3893 26.7271C26.3893 25.0783 25.0381 23.7417 23.3714 23.7417C21.7047 23.7417 20.3535 25.0783 20.3535 26.7271C20.3535 28.3758 21.7047 29.7124 23.3714 29.7124Z" stroke="white" stroke-width="1.5" stroke-miterlimit="10" stroke-linecap="round"/>
<path d="M8.72784 29.7124C10.3946 29.7124 11.7457 28.3758 11.7457 26.7271C11.7457 25.0783 10.3946 23.7417 8.72784 23.7417C7.06111 23.7417 5.70996 25.0783 5.70996 26.7271C5.70996 28.3758 7.06111 29.7124 8.72784 29.7124Z" stroke="white" stroke-width="1.5" stroke-miterlimit="10" stroke-linecap="round"/>
<path d="M15.9678 13.6417V7.2583" stroke="white" stroke-width="1.5" stroke-miterlimit="10" stroke-linecap="round"/>
<path d="M14.3059 19.1196L10.2773 24.166" stroke="white" stroke-width="1.5" stroke-miterlimit="10" stroke-linecap="round"/>
<path d="M17.7461 19.1409L21.7747 24.1849" stroke="white" stroke-width="1.5" stroke-miterlimit="10" stroke-linecap="round"/>
<path d="M13.0595 15.8349L7.2168 13.6418" stroke="white" stroke-width="1.5" stroke-miterlimit="10" stroke-linecap="round"/>
<path d="M19.0645 15.7453L24.6735 13.6418" stroke="white" stroke-width="1.5" stroke-miterlimit="10" stroke-linecap="round"/>
</svg>
