<svg width="35" height="31" viewBox="0 0 35 31" fill="none" xmlns="http://www.w3.org/2000/svg">
<g id="Contenido">
<path id="Vector" d="M33.3072 10.5039L17.8281 18.3603C17.7245 18.4121 17.61 18.4391 17.4939 18.4391C17.3778 18.4391 17.2633 18.4121 17.1597 18.3603L1.68063 10.5039C1.56422 10.4416 1.46705 10.3496 1.39934 10.2376C1.33163 10.1256 1.2959 9.99768 1.2959 9.86737C1.2959 9.73705 1.33163 9.60914 1.39934 9.49712C1.46705 9.38509 1.56422 9.29308 1.68063 9.23078L17.1597 1.3744C17.2633 1.32264 17.3778 1.29565 17.4939 1.29565C17.61 1.29565 17.7245 1.32264 17.8281 1.3744L33.3072 9.23078C33.4236 9.29308 33.5207 9.38509 33.5885 9.49712C33.6562 9.60914 33.6919 9.73705 33.6919 9.86737C33.6919 9.99768 33.6562 10.1256 33.5885 10.2376C33.5207 10.3496 33.4236 10.4416 33.3072 10.5039Z" stroke="white" stroke-miterlimit="10" stroke-linecap="round"/>
<path id="Vector_2" d="M29.0885 12.7194L33.3072 14.8622C33.4236 14.9245 33.5207 15.0165 33.5885 15.1286C33.6562 15.2406 33.6919 15.3685 33.6919 15.4988C33.6919 15.6291 33.6562 15.757 33.5885 15.8691C33.5207 15.9811 33.4236 16.0731 33.3072 16.1354L17.8281 23.9918C17.7245 24.0435 17.61 24.0705 17.4939 24.0705C17.3778 24.0705 17.2633 24.0435 17.1597 23.9918L1.68063 16.1354C1.56422 16.0731 1.46705 15.9811 1.39934 15.8691C1.33163 15.757 1.2959 15.6291 1.2959 15.4988C1.2959 15.3685 1.33163 15.2406 1.39934 15.1286C1.46705 15.0165 1.56422 14.9245 1.68063 14.8622L5.92387 12.7073" stroke="white" stroke-miterlimit="10" stroke-linecap="round"/>
<path id="Vector_3" d="M29.012 18.3169L33.3069 20.4912C33.4227 20.5537 33.5193 20.6456 33.5866 20.7574C33.6539 20.8692 33.6894 20.9967 33.6894 21.1265C33.6894 21.2564 33.6539 21.3839 33.5866 21.4957C33.5193 21.6075 33.4227 21.6994 33.3069 21.7619L17.8278 29.6207C17.7242 29.6725 17.6097 29.6995 17.4936 29.6995C17.3775 29.6995 17.263 29.6725 17.1595 29.6207L1.68033 21.7619C1.56453 21.6994 1.46792 21.6075 1.40064 21.4957C1.33335 21.3839 1.29785 21.2564 1.29785 21.1265C1.29785 20.9967 1.33335 20.8692 1.40064 20.7574C1.46792 20.6456 1.56453 20.5537 1.68033 20.4912L5.94569 18.3483" stroke="white" stroke-miterlimit="10" stroke-linecap="round"/>
</g>
</svg>
