<svg width="31" height="30" viewBox="0 0 31 30" fill="none" xmlns="http://www.w3.org/2000/svg">
<g id="Contenido">
<path id="Vector" d="M1.29492 10.2347V3.50641C1.29492 2.91673 1.53819 2.35117 1.97127 1.93398C2.40434 1.51679 2.99179 1.28211 3.60457 1.28149H10.5964" stroke="white" stroke-miterlimit="10" stroke-linecap="round"/>
<path id="Vector_2" d="M2.02344 1.98438L10.2608 9.91123" stroke="white" stroke-miterlimit="10" stroke-linecap="round"/>
<path id="Vector_3" d="M29.7077 10.2347V3.50641C29.7077 2.91673 29.4645 2.35117 29.0314 1.93398C28.5983 1.51679 28.0108 1.28211 27.3981 1.28149H20.4062" stroke="white" stroke-miterlimit="10" stroke-linecap="round"/>
<path id="Vector_4" d="M29.0298 1.93555L20.7393 9.91128" stroke="white" stroke-miterlimit="10" stroke-linecap="round"/>
<path id="Vector_5" d="M1.29492 19.7651V26.4934C1.29556 27.0827 1.5391 27.6477 1.97211 28.0644C2.40511 28.481 2.99221 28.7154 3.60457 28.716H10.5964" stroke="white" stroke-miterlimit="10" stroke-linecap="round"/>
<path id="Vector_6" d="M1.97754 28.0597L10.2608 20.0886" stroke="white" stroke-miterlimit="10" stroke-linecap="round"/>
<path id="Vector_7" d="M29.7077 19.7651V26.4934C29.7071 27.0827 29.4635 27.6477 29.0305 28.0644C28.5975 28.481 28.0104 28.7154 27.3981 28.716H20.4062" stroke="white" stroke-miterlimit="10" stroke-linecap="round"/>
<path id="Vector_8" d="M29.0298 28.0644L20.7393 20.0886" stroke="white" stroke-miterlimit="10" stroke-linecap="round"/>
<path id="Vector_9" d="M15.4581 22.1345C19.4358 22.1345 22.6603 19.0315 22.6603 15.2037C22.6603 11.376 19.4358 8.27295 15.4581 8.27295C11.4804 8.27295 8.25586 11.376 8.25586 15.2037C8.25586 19.0315 11.4804 22.1345 15.4581 22.1345Z" stroke="white" stroke-miterlimit="10" stroke-linecap="round"/>
</g>
</svg>
