<svg width="33" height="33" viewBox="0 0 33 33" fill="none" xmlns="http://www.w3.org/2000/svg">
<g id="Contenido" clip-path="url(#clip0_313_1456)">
<path id="Vector" d="M16.4972 10.4837C16.4132 10.4837 16.3327 10.4503 16.2734 10.391C16.214 10.3316 16.1807 10.2511 16.1807 10.1672V0.308689C16.1807 0.224746 16.214 0.14424 16.2734 0.0848832C16.3327 0.0255262 16.4132 -0.0078125 16.4972 -0.0078125C16.5811 -0.0078125 16.6616 0.0255262 16.721 0.0848832C16.7803 0.14424 16.8137 0.224746 16.8137 0.308689V10.1672C16.8137 10.2511 16.7803 10.3316 16.721 10.391C16.6616 10.4503 16.5811 10.4837 16.4972 10.4837Z" fill="white"/>
<path id="Vector_2" d="M12.0219 12.3388C11.9804 12.3387 11.9393 12.3305 11.901 12.3144C11.8627 12.2984 11.8279 12.2749 11.7988 12.2454L4.82258 5.27181C4.79309 5.24262 4.76968 5.20788 4.7537 5.16958C4.73772 5.13128 4.72949 5.09019 4.72949 5.0487C4.72949 5.0072 4.73772 4.96611 4.7537 4.92782C4.76968 4.88952 4.79309 4.85478 4.82258 4.82559C4.88221 4.76728 4.96229 4.73462 5.04569 4.73462C5.12909 4.73462 5.20918 4.76728 5.2688 4.82559L12.2346 11.7914C12.2929 11.851 12.3256 11.9311 12.3256 12.0145C12.3256 12.0979 12.2929 12.178 12.2346 12.2376C12.1795 12.2977 12.1032 12.334 12.0219 12.3388Z" fill="white"/>
<path id="Vector_3" d="M10.1675 16.8165H0.308998C0.2652 16.8205 0.221055 16.8153 0.179376 16.8013C0.137697 16.7873 0.0994075 16.7647 0.0669345 16.735C0.0344616 16.7054 0.00853116 16.6693 -0.00921401 16.629C-0.0269592 16.5888 -0.0361328 16.5453 -0.0361328 16.5013C-0.0361328 16.4573 -0.0269592 16.4138 -0.00921401 16.3736C0.00853116 16.3334 0.0344616 16.2973 0.0669345 16.2676C0.0994075 16.238 0.137697 16.2154 0.179376 16.2014C0.221055 16.1873 0.2652 16.1821 0.308998 16.1861H10.1675C10.2113 16.1821 10.2554 16.1873 10.2971 16.2014C10.3388 16.2154 10.3771 16.238 10.4096 16.2676C10.442 16.2973 10.468 16.3334 10.4857 16.3736C10.5035 16.4138 10.5126 16.4573 10.5126 16.5013C10.5126 16.5453 10.5035 16.5888 10.4857 16.629C10.468 16.6693 10.442 16.7054 10.4096 16.735C10.3771 16.7647 10.3388 16.7873 10.2971 16.8013C10.2554 16.8153 10.2113 16.8205 10.1675 16.8165Z" fill="white"/>
<path id="Vector_4" d="M5.05634 28.2601C4.99394 28.2599 4.93301 28.2412 4.88121 28.2064C4.82942 28.1716 4.78906 28.1222 4.76522 28.0646C4.74138 28.0069 4.73512 27.9435 4.74722 27.8823C4.75932 27.821 4.78923 27.7648 4.83322 27.7205L11.799 20.7547C11.8589 20.6975 11.9389 20.666 12.0218 20.667C12.1046 20.6681 12.1837 20.7016 12.2422 20.7603C12.3006 20.8191 12.3336 20.8985 12.3342 20.9813C12.3348 21.0642 12.3029 21.144 12.2452 21.2035L5.27945 28.1667C5.25029 28.1963 5.21555 28.2198 5.17725 28.2358C5.13896 28.2518 5.09786 28.2601 5.05634 28.2601Z" fill="white"/>
<path id="Vector_5" d="M16.4972 33.0001C16.4132 33.0001 16.3327 32.9667 16.2734 32.9073C16.214 32.848 16.1807 32.7675 16.1807 32.6835V22.825C16.1807 22.7411 16.214 22.6606 16.2734 22.6012C16.3327 22.5419 16.4132 22.5085 16.4972 22.5085C16.5811 22.5085 16.6616 22.5419 16.721 22.6012C16.7803 22.6606 16.8137 22.7411 16.8137 22.825V32.6835C16.8137 32.7675 16.7803 32.848 16.721 32.9073C16.6616 32.9667 16.5811 33.0001 16.4972 33.0001Z" fill="white"/>
<path id="Vector_6" d="M27.9439 28.2601C27.9024 28.2601 27.8613 28.2518 27.823 28.2358C27.7847 28.2198 27.75 28.1963 27.7208 28.1667L20.755 21.2035C20.6974 21.144 20.6654 21.0642 20.666 20.9813C20.6666 20.8985 20.6996 20.8191 20.7581 20.7603C20.8165 20.7016 20.8956 20.6681 20.9785 20.667C21.0614 20.666 21.1413 20.6975 21.2012 20.7547L28.1722 27.7205C28.2162 27.7648 28.2461 27.821 28.2582 27.8823C28.2703 27.9435 28.2641 28.0069 28.2402 28.0646C28.2164 28.1222 28.176 28.1716 28.1242 28.2064C28.0724 28.2412 28.0115 28.2599 27.9491 28.2601H27.9439Z" fill="white"/>
<path id="Vector_7" d="M32.6835 16.8165H22.825C22.7463 16.8094 22.6732 16.7731 22.6199 16.7148C22.5666 16.6564 22.5371 16.5803 22.5371 16.5013C22.5371 16.4223 22.5666 16.3462 22.6199 16.2879C22.6732 16.2296 22.7463 16.1933 22.825 16.1861H32.6835C32.7273 16.1821 32.7714 16.1873 32.8131 16.2014C32.8548 16.2154 32.8931 16.238 32.9256 16.2676C32.958 16.2973 32.984 16.3334 33.0017 16.3736C33.0195 16.4138 33.0286 16.4573 33.0286 16.5013C33.0286 16.5453 33.0195 16.5888 33.0017 16.629C32.984 16.6693 32.958 16.7054 32.9256 16.735C32.8931 16.7647 32.8548 16.7873 32.8131 16.8013C32.7714 16.8153 32.7273 16.8205 32.6835 16.8165Z" fill="white"/>
<path id="Vector_8" d="M20.9781 12.3386C20.9366 12.3385 20.8955 12.3303 20.8572 12.3142C20.8189 12.2982 20.7842 12.2747 20.755 12.2452C20.6967 12.1856 20.6641 12.1055 20.6641 12.0221C20.6641 11.9387 20.6967 11.8586 20.755 11.799L27.7208 4.83316C27.7805 4.77484 27.8605 4.74219 27.9439 4.74219C28.0273 4.74219 28.1074 4.77484 28.167 4.83316C28.1965 4.86235 28.22 4.8971 28.2359 4.9354C28.2519 4.9737 28.2601 5.01477 28.2601 5.05627C28.2601 5.09776 28.2519 5.13885 28.2359 5.17715C28.22 5.21544 28.1965 5.2502 28.167 5.27939L21.2013 12.2452C21.1722 12.2749 21.1375 12.2984 21.0991 12.3144C21.0608 12.3305 21.0197 12.3387 20.9781 12.3386Z" fill="white"/>
<path id="Vector_9" d="M16.4972 19.9219C15.7558 19.9213 15.034 19.6832 14.4378 19.2424C13.8416 18.8016 13.4024 18.1814 13.1844 17.4727C12.9665 16.764 12.9814 16.0041 13.227 15.3045C13.4725 14.6049 13.9358 14.0024 14.5488 13.5854C15.1618 13.1683 15.8924 12.9587 16.6333 12.9872C17.3741 13.0157 18.0864 13.2809 18.6656 13.7438C19.2447 14.2067 19.6603 14.843 19.8514 15.5595C20.0424 16.2759 19.9989 17.0346 19.7272 17.7245C19.4706 18.372 19.0256 18.9276 18.4497 19.3193C17.8739 19.7111 17.1937 19.921 16.4972 19.9219ZM16.4972 13.6125C15.7904 13.6104 15.1083 13.8721 14.5843 14.3465C14.0603 14.8208 13.7321 15.4736 13.664 16.1771C13.5958 16.8806 13.7927 17.5842 14.2159 18.1503C14.6392 18.7163 15.2584 19.1041 15.9525 19.2377C16.6465 19.3713 17.3654 19.2411 17.9686 18.8726C18.5718 18.5042 19.0157 17.9239 19.2136 17.2454C19.4115 16.5669 19.3492 15.8389 19.0387 15.2039C18.7282 14.569 18.192 14.0727 17.535 13.8122C17.2045 13.6816 16.8526 13.6139 16.4972 13.6125Z" fill="white"/>
<path id="Vector_10" d="M18.8321 10.9272C18.7805 10.9271 18.7298 10.9143 18.6843 10.8901C18.6388 10.8658 18.5999 10.8308 18.571 10.7881C18.5421 10.7454 18.5241 10.6963 18.5185 10.645C18.5129 10.5938 18.5199 10.5419 18.5389 10.494L20.8738 4.58928C20.889 4.55078 20.9116 4.51564 20.9403 4.48588C20.9691 4.45611 21.0034 4.43229 21.0413 4.41579C21.0793 4.39929 21.1201 4.39042 21.1615 4.3897C21.2028 4.38897 21.2439 4.3964 21.2824 4.41156C21.3209 4.42673 21.3561 4.44931 21.3858 4.47805C21.4156 4.50679 21.4394 4.54112 21.4559 4.57906C21.4724 4.61701 21.4813 4.65783 21.482 4.6992C21.4827 4.74057 21.4753 4.78168 21.4602 4.82018L19.1252 10.7275C19.1019 10.7863 19.0615 10.8367 19.0093 10.8723C18.957 10.9079 18.8953 10.927 18.8321 10.9272Z" fill="white"/>
<path id="Vector_11" d="M13.9831 11.0053C13.9213 11.0049 13.8609 10.9865 13.8093 10.9524C13.7577 10.9183 13.7172 10.87 13.6926 10.8133L11.1683 4.98381C11.1339 4.90675 11.1315 4.81917 11.1616 4.74035C11.1918 4.66154 11.252 4.59793 11.3291 4.56353C11.4062 4.52913 11.4938 4.52674 11.5726 4.55691C11.6514 4.58707 11.715 4.64731 11.7494 4.72438L14.2737 10.5539C14.3059 10.631 14.3066 10.7177 14.2755 10.7953C14.2445 10.873 14.1842 10.9353 14.1076 10.969C14.0688 10.9888 14.0265 11.0011 13.9831 11.0053Z" fill="white"/>
<path id="Vector_12" d="M10.6111 14.4869C10.5711 14.4867 10.5314 14.4788 10.4944 14.4635L4.58706 12.1286C4.51555 12.0935 4.45992 12.0327 4.4313 11.9583C4.40267 11.8839 4.40313 11.8015 4.43261 11.7275C4.46209 11.6535 4.51841 11.5933 4.59032 11.5589C4.66223 11.5246 4.74444 11.5187 4.82054 11.5423L10.7279 13.8772C10.7956 13.9048 10.8518 13.955 10.8867 14.0193C10.9216 14.0836 10.9332 14.1581 10.9194 14.2299C10.9057 14.3018 10.8674 14.3667 10.8112 14.4135C10.755 14.4604 10.6843 14.4863 10.6111 14.4869Z" fill="white"/>
<path id="Vector_13" d="M4.85917 21.8572C4.78621 21.8576 4.71536 21.8327 4.65861 21.7869C4.60186 21.741 4.56269 21.677 4.54773 21.6056C4.53278 21.5342 4.54297 21.4598 4.57655 21.395C4.61014 21.3302 4.66507 21.2791 4.73205 21.2501L10.5615 18.7284C10.5995 18.7114 10.6405 18.702 10.6821 18.7008C10.7237 18.6996 10.7652 18.7066 10.8041 18.7214C10.843 18.7362 10.8786 18.7586 10.9089 18.7872C10.9391 18.8157 10.9635 18.85 10.9805 18.888C10.9975 18.926 11.0069 18.9669 11.0081 19.0086C11.0093 19.0502 11.0023 19.0916 10.9875 19.1305C10.9727 19.1694 10.9504 19.205 10.9218 19.2353C10.8932 19.2656 10.8589 19.2899 10.821 19.307L4.99148 21.8313C4.94985 21.8496 4.90465 21.8585 4.85917 21.8572Z" fill="white"/>
<path id="Vector_14" d="M11.8272 28.6208C11.7756 28.6207 11.7249 28.6079 11.6794 28.5836C11.6339 28.5594 11.595 28.5244 11.5661 28.4817C11.5372 28.439 11.5192 28.3899 11.5136 28.3386C11.508 28.2873 11.515 28.2355 11.534 28.1876L13.8689 22.2803C13.8819 22.2386 13.9033 22.2 13.9319 22.167C13.9604 22.134 13.9955 22.1073 14.0349 22.0885C14.0743 22.0697 14.1171 22.0592 14.1607 22.0578C14.2043 22.0563 14.2478 22.0639 14.2883 22.0801C14.3289 22.0962 14.3656 22.1206 14.3963 22.1516C14.427 22.1826 14.4509 22.2197 14.4666 22.2604C14.4823 22.3011 14.4894 22.3447 14.4874 22.3883C14.4855 22.4319 14.4745 22.4746 14.4553 22.5137L12.1204 28.421C12.097 28.4798 12.0567 28.5303 12.0044 28.5659C11.9522 28.6015 11.8904 28.6206 11.8272 28.6208Z" fill="white"/>
<path id="Vector_15" d="M21.5407 28.4573C21.4791 28.4574 21.4188 28.4396 21.3672 28.4059C21.3156 28.3723 21.2749 28.3243 21.2502 28.2679L18.7259 22.4384C18.6915 22.3613 18.6891 22.2738 18.7193 22.1949C18.7494 22.1161 18.8097 22.0525 18.8867 22.0181C18.9638 21.9837 19.0514 21.9813 19.1302 22.0115C19.209 22.0417 19.2726 22.1019 19.307 22.179L21.8313 28.0085C21.848 28.0466 21.8569 28.0876 21.8575 28.1292C21.8582 28.1708 21.8506 28.2121 21.8351 28.2507C21.8197 28.2893 21.7967 28.3245 21.7675 28.3542C21.7384 28.3839 21.7036 28.4074 21.6653 28.4235C21.6267 28.4437 21.5842 28.4552 21.5407 28.4573Z" fill="white"/>
<path id="Vector_16" d="M28.2963 21.4837C28.2565 21.4831 28.2171 21.4761 28.1796 21.463L22.2723 19.1281C22.1942 19.0971 22.1316 19.0364 22.0983 18.9593C22.0649 18.8821 22.0636 18.795 22.0946 18.7169C22.1255 18.6388 22.1862 18.5762 22.2634 18.5428C22.3405 18.5095 22.4277 18.5082 22.5058 18.5391L28.4131 20.8741C28.4809 20.9016 28.537 20.9518 28.5719 21.0162C28.6068 21.0805 28.6184 21.1549 28.6047 21.2268C28.5909 21.2986 28.5526 21.3635 28.4964 21.4104C28.4402 21.4572 28.3695 21.4831 28.2963 21.4837Z" fill="white"/>
<path id="Vector_17" d="M22.3109 14.2999C22.2495 14.3002 22.1895 14.2824 22.1383 14.2487C22.087 14.215 22.0469 14.1669 22.0229 14.1105C22.0061 14.0724 21.997 14.0313 21.9962 13.9896C21.9953 13.9479 22.0027 13.9065 22.0179 13.8677C22.033 13.8289 22.0557 13.7935 22.0847 13.7635C22.1136 13.7334 22.1481 13.7094 22.1863 13.6928L28.0158 11.1685C28.0929 11.1341 28.1804 11.1317 28.2593 11.1619C28.3381 11.1921 28.4017 11.2523 28.4361 11.3294C28.4705 11.4064 28.4729 11.494 28.4427 11.5728C28.4126 11.6516 28.3523 11.7152 28.2753 11.7496L22.438 14.2739C22.3979 14.2915 22.3546 14.3003 22.3109 14.2999Z" fill="white"/>
</g>
<defs>
<clipPath id="clip0_313_1456">
<rect width="33" height="33" fill="white"/>
</clipPath>
</defs>
</svg>
