<svg width="97" height="27" viewBox="0 0 97 27" fill="none" xmlns="http://www.w3.org/2000/svg">
<g opacity="0.5">
<path d="M56.0833 3.75051L61.5071 5.88542L56.0833 7.90493V10.7899L65.373 7.03943V4.73142L56.0833 0.980896V3.75051Z" fill="#1D1B1B"/>
<path d="M6.28985 14.4828C3.69335 14.4828 1.78924 15.6368 1.61614 18.0602H4.50115V18.0025C4.55885 17.1947 5.30895 16.6177 6.11675 16.6754C7.21305 16.6754 7.73235 17.3101 7.73235 18.4064V18.9257H6.40525C3.57795 18.9257 1.26994 19.7912 1.26994 22.5031V22.6185C1.26994 24.8111 2.88554 25.792 4.84735 25.792C6.05905 25.8497 7.15535 25.2727 7.84775 24.3495V25.6189H10.7905V18.3487C10.7328 15.5791 8.82865 14.4828 6.28985 14.4828ZM5.65515 23.6571C4.61655 23.6571 4.15495 23.1378 4.15495 22.3877V22.2723C4.15495 21.2914 4.90505 20.8875 6.40525 20.8875H7.61695V21.9261C7.67465 23.0801 6.69375 23.6571 5.65515 23.6571Z" fill="#1D1B1B"/>
<path d="M17.7139 23.5417C16.2714 23.5417 15.5213 22.5608 15.5213 20.3682V20.022C15.5213 17.8871 16.3868 16.8485 17.7139 16.8485C18.7525 16.8485 19.3295 17.5409 19.5026 18.5795H22.3876C22.1568 15.7522 20.0796 14.4828 17.6562 14.4828C14.7712 14.4828 12.4632 16.4446 12.4632 20.1374V20.2528C12.4632 23.9456 14.6558 25.7921 17.6562 25.7921C20.5989 25.7921 22.2722 24.0033 22.503 21.5799H19.7334C19.5026 22.7916 18.7525 23.5417 17.7139 23.5417Z" fill="#1D1B1B"/>
<path d="M28.9657 23.5417C27.5232 23.5417 26.7731 22.5608 26.7731 20.3682V20.022C26.7731 17.8871 27.6386 16.8485 28.9657 16.8485C30.0043 16.8485 30.5813 17.5409 30.7544 18.5795H33.6394C33.4086 15.7522 31.3314 14.4828 28.908 14.4828C26.023 14.4828 23.715 16.4446 23.715 20.1374V20.2528C23.715 23.9456 25.9076 25.7921 28.908 25.7921C31.8507 25.7921 33.524 24.0033 33.6971 21.5799H30.9852C30.8121 22.7916 30.0043 23.5417 28.9657 23.5417Z" fill="#1D1B1B"/>
<path d="M40.3329 23.5994C39.0058 23.5994 38.198 22.8493 38.0826 20.8875H45.122V19.6181C45.122 16.0407 42.8717 14.4828 40.1598 14.4828C37.2171 14.4828 34.9668 16.5023 34.9668 20.1374V20.3682C34.9668 24.0033 37.1017 25.8497 40.2175 25.8497C43.0448 25.8497 44.7758 24.2918 45.0643 22.2146H42.237C42.1216 23.0801 41.2561 23.7148 40.3329 23.5994ZM40.1598 16.56C41.3715 16.56 42.1216 17.2524 42.1793 18.868H38.1403C38.3711 17.137 39.2366 16.6177 40.1598 16.56Z" fill="#1D1B1B"/>
<path d="M53.3161 14.4828C51.9313 14.4251 50.6619 15.1175 50.0272 16.3292V14.7136H47.0268V25.5612H50.0272V18.9257C50.0272 18.8103 50.0272 18.7526 50.0272 18.6372C50.0849 17.6563 50.9504 16.8485 51.9313 16.9062C53.0276 16.9062 53.5469 17.4832 53.5469 18.7526V25.5612H56.605V18.291C56.605 15.6368 55.2779 14.4828 53.3161 14.4828Z" fill="#1D1B1B"/>
<path d="M62.2576 22.0992V16.9638H64.3348V14.7135H62.2576V11.4246L59.2572 12.694V14.7135H57.9301V16.9638H59.1995V22.4454C59.1995 24.638 60.2958 25.7343 62.6615 25.7343C63.2385 25.7343 63.8155 25.6766 64.3925 25.5035V23.1378C64.0463 23.2532 63.7002 23.3109 63.354 23.3109C62.6616 23.3109 62.2576 22.907 62.2576 22.0992Z" fill="#1D1B1B"/>
<path d="M72.7014 21.4645C72.7014 21.5799 72.7014 21.6376 72.7014 21.753C72.6437 22.7339 71.7782 23.5417 70.7973 23.484C69.701 23.484 69.2394 22.907 69.2394 21.6376V14.7136H66.1813V22.0415C66.1813 24.5803 67.6238 25.792 69.5856 25.792C70.9127 25.8497 72.1244 25.1573 72.7591 23.9456V25.5612H75.8172V14.7136H72.7591L72.7014 21.4645Z" fill="#1D1B1B"/>
<path d="M81.0114 16.6754V14.6559H78.011V25.5035H81.0114V19.9066C81.0114 18.1179 82.2231 17.4832 84.3003 17.4832V14.4828C82.8001 14.4828 81.473 15.3483 81.0114 16.6754Z" fill="#1D1B1B"/>
<path d="M95.3779 19.5604C95.3779 15.983 93.1276 14.4828 90.4157 14.4828C87.473 14.4828 85.2227 16.5023 85.2227 20.1374V20.3682C85.2227 24.0033 87.3576 25.8497 90.4734 25.8497C93.3007 25.8497 94.974 24.2918 95.3202 22.2146H92.4929C92.2621 23.1378 91.3966 23.7148 90.4734 23.6571C89.1463 23.6571 88.3385 22.907 88.2231 20.9452H95.2625V19.5604H95.3779ZM88.3385 18.868C88.5693 17.0793 89.4348 16.56 90.4157 16.56C91.6274 16.56 92.3775 17.2524 92.4352 18.868H88.3385Z" fill="#1D1B1B"/>
</g>
</svg>
