<svg width="103" height="18" viewBox="0 0 103 18" fill="none" xmlns="http://www.w3.org/2000/svg">
<g style="mix-blend-mode:luminosity">
<path d="M28.3668 9.82515H21.6846C21.4371 9.82515 21.4791 9.84283 21.4968 10.0175C21.6307 11.4713 22.2254 12.8444 23.1944 13.9366C24.0803 14.9615 25.2886 15.6545 26.6206 15.9016C27.3087 16.0283 28.0117 16.0536 28.7072 15.9768C29.5121 15.9172 30.2972 15.6985 31.0171 15.3336C31.6293 15.0158 32.2014 14.6262 32.7214 14.1731C33.2983 13.6669 34.0145 13.7045 34.6047 14.1731C34.6643 14.2217 34.7218 14.2703 34.7771 14.3234C34.9981 14.529 34.9849 14.5886 34.7771 14.7986C34.4847 15.1108 34.1748 15.406 33.8487 15.6828C33.0957 16.3404 32.2514 16.8854 31.3421 17.3008C30.5886 17.6146 29.7904 17.8078 28.9769 17.8733C28.3571 17.9378 27.7329 17.9482 27.1113 17.9043C25.9155 17.8205 24.7541 17.4676 23.7138 16.872C21.426 15.5723 20.0998 13.5829 19.567 11.0365C19.3621 10.0182 19.3136 8.9747 19.4234 7.94186C19.5706 6.19005 20.2242 4.51888 21.3044 3.13195C22.5578 1.52497 24.178 0.459538 26.1984 0.132394C28.3889 -0.219065 30.4225 0.194286 32.1997 1.59128C33.3659 2.52496 34.2466 3.76717 34.7417 5.17661C35.1685 6.32761 35.3871 7.54539 35.3872 8.77298C35.3872 9.02497 35.3872 9.27917 35.3872 9.53337C35.3872 9.78757 35.3164 9.83178 35.0689 9.83178H28.3668V9.82515ZM27.3942 7.99712H33.1413C33.2541 7.99712 33.2961 7.98386 33.2806 7.84902C33.2274 7.39727 33.1432 6.94971 33.0286 6.5095C32.786 5.46499 32.2938 4.49488 31.594 3.68235C30.1086 2.03116 28.243 1.5736 26.1254 2.03779C24.9704 2.30093 23.9378 2.94572 23.1944 3.86803C22.2412 4.99402 21.6475 6.37997 21.4901 7.84681C21.4724 7.9927 21.5189 8.00596 21.6426 8.00596C23.5613 7.99712 25.4785 7.99417 27.3942 7.99712Z" fill="#53A1C1"/>
<path d="M72.6481 9.83415C70.4112 9.83415 68.1735 9.83415 65.935 9.83415C65.8002 9.83415 65.7604 9.86289 65.7759 10.0021C66.0234 12.0998 66.9607 13.8019 68.729 14.9999C69.6636 15.6299 70.7608 15.9754 71.8877 15.9946C72.9495 16.0584 74.0118 15.8785 74.9934 15.4686C75.7188 15.1447 76.3899 14.7108 76.9828 14.1821C77.7454 13.5189 78.6119 13.7864 79.1932 14.4208C79.2927 14.5313 79.2485 14.6419 79.1534 14.7413C78.5556 15.3707 77.8949 15.9374 77.1817 16.4323C76.2453 17.1089 75.1701 17.5687 74.0341 17.7785C71.5783 18.2073 69.275 17.8735 67.2127 16.3969C65.5099 15.1948 64.3253 13.3926 63.897 11.3527C63.3646 9.17969 63.5876 6.89018 64.5292 4.86068C65.5217 2.72098 67.1021 1.19578 69.3413 0.40002C70.3633 0.0559287 71.4467 -0.0676239 72.5199 0.037508C74.0285 0.139374 75.4658 0.717543 76.6247 1.6887C77.7196 2.61254 78.5488 3.81108 79.0274 5.1613C79.4111 6.19312 79.6275 7.2796 79.6685 8.37969C79.6994 8.76885 79.6994 9.15985 79.6685 9.54901C79.6397 9.79437 79.6 9.83194 79.3524 9.83415H72.6481ZM71.6534 7.98844H77.4227C77.5354 7.98844 77.5663 7.97076 77.5487 7.84918C77.4903 7.38195 77.4017 6.91899 77.2834 6.46324C77.0123 5.33318 76.449 4.29421 75.6499 3.45042C74.5137 2.30099 73.1189 1.81691 71.5164 1.88322C70.1002 1.9248 68.7577 2.52377 67.7807 3.54989C66.6508 4.71958 65.945 6.23389 65.7759 7.85139C65.7604 7.97739 65.809 7.98844 65.9151 7.98844H71.6534Z" fill="#759E4F"/>
<path d="M102.991 8.48585C102.978 9.40318 102.991 10.2343 102.956 11.0676C102.869 12.8736 102.248 14.443 100.953 15.725C99.9344 16.7103 98.6628 17.3943 97.2793 17.7012C96.3124 17.9385 95.3155 18.0294 94.3217 17.9708C92.6904 17.8758 91.1784 17.4226 89.9008 16.3484C89.0166 15.6012 88.38 14.6817 88.1988 13.5168C87.9888 12.1618 88.1568 10.8643 88.9614 9.71043C89.49 8.99877 90.1802 8.42296 90.9751 8.0305C91.9127 7.54552 92.9348 7.24535 93.9857 7.14633C96.2642 6.90811 98.5669 7.07955 100.785 7.65252C101.006 7.70557 101.006 7.70557 101.006 7.48453C101.039 6.78989 100.984 6.09384 100.84 5.41335C100.445 3.80194 99.3969 2.83377 97.8407 2.36737C96.9278 2.11486 95.9779 2.02287 95.0334 2.09549C94.1221 2.14772 93.2212 2.31559 92.3522 2.59504C92.1055 2.68459 91.8366 2.69254 91.5851 2.61773C91.3336 2.54291 91.1128 2.38928 90.9552 2.17948C90.7614 1.95103 90.6115 1.68874 90.5131 1.40583C90.4534 1.24226 90.4888 1.15384 90.6457 1.08974C91.806 0.579154 93.0348 0.241061 94.293 0.0862003C94.9536 0.0158776 95.6186 -0.00481132 96.2823 0.024308C97.3315 0.0507825 98.367 0.269554 99.3372 0.669755C100.142 1.00387 100.859 1.51818 101.434 2.17309C102.009 2.828 102.426 3.60606 102.653 4.44739C102.79 4.9243 102.885 5.41253 102.936 5.90628C103.026 6.79045 102.958 7.68125 102.991 8.48585ZM101.048 10.756C101.048 10.3338 101.048 10.0398 101.048 9.7458C101.048 9.61981 101.017 9.56897 100.893 9.54244C99.6285 9.23644 98.3418 9.02878 97.0449 8.92131C96.0035 8.8302 94.9552 8.85541 93.9194 8.99646C92.9962 9.11998 92.1217 9.48439 91.384 10.0531C90.8953 10.4285 90.5347 10.9459 90.3515 11.5343C90.1683 12.1228 90.1714 12.7534 90.3606 13.34C90.6656 14.3369 91.384 15 92.308 15.4421C93.3586 15.927 94.5237 16.1092 95.6723 15.9682C97.0348 15.8553 98.3337 15.3424 99.4057 14.4938C100.126 13.9555 100.65 13.1962 100.898 12.332C101.021 11.8162 101.072 11.2858 101.048 10.756Z" fill="#759E4F"/>
<path d="M14.3878 11.218V8.03718C14.3878 7.76309 14.4254 7.72772 14.7061 7.72109C15.083 7.69914 15.4574 7.79409 15.7782 7.99297C15.9723 8.12313 16.1333 8.29683 16.2485 8.50022C16.3636 8.70361 16.4296 8.93108 16.4413 9.1645C16.4579 9.33639 16.4646 9.50909 16.4612 9.68175C16.4612 11.5982 16.4612 13.5168 16.4612 15.4289C16.4661 15.5133 16.4481 15.5974 16.4092 15.6725C16.3703 15.7476 16.3119 15.8108 16.2402 15.8555C15.2209 16.5538 14.092 17.0768 12.9002 17.4028C11.7599 17.7453 10.5782 17.9313 9.38781 17.9554C7.74128 18.0184 6.10498 17.6705 4.62652 16.943C2.32104 15.7649 0.884251 13.8948 0.265328 11.3926C0.0661094 10.5688 -0.0216182 9.72206 0.00449644 8.87494C0.0531261 6.88555 0.596894 5.0332 1.82811 3.42843C3.02683 1.87439 4.72489 0.78139 6.63581 0.333818C7.81752 0.0368406 9.0412 -0.0565981 10.2543 0.0575142C11.9601 0.192518 13.5934 0.805378 14.967 1.82586C15.1877 1.97121 15.352 2.18783 15.4325 2.43962C15.5129 2.69141 15.5047 2.96316 15.409 3.20959C15.3056 3.4968 15.1438 3.75946 14.9338 3.98104C14.81 4.11145 14.7371 4.11587 14.5978 3.99651C13.7575 3.24406 12.7677 2.67762 11.6933 2.33426C10.7552 2.05361 9.77518 1.93915 8.79762 1.99607C7.68028 2.03797 6.58686 2.33192 5.59912 2.85592C4.16983 3.61543 3.08489 4.89252 2.5664 6.42578C2.18626 7.51998 2.04898 8.68385 2.1641 9.83648C2.25116 11.1642 2.7356 12.435 3.55446 13.4837C4.35506 14.4897 5.44171 15.2296 6.67118 15.6057C7.74153 15.945 8.86784 16.0719 9.98684 15.9793C11.231 15.898 12.4492 15.5854 13.5788 15.0575C13.7998 14.9492 14.0209 14.8232 14.2419 14.695C14.2908 14.6711 14.3313 14.633 14.3582 14.5857C14.385 14.5383 14.3969 14.484 14.3922 14.4298C14.3922 13.3599 14.3922 12.2878 14.3922 11.218H14.3878Z" fill="#53A1C1"/>
<path d="M51.7816 14.3081C51.8097 14.2529 51.819 14.1901 51.8081 14.1291C51.8081 13.2213 51.8081 12.3128 51.8081 11.4036C51.8006 11.361 51.8035 11.3173 51.8166 11.2761C51.8297 11.2349 51.8526 11.1975 51.8833 11.1671C51.906 11.1509 51.9319 11.1395 51.9592 11.1337C51.9866 11.1279 52.0148 11.1278 52.0422 11.1334C52.0696 11.139 52.0955 11.1502 52.1184 11.1662C52.1412 11.1823 52.1605 11.2029 52.1751 11.2268L53.4218 12.7254C53.5478 12.8758 53.6715 13.0305 53.802 13.1808C53.8624 13.2489 53.8947 13.3374 53.8926 13.4284C53.8926 14.8534 53.8926 16.2791 53.8926 17.7056C53.8926 17.9266 53.8307 17.9841 53.6229 17.9841C53.1676 17.9841 52.71 17.9841 52.2524 17.9841C52.1972 17.9847 52.1426 17.972 52.0933 17.947C52.0441 17.9219 52.0016 17.8854 51.9695 17.8404L49.538 14.927L46.8965 11.744C45.7176 10.3308 44.5446 8.91908 43.3775 7.50882L40.4045 3.92792C40.3846 3.90581 40.3691 3.87929 40.3271 3.87487C40.3041 3.93466 40.2972 3.99947 40.3072 4.06276C40.3072 8.09754 40.3072 12.1316 40.3072 16.1649C40.3138 16.4493 40.2681 16.7325 40.1724 17.0004C40.0544 17.3081 39.8398 17.5692 39.5608 17.7446C39.2818 17.92 38.9535 18.0001 38.6251 17.973C38.2449 17.9509 38.2449 17.9509 38.2449 17.5663C38.2449 12.2613 38.2449 6.95621 38.2449 1.65117C38.2372 1.38238 38.2807 1.11458 38.3731 0.862047C38.4625 0.622579 38.6209 0.414981 38.8282 0.265479C39.0356 0.115977 39.2825 0.0312777 39.538 0.0220814C39.686 2.38921e-05 39.8373 0.0200392 39.9745 0.0798411C40.1117 0.139643 40.2293 0.236821 40.3139 0.360278C41.7993 2.17947 43.2957 3.99202 44.7878 5.80458L48.6406 10.4907L51.6623 14.1711L51.7816 14.3081Z" fill="#53A1C1"/>
<path d="M47.27 3.87497V4.02749C47.27 4.93229 47.27 5.83562 47.27 6.73748C47.27 6.85021 47.27 6.95852 47.1396 7.00052C47.0092 7.04252 46.9406 6.96515 46.8699 6.87895C46.3394 6.2335 45.8082 5.58732 45.2762 4.9404C45.2158 4.87229 45.1834 4.78384 45.1856 4.69283C45.1856 3.74013 45.1856 2.78522 45.1856 1.83252C45.167 1.6052 45.2048 1.37682 45.2953 1.1675C45.3859 0.958186 45.5266 0.774371 45.705 0.632258C45.8812 0.511704 46.0797 0.427516 46.2888 0.384626C46.4979 0.341736 46.7135 0.341007 46.923 0.382479C46.9929 0.398969 47.0543 0.440684 47.0954 0.499632C49.4016 3.24057 51.7086 5.98004 54.0163 8.71803L58.614 14.1734L58.7466 14.3259V14.1159C58.7466 10.0973 58.7466 6.07877 58.7466 2.0602C58.7122 1.50963 58.8822 0.965731 59.224 0.532789C59.3974 0.335506 59.6177 0.185101 59.8646 0.0954696C60.1115 0.00583811 60.377 -0.020129 60.6365 0.0199678C60.6643 0.0204422 60.6917 0.0266761 60.717 0.0382753C60.7423 0.0498745 60.7649 0.066587 60.7833 0.0873583C60.8018 0.10813 60.8158 0.132508 60.8244 0.158955C60.833 0.185401 60.836 0.213342 60.8332 0.241011C60.8332 0.28743 60.8332 0.331639 60.8332 0.378058V17.6526C60.8332 17.9599 60.7935 17.9996 60.4796 17.9996C60.0596 17.9996 59.6374 17.9996 59.2174 17.9996C59.1544 18.0029 59.0915 17.9904 59.0344 17.9634C58.9773 17.9364 58.9278 17.8957 58.8903 17.8449C57.1042 15.6831 55.3153 13.5243 53.5233 11.3683C51.4794 8.90592 49.434 6.44496 47.3871 3.98549C47.3562 3.94791 47.3363 3.89707 47.27 3.87497Z" fill="#759E4F"/>
<path d="M85.0552 9.00965C85.0552 11.9009 85.0552 14.7921 85.0552 17.6834C85.0552 17.9487 85.0154 17.9884 84.7457 17.9884C84.2491 17.9884 83.7518 17.9884 83.2537 17.9884C83.0327 17.9884 82.9752 17.9398 82.9752 17.7121C82.9752 12.4896 82.9752 7.26488 82.9752 2.03794C82.9396 1.47525 83.1234 0.920654 83.488 0.490632C83.6613 0.305232 83.8776 0.165312 84.1177 0.0832063C84.3579 0.00110018 84.6146 -0.020672 84.8651 0.0198088C84.8932 0.0196348 84.921 0.025413 84.9467 0.0367633C84.9724 0.0481136 84.9954 0.0647786 85.0142 0.0856609C85.033 0.106543 85.0472 0.13117 85.0558 0.157918C85.0643 0.184667 85.0672 0.212932 85.064 0.240852C85.064 0.282851 85.064 0.322639 85.064 0.364637L85.0552 9.00965Z" fill="#759E4F"/>
<path d="M53.8928 4.30582V6.49636C53.8961 6.53682 53.8961 6.57748 53.8928 6.61794C53.8918 6.65864 53.8784 6.69806 53.8542 6.73087C53.8301 6.76368 53.7965 6.7883 53.758 6.8014C53.7189 6.81575 53.6763 6.81705 53.6364 6.80509C53.5966 6.79313 53.5616 6.76857 53.5369 6.73509C52.9843 6.0808 52.431 5.42725 51.8769 4.77444C51.8259 4.7125 51.8006 4.6334 51.8062 4.55339C51.8062 3.11882 51.8062 1.67983 51.8062 0.249675C51.8062 0.0639985 51.8703 -0.00231453 52.0537 0.00873764C52.4836 0.0168139 52.8968 0.176505 53.2203 0.459619C53.5439 0.742732 53.757 1.13106 53.8221 1.55604C53.863 1.7799 53.8829 2.00708 53.8818 2.23465C53.8906 2.92651 53.8928 3.61617 53.8928 4.30582Z" fill="#53A1C1"/>
<path d="M45.1906 13.9921C45.1906 13.2921 45.1906 12.5914 45.1906 11.8899C45.1906 11.7838 45.1906 11.6844 45.3144 11.6379C45.4382 11.5915 45.5133 11.6601 45.5863 11.7485C46.1183 12.3939 46.6532 13.0372 47.1911 13.6782C47.247 13.7441 47.2769 13.8282 47.2751 13.9147C47.2751 15.1835 47.2751 16.4515 47.2751 17.7189C47.2751 17.9045 47.2198 17.9642 47.0341 17.9775C46.6514 17.9953 46.2738 17.8834 45.9625 17.66C45.6512 17.4366 45.4244 17.1146 45.3188 16.7463C45.2356 16.4855 45.1938 16.2132 45.195 15.9395L45.1906 13.9921Z" fill="#759E4F"/>
</g>
</svg>
