<svg width="25" height="24" viewBox="0 0 25 24" fill="none" xmlns="http://www.w3.org/2000/svg">
<path opacity="0.4" d="M8.6066 14.51C7.9866 14.28 7.43659 13.83 7.08659 13.19C6.28659 11.73 6.77659 9.83001 8.19659 8.95001L10.5366 7.5C11.9466 6.62 13.7666 7.09999 14.5666 8.54999C15.3666 10.01 14.8766 11.91 13.4566 12.79L13.1466 13.01" stroke="#4B1FFC" stroke-width="1.5" stroke-linecap="round" stroke-linejoin="round"/>
<path opacity="0.4" d="M16.7766 9.44995C17.3966 9.67995 17.9466 10.1299 18.2966 10.7699C19.0966 12.2299 18.6066 14.1299 17.1866 15.0099L14.8466 16.4599C13.4366 17.3399 11.6166 16.8599 10.8166 15.4099C10.0166 13.9499 10.5066 12.05 11.9266 11.17L12.2366 10.95" stroke="#4B1FFC" stroke-width="1.5" stroke-linecap="round" stroke-linejoin="round"/>
<path d="M12.6666 22C18.1895 22 22.6666 17.5228 22.6666 12C22.6666 6.47715 18.1895 2 12.6666 2C7.14378 2 2.66663 6.47715 2.66663 12C2.66663 17.5228 7.14378 22 12.6666 22Z" stroke="#4B1FFC" stroke-width="1.5" stroke-linecap="round" stroke-linejoin="round"/>
</svg>
