<?xml version="1.0" encoding="utf-8"?>
<svg xmlns="http://www.w3.org/2000/svg" fill="none" height="100%" overflow="visible" preserveAspectRatio="none" style="display: block;" viewBox="0 0 24 24" width="100%">
<g clip-path="url(#clip0_0_2066)" id="Frame">
<g id="Vector">
</g>
<path d="M16.5 2.26526C16.9142 2.26526 17.25 2.60105 17.25 3.01526V4.26526H18.5C19.2293 4.26526 19.9286 4.5552 20.4443 5.07092C20.9601 5.58665 21.25 6.28591 21.25 7.01526V19.0153C21.25 19.7446 20.9601 20.4439 20.4443 20.9596C19.9286 21.4753 19.2293 21.7653 18.5 21.7653H6.5C5.77065 21.7653 5.07139 21.4753 4.55566 20.9596C4.03994 20.4439 3.75 19.7446 3.75 19.0153V7.01526C3.75 6.28591 4.03994 5.58665 4.55566 5.07092C5.07139 4.5552 5.77065 4.26526 6.5 4.26526H7.75V3.01526C7.75 2.60105 8.08579 2.26526 8.5 2.26526C8.91421 2.26526 9.25 2.60105 9.25 3.01526V4.26526H15.75V3.01526C15.75 2.60105 16.0858 2.26526 16.5 2.26526ZM5.25 19.0153C5.25 19.3468 5.38179 19.6646 5.61621 19.899C5.85063 20.1335 6.16848 20.2653 6.5 20.2653H18.5C18.8315 20.2653 19.1494 20.1335 19.3838 19.899C19.6182 19.6646 19.75 19.3468 19.75 19.0153V11.7653H5.25V19.0153ZM10.5 14.2653C10.9142 14.2653 11.25 14.601 11.25 15.0153V17.0153C11.25 17.4295 10.9142 17.7653 10.5 17.7653H8.5C8.08579 17.7653 7.75 17.4295 7.75 17.0153V15.0153C7.75 14.601 8.08579 14.2653 8.5 14.2653H10.5ZM6.5 5.76526C6.16848 5.76526 5.85063 5.89705 5.61621 6.13147C5.38179 6.36589 5.25 6.68374 5.25 7.01526V10.2653H19.75V7.01526C19.75 6.68374 19.6182 6.36589 19.3838 6.13147C19.1494 5.89705 18.8315 5.76526 18.5 5.76526H17.25V7.01526C17.25 7.42947 16.9142 7.76526 16.5 7.76526C16.0858 7.76526 15.75 7.42947 15.75 7.01526V5.76526H9.25V7.01526C9.25 7.42947 8.91421 7.76526 8.5 7.76526C8.08579 7.76526 7.75 7.42947 7.75 7.01526V5.76526H6.5Z" fill="var(--fill-0, white)" id="Union"/>
</g>
<defs>
<clipPath id="clip0_0_2066">
<rect fill="white" height="24" width="24"/>
</clipPath>
</defs>
</svg>