<svg width="53" height="40" viewBox="0 0 53 40" fill="none" xmlns="http://www.w3.org/2000/svg">
<path d="M12.9084 22.9046L20.6649 30.6502C22.8067 32.7891 22.8067 36.2569 20.6649 38.3958C18.523 40.5347 15.0503 40.5347 12.9084 38.3958L10.9693 36.4594C7.75646 33.2511 7.75646 28.0493 10.9693 24.841L12.9084 22.9046Z" fill="#FF4933"/>
<path d="M3.21283 28.7138L14.8475 17.0954C16.9894 14.9565 16.9894 11.4887 14.8475 9.34978C12.7056 7.21089 9.23294 7.21089 7.09106 9.34978L3.21283 13.2226C-1.07094 17.5004 -1.07094 24.436 3.21283 28.7138Z" fill="#FF4933"/>
<path d="M40.056 19.0318L30.3604 9.34978C28.2185 7.21089 28.2185 3.74306 30.3604 1.60417C32.5023 -0.534723 35.975 -0.534723 38.1169 1.60417L41.0256 4.50877C44.7739 8.25183 44.7739 14.3205 41.0256 18.0636L40.056 19.0318Z" fill="#FF4933"/>
<path d="M49.7516 13.2226L32.2995 30.6502C30.1577 32.7891 30.1577 36.2569 32.2995 38.3958C34.4414 40.5347 37.9141 40.5347 40.056 38.3958L49.7516 28.7138C54.0353 24.436 54.0353 17.5004 49.7516 13.2226Z" fill="#FF4933"/>
</svg>
