<svg width="191" height="26" viewBox="0 0 191 26" fill="none" xmlns="http://www.w3.org/2000/svg">
<path d="M8.39046 14.888L13.4322 19.9226C14.8244 21.3129 14.8244 23.567 13.4322 24.9573C12.0399 26.3476 9.78269 26.3476 8.39046 24.9573L7.13004 23.6986C5.0417 21.6132 5.0417 18.2321 7.13004 16.1467L8.39046 14.888Z" fill="#FF4933"/>
<path d="M2.08834 18.664L9.65089 11.112C11.0431 9.72173 11.0431 7.46764 9.65089 6.07736C8.25866 4.68708 6.00141 4.68708 4.60919 6.07736L2.08834 8.59468C-0.696113 11.3752 -0.696113 15.8834 2.08834 18.664Z" fill="#FF4933"/>
<path d="M26.0364 12.3707L19.7343 6.07736C18.3421 4.68708 18.3421 2.43299 19.7343 1.04271C21.1265 -0.34757 23.3838 -0.34757 24.776 1.04271L26.6666 2.9307C29.103 5.36369 29.103 9.30835 26.6666 11.7413L26.0364 12.3707Z" fill="#FF4933"/>
<path d="M32.3385 8.59468L20.9947 19.9226C19.6025 21.3129 19.6025 23.567 20.9947 24.9573C22.3869 26.3476 24.6442 26.3476 26.0364 24.9573L32.3385 18.664C35.123 15.8834 35.123 11.3752 32.3385 8.59468Z" fill="#FF4933"/>
<path d="M56.2011 21.7611C55.0132 21.7611 53.9555 21.4929 53.028 20.9567C52.1167 20.4042 51.4007 19.6567 50.88 18.7143C50.3593 17.7555 50.099 16.6587 50.099 15.4237C50.099 14.1725 50.3512 13.0675 50.8556 12.1088C51.3601 11.1501 52.0679 10.4026 52.9792 9.86637C53.8904 9.31388 54.9318 9.03764 56.1035 9.03764C57.3239 9.03764 58.3734 9.29763 59.2521 9.81762C60.1309 10.3214 60.8062 11.0282 61.278 11.9382C61.7662 12.8482 62.0103 13.9369 62.0103 15.2044V16.1062L51.6611 16.1306L51.7099 14.2294H59.0569C59.0569 13.4007 58.7884 12.7344 58.2514 12.2307C57.7307 11.7269 57.0228 11.4751 56.1279 11.4751C55.4281 11.4751 54.8342 11.6213 54.346 11.9138C53.8741 12.2063 53.5162 12.645 53.2721 13.23C53.028 13.815 52.9059 14.53 52.9059 15.375C52.9059 16.6749 53.1826 17.658 53.7358 18.3243C54.3054 18.9905 55.1434 19.3236 56.2499 19.3236C57.0635 19.3236 57.7307 19.1693 58.2514 18.8605C58.7884 18.5518 59.1382 18.113 59.301 17.5443H62.0591C61.7988 18.8605 61.1479 19.8924 60.1064 20.6398C59.0813 21.3873 57.7795 21.7611 56.2011 21.7611Z" fill="#1D1B1B"/>
<path d="M67.3743 21.7611C66.105 21.7611 65.0961 21.4198 64.3476 20.7373C63.6154 20.0386 63.2492 19.1286 63.2492 18.0074C63.2492 16.9024 63.6316 16.025 64.3964 15.375C65.1775 14.7087 66.284 14.3188 67.716 14.205L71.3284 13.9125V13.6444C71.3284 13.0919 71.2227 12.6532 71.0111 12.3282C70.8159 11.9869 70.5311 11.7432 70.1568 11.5969C69.7826 11.4345 69.3432 11.3532 68.8388 11.3532C67.9601 11.3532 67.2848 11.5319 66.8129 11.8894C66.341 12.2307 66.105 12.7182 66.105 13.3519H63.5665C63.5665 12.4744 63.7862 11.7188 64.2256 11.0851C64.6812 10.4351 65.3158 9.93136 66.1294 9.57387C66.9593 9.21638 67.9113 9.03764 68.9852 9.03764C70.0755 9.03764 71.0111 9.23263 71.7922 9.62262C72.5733 9.99636 73.1753 10.5651 73.5984 11.3288C74.0215 12.0763 74.233 13.0107 74.233 14.1319V21.4442H71.6213L71.4017 19.6649C71.1413 20.2823 70.6369 20.7861 69.8883 21.1761C69.1561 21.5661 68.3181 21.7611 67.3743 21.7611ZM68.3262 19.5186C69.2537 19.5186 69.986 19.2586 70.523 18.7386C71.0762 18.2187 71.3528 17.4955 71.3528 16.5693V15.9356L68.8388 16.1306C67.9113 16.2118 67.2522 16.4068 66.8617 16.7156C66.4712 17.0081 66.2759 17.398 66.2759 17.8855C66.2759 18.4218 66.4549 18.828 66.8129 19.1043C67.1709 19.3805 67.6753 19.5186 68.3262 19.5186Z" fill="#1D1B1B"/>
<path d="M79.6481 21.4442H76.6703V9.40325H79.404L79.7702 11.5482L79.4284 11.2557C79.6725 10.6707 80.12 10.1589 80.7709 9.72012C81.4218 9.26513 82.2354 9.03764 83.2118 9.03764C84.2695 9.03764 85.1319 9.31388 85.7991 9.86637C86.4825 10.4189 86.9544 11.1501 87.2147 12.0601H86.7266C86.9056 11.1501 87.3612 10.4189 88.0934 9.86637C88.842 9.31388 89.7451 9.03764 90.8028 9.03764C92.2673 9.03764 93.3901 9.452 94.1712 10.2807C94.9522 11.0932 95.3428 12.1901 95.3428 13.5713V21.4442H92.3893V14.3513C92.3893 13.49 92.1697 12.84 91.7303 12.4013C91.3072 11.9463 90.7377 11.7188 90.0217 11.7188C89.5661 11.7188 89.143 11.8244 88.7525 12.0357C88.3782 12.2469 88.0772 12.5638 87.8494 12.9863C87.6216 13.4088 87.5077 13.9531 87.5077 14.6194V21.4442H84.5298V14.3269C84.5298 13.4819 84.3183 12.84 83.8952 12.4013C83.4721 11.9626 82.9107 11.7432 82.211 11.7432C81.7391 11.7432 81.3079 11.8488 80.9174 12.0601C80.5268 12.2551 80.2176 12.5719 79.9898 13.0107C79.762 13.4332 79.6481 13.9694 79.6481 14.6194V21.4442Z" fill="#1D1B1B"/>
<path d="M97.07 15.3993C97.07 14.1644 97.3223 13.0675 97.8267 12.1088C98.3474 11.1501 99.0553 10.4026 99.9503 9.86637C100.861 9.31388 101.911 9.03764 103.099 9.03764C104.742 9.03764 106.085 9.46825 107.126 10.3295C108.184 11.1745 108.794 12.3201 108.957 13.7663H105.979C105.8 13.0838 105.467 12.5719 104.978 12.2307C104.507 11.8732 103.913 11.6944 103.197 11.6944C102.578 11.6944 102.025 11.8488 101.537 12.1576C101.065 12.45 100.699 12.8725 100.438 13.425C100.178 13.9775 100.048 14.6356 100.048 15.3993C100.048 16.1631 100.17 16.8212 100.414 17.3737C100.658 17.9262 101.008 18.3568 101.464 18.6655C101.935 18.958 102.489 19.1043 103.123 19.1043C103.872 19.1043 104.49 18.9255 104.978 18.568C105.483 18.2105 105.816 17.6987 105.979 17.0324H108.981C108.851 17.9749 108.518 18.8036 107.981 19.5186C107.46 20.2174 106.785 20.7698 105.955 21.1761C105.125 21.5661 104.181 21.7611 103.123 21.7611C101.903 21.7611 100.837 21.5011 99.9258 20.9811C99.0146 20.4448 98.3067 19.7055 97.8023 18.763C97.3141 17.8043 97.07 16.6831 97.07 15.3993Z" fill="#1D1B1B"/>
<path d="M118.886 9.40325H121.864V21.4442H119.106L118.886 19.8355C118.528 20.4042 117.991 20.8673 117.276 21.2248C116.56 21.5823 115.795 21.7611 114.981 21.7611C113.598 21.7611 112.516 21.3223 111.735 20.4448C110.954 19.5674 110.563 18.3974 110.563 16.9349V9.40325H113.541V15.8868C113.541 17.0243 113.761 17.8449 114.2 18.3486C114.639 18.8524 115.274 19.1043 116.104 19.1043C117.048 19.1043 117.747 18.828 118.203 18.2755C118.659 17.7068 118.886 16.8537 118.886 15.7162V9.40325Z" fill="#1D1B1B"/>
<path d="M127.21 21.4442H124.452V3.30966H127.43V11.1582C127.82 10.4757 128.39 9.95574 129.138 9.59825C129.887 9.22451 130.725 9.03764 131.652 9.03764C132.808 9.03764 133.792 9.31388 134.606 9.86637C135.436 10.4026 136.07 11.1582 136.51 12.1332C136.965 13.1082 137.193 14.2375 137.193 15.5212C137.193 16.7399 136.957 17.8205 136.485 18.763C136.013 19.7055 135.346 20.4448 134.484 20.9811C133.621 21.5011 132.612 21.7611 131.457 21.7611C130.562 21.7611 129.748 21.5661 129.016 21.1761C128.3 20.7861 127.763 20.2498 127.405 19.5674L127.21 21.4442ZM127.454 15.375C127.454 16.09 127.592 16.7318 127.869 17.3006C128.146 17.853 128.536 18.2837 129.041 18.5924C129.561 18.8849 130.163 19.0311 130.847 19.0311C131.547 19.0311 132.149 18.8768 132.653 18.568C133.157 18.2593 133.54 17.8287 133.8 17.2762C134.061 16.7237 134.191 16.09 134.191 15.375C134.191 14.66 134.061 14.0263 133.8 13.4738C133.54 12.9213 133.157 12.4907 132.653 12.1819C132.149 11.8569 131.547 11.6944 130.847 11.6944C130.163 11.6944 129.561 11.8569 129.041 12.1819C128.536 12.4907 128.146 12.9213 127.869 13.4738C127.592 14.01 127.454 14.6437 127.454 15.375Z" fill="#1D1B1B"/>
<path d="M142.664 21.7611C141.395 21.7611 140.386 21.4198 139.637 20.7373C138.905 20.0386 138.539 19.1286 138.539 18.0074C138.539 16.9024 138.921 16.025 139.686 15.375C140.467 14.7087 141.574 14.3188 143.006 14.205L146.618 13.9125V13.6444C146.618 13.0919 146.512 12.6532 146.301 12.3282C146.106 11.9869 145.821 11.7432 145.447 11.5969C145.072 11.4345 144.633 11.3532 144.128 11.3532C143.25 11.3532 142.574 11.5319 142.103 11.8894C141.631 12.2307 141.395 12.7182 141.395 13.3519H138.856C138.856 12.4744 139.076 11.7188 139.515 11.0851C139.971 10.4351 140.606 9.93136 141.419 9.57387C142.249 9.21638 143.201 9.03764 144.275 9.03764C145.365 9.03764 146.301 9.23263 147.082 9.62262C147.863 9.99636 148.465 10.5651 148.888 11.3288C149.311 12.0763 149.523 13.0107 149.523 14.1319V21.4442H146.911L146.691 19.6649C146.431 20.2823 145.927 20.7861 145.178 21.1761C144.446 21.5661 143.608 21.7611 142.664 21.7611ZM143.616 19.5186C144.543 19.5186 145.276 19.2586 145.813 18.7386C146.366 18.2187 146.643 17.4955 146.643 16.5693V15.9356L144.128 16.1306C143.201 16.2118 142.542 16.4068 142.151 16.7156C141.761 17.0081 141.566 17.398 141.566 17.8855C141.566 18.4218 141.745 18.828 142.103 19.1043C142.461 19.3805 142.965 19.5186 143.616 19.5186Z" fill="#1D1B1B"/>
<path d="M150.597 9.40325H158.213V11.8894H150.597V9.40325ZM155.894 21.4442H152.916V5.6496H155.894V21.4442Z" fill="#1D1B1B"/>
<path d="M159.6 21.4442V9.40325H162.578V21.4442H159.6ZM161.065 6.99019C160.56 6.99019 160.129 6.81957 159.771 6.47833C159.429 6.12084 159.258 5.69022 159.258 5.18649C159.258 4.68275 159.429 4.26026 159.771 3.91902C160.129 3.57778 160.56 3.40716 161.065 3.40716C161.569 3.40716 161.992 3.57778 162.334 3.91902C162.692 4.26026 162.871 4.68275 162.871 5.18649C162.871 5.69022 162.692 6.12084 162.334 6.47833C161.992 6.81957 161.569 6.99019 161.065 6.99019Z" fill="#1D1B1B"/>
<path d="M164.458 15.3993C164.458 14.1481 164.735 13.0513 165.288 12.1088C165.842 11.1501 166.606 10.4026 167.583 9.86637C168.559 9.33013 169.666 9.06201 170.902 9.06201C172.155 9.06201 173.262 9.33013 174.222 9.86637C175.198 10.4026 175.963 11.1501 176.516 12.1088C177.07 13.0513 177.346 14.1481 177.346 15.3993C177.346 16.6506 177.07 17.7555 176.516 18.7143C175.963 19.6567 175.198 20.3961 174.222 20.9323C173.262 21.4686 172.155 21.7367 170.902 21.7367C169.666 21.7367 168.559 21.4686 167.583 20.9323C166.606 20.3961 165.842 19.6567 165.288 18.7143C164.735 17.7555 164.458 16.6506 164.458 15.3993ZM167.436 15.3993C167.436 16.1306 167.583 16.7724 167.876 17.3249C168.185 17.8774 168.592 18.308 169.096 18.6168C169.617 18.9255 170.219 19.0799 170.902 19.0799C171.586 19.0799 172.188 18.9255 172.709 18.6168C173.229 18.308 173.636 17.8774 173.929 17.3249C174.222 16.7724 174.368 16.1306 174.368 15.3993C174.368 14.6519 174.222 14.01 173.929 13.4738C173.636 12.9213 173.229 12.4907 172.709 12.1819C172.188 11.8732 171.586 11.7188 170.902 11.7188C170.219 11.7188 169.617 11.8732 169.096 12.1819C168.592 12.4907 168.185 12.9213 167.876 13.4738C167.583 14.01 167.436 14.6519 167.436 15.3993Z" fill="#1D1B1B"/>
<path d="M182.196 21.4442H179.218V9.40325H181.977L182.221 10.9632C182.595 10.362 183.124 9.89074 183.807 9.5495C184.507 9.20826 185.264 9.03764 186.077 9.03764C187.59 9.03764 188.73 9.4845 189.494 10.3782C190.275 11.272 190.666 12.4907 190.666 14.0344V21.4442H187.688V14.7412C187.688 13.7338 187.46 12.9863 187.005 12.4988C186.549 11.9951 185.931 11.7432 185.15 11.7432C184.222 11.7432 183.498 12.0357 182.977 12.6207C182.457 13.2057 182.196 13.9856 182.196 14.9606V21.4442Z" fill="#1D1B1B"/>
<path d="M41.4497 9.39796H43.7696V5.64248H46.7489V9.39796H49.0689V11.8854H46.7489V18.9585H49.0689V21.4458H46.1471C44.8345 21.4458 43.7704 20.3832 43.7704 19.0725L43.7696 11.8854H41.4497V9.39796Z" fill="#1D1B1B"/>
</svg>
