<svg width="22" height="40" viewBox="0 0 22 40" fill="none" xmlns="http://www.w3.org/2000/svg">
<path d="M18.2929 11.293C18.6834 10.9024 19.3164 10.9024 19.707 11.293C20.0975 11.6835 20.0975 12.3165 19.707 12.707L3.70696 28.707C3.31643 29.0976 2.68342 29.0976 2.29289 28.707C1.90237 28.3165 1.90237 27.6835 2.29289 27.293L18.2929 11.293Z" fill="#FF4933"/>
<path d="M2.29289 11.293C2.68342 10.9024 3.31643 10.9024 3.70696 11.293L19.707 27.293C20.0975 27.6835 20.0975 28.3165 19.707 28.707C19.3164 29.0976 18.6834 29.0976 18.2929 28.707L2.29289 12.707C1.90237 12.3165 1.90237 11.6835 2.29289 11.293Z" fill="#FF4933"/>
</svg>
